<svg width="17" height="20" viewBox="0 0 17 20" fill="none" xmlns="http://www.w3.org/2000/svg">
<path d="M8.36502 0.00130206C8.27653 0.00475297 8.18963 0.0258912 8.10944 0.0634698L0.373007 3.79354C0.261518 3.84779 0.16747 3.9322 0.101537 4.03721C0.0356043 4.14221 0.00042778 4.2636 0 4.38758V7.37854C0 12.9442 3.33176 17.7162 8.13016 19.8328C8.21497 19.8705 8.30675 19.89 8.39956 19.89C8.49237 19.89 8.58414 19.8705 8.66895 19.8328C13.4677 17.7164 16.7991 12.9444 16.7991 7.37854V4.38758C16.7987 4.2636 16.7635 4.14221 16.6976 4.03721C16.6316 3.9322 16.5376 3.84779 16.4261 3.79354L8.68967 0.0634698C8.58844 0.0156776 8.47675 -0.00570927 8.36502 0.00130206ZM8.39956 1.39662L15.4729 4.80894V7.37854C15.4729 12.3067 12.5823 16.5089 8.39956 18.4789C4.21712 16.5087 1.32625 12.3064 1.32625 7.37854V4.80894L8.39956 1.39662ZM12.3161 6.62562C12.1676 6.64168 12.0289 6.70739 11.9224 6.81213L7.30126 11.226L5.33261 9.25739C5.27298 9.1891 5.19999 9.13376 5.11813 9.0948C5.03627 9.05583 4.9473 9.03405 4.8567 9.03082C4.7661 9.02759 4.67579 9.04297 4.59137 9.07601C4.50695 9.10905 4.43019 9.15905 4.36585 9.22292C4.30151 9.28679 4.25095 9.36317 4.21729 9.44735C4.18362 9.53152 4.16758 9.62171 4.17014 9.71233C4.1727 9.80296 4.19382 9.89209 4.23218 9.97423C4.27054 10.0564 4.32534 10.1298 4.39319 10.1899L6.82464 12.6214C6.94667 12.7439 7.11173 12.8139 7.28464 12.8165C7.45754 12.8191 7.62462 12.754 7.75025 12.6352L12.8342 7.77227C12.9364 7.67779 13.0063 7.55355 13.0339 7.41715C13.0616 7.28075 13.0456 7.13911 12.9883 7.01228C12.931 6.88545 12.8353 6.77986 12.7146 6.71046C12.594 6.64107 12.4546 6.61139 12.3161 6.62562Z" fill="#F7C408"/>
<path d="M8.36502 0.00130206C8.27653 0.00475297 8.18963 0.0258912 8.10944 0.0634698L0.373007 3.79354C0.261518 3.84779 0.16747 3.9322 0.101537 4.03721C0.0356043 4.14221 0.00042778 4.2636 0 4.38758V7.37854C0 12.9442 3.33176 17.7162 8.13016 19.8328C8.21497 19.8705 8.30675 19.89 8.39956 19.89C8.49237 19.89 8.58414 19.8705 8.66895 19.8328C13.4677 17.7164 16.7991 12.9444 16.7991 7.37854V4.38758C16.7987 4.2636 16.7635 4.14221 16.6976 4.03721C16.6316 3.9322 16.5376 3.84779 16.4261 3.79354L8.68967 0.0634698C8.58844 0.0156776 8.47675 -0.00570927 8.36502 0.00130206ZM8.39956 1.39662L15.4729 4.80894V7.37854C15.4729 12.3067 12.5823 16.5089 8.39956 18.4789C4.21712 16.5087 1.32625 12.3064 1.32625 7.37854V4.80894L8.39956 1.39662ZM12.3161 6.62562C12.1676 6.64168 12.0289 6.70739 11.9224 6.81213L7.30126 11.226L5.33261 9.25739C5.27298 9.1891 5.19999 9.13376 5.11813 9.0948C5.03627 9.05583 4.9473 9.03405 4.8567 9.03082C4.7661 9.02759 4.67579 9.04297 4.59137 9.07601C4.50695 9.10905 4.43019 9.15905 4.36585 9.22292C4.30151 9.28679 4.25095 9.36317 4.21729 9.44735C4.18362 9.53152 4.16758 9.62171 4.17014 9.71233C4.1727 9.80296 4.19382 9.89209 4.23218 9.97423C4.27054 10.0564 4.32534 10.1298 4.39319 10.1899L6.82464 12.6214C6.94667 12.7439 7.11173 12.8139 7.28464 12.8165C7.45754 12.8191 7.62462 12.754 7.75025 12.6352L12.8342 7.77227C12.9364 7.67779 13.0063 7.55355 13.0339 7.41715C13.0616 7.28075 13.0456 7.13911 12.9883 7.01228C12.931 6.88545 12.8353 6.77986 12.7146 6.71046C12.594 6.64107 12.4546 6.61139 12.3161 6.62562Z" stroke="#F7C408"/>
</svg>
