<svg width="1932" height="1113" viewBox="0 0 1932 1113" fill="none" xmlns="http://www.w3.org/2000/svg">
<path d="M-202.39 437.765C-159.058 472.651 -113.272 508.663 -58.5892 518.792C9.41243 531.35 83.9074 502.244 146.668 531.273C156.178 535.673 165.356 541.53 171.364 550.123C189.821 576.391 172.744 616.828 191.892 642.583C205.339 660.641 231.031 663.659 253.503 662.405C275.974 661.152 299.774 657.418 320.047 667.188C348.142 680.718 358.931 714.531 379.229 738.189C402.876 765.736 438.717 778.677 471.236 794.842C503.728 811.006 536.783 835.1 543.89 870.703C547.315 887.941 544.146 905.794 545.731 923.288C549.258 961.756 575.411 994.494 604.733 1019.61C634.056 1044.75 667.648 1064.96 694.439 1092.76C721.231 1120.56 741.095 1159.13 733.63 1197.04C727.903 1226.07 707.426 1249.65 687.511 1271.54C644.895 1318.35 598.649 1365.95 538.47 1385.51C497.26 1398.91 452.676 1397.99 410.827 1409.3C369.003 1420.58 326.617 1450.27 322.245 1493.39M179.826 -156.588C195.241 -120.627 219.553 -88.5286 250 -63.9749C276.996 -42.209 308.415 -26.4793 335.616 -4.96928C362.816 16.5408 386.54 46.261 388.79 80.8919C389.634 93.9617 387.384 107.134 389.046 120.101C395.411 170.257 454.005 196.422 474.661 242.563C496.033 290.263 472.284 347.53 487.316 397.609C498.564 435.002 531.108 468.457 523.924 506.848C518.632 535.161 494.09 554.574 484.171 580.943C477.473 598.77 477.78 648.543 510.861 626.521C517.482 622.122 522.007 615.216 525.79 608.208C535.735 589.793 542.177 571.454 564.93 566.032C580.14 562.4 596.042 564.856 611.585 566.492C653.229 570.892 699.501 556.62 725.807 522.5C748.406 493.19 755.206 451.781 784.708 429.427C805.083 414.004 832.207 411.063 854.806 399.169C926.514 361.469 925.032 273.025 939.169 204.811C952.335 141.176 1039.97 127.16 1074.28 78.4621C1089.41 56.9521 1091.92 28.1526 1084.84 2.83163C1077.75 -22.5149 1061.98 -44.7156 1043.45 -63.361M2110.79 -167.1C2058.13 -180.349 2003.04 -147.636 1970.98 -103.798C1938.92 -59.9337 1923.89 -6.35041 1904.41 44.3683C1884.93 95.087 1858.09 146.496 1811.69 174.733C1799.08 182.406 1785.28 188.186 1773.62 197.266C1763.45 205.195 1755.16 215.451 1744.45 222.613C1716.18 241.488 1677.37 234.455 1647.66 217.881C1617.96 201.333 1593.62 176.575 1564.86 158.441C1528.58 135.575 1485.43 123.733 1442.56 124.935C1420.32 125.549 1397.39 129.923 1379.29 142.864C1361.19 155.806 1349.04 178.774 1353.77 200.514C1360.98 233.585 1403.32 258.267 1393.27 290.57C1386.52 312.259 1359.91 319.984 1344.88 337.018C1317.17 368.4 1337.21 418.838 1366.1 449.146C1394.96 479.455 1433.08 504.597 1445.6 544.548C1461.02 593.732 1431.72 644.706 1403.68 687.957C1392.96 704.479 1381.31 721.846 1363.39 730.056C1339.56 740.977 1311.13 732.588 1288.71 719.032C1266.29 705.477 1246.91 686.985 1223.39 675.424C1205.86 666.805 1179.55 665.27 1171.65 683.174C1166.44 695.016 1173.34 709.39 1183.9 716.858C1194.46 724.327 1207.75 726.577 1220.53 728.624C1288.94 739.647 1363 754.251 1408.46 806.582C1448.77 853.029 1500.21 824.178 1541.24 788.396C1579.56 754.968 1599.14 682.892 1659.81 683.276C1689.69 683.455 1719.53 704.172 1748.92 711.231C1772.98 717.012 1797.55 722.511 1818.95 734.915C1840.34 747.32 1858.47 768.114 1860.95 792.745C1864.99 832.516 1822.04 900.423 1796.45 929.273C1770.04 959.045 1732.59 978.406 1736.3 1024.24C1737.5 1039.05 1746.85 1046.52 1753.37 1059.31C1760.74 1073.81 1763.96 1090.13 1770.94 1104.81C1801.59 1169.36 1870.23 1208.19 1851.36 1289.6C1835.05 1359.99 1765.13 1395.44 1722.24 1447.64M707.861 1433.67C715.121 1384.64 741.376 1331.11 789.846 1320.75C827.17 1312.77 865.517 1333.23 903.404 1328.5C944.102 1323.41 975.01 1291.16 1006.2 1264.53C1037.41 1237.93 1079.95 1214.45 1117.74 1230.39C1139.75 1239.67 1156.65 1261.34 1180.42 1263.72C1193.82 1265.05 1206.93 1259.85 1219.18 1254.25C1237.89 1245.71 1256.4 1235.96 1276.59 1232.13C1296.82 1228.32 1319.65 1231.49 1334.29 1245.91C1359.17 1270.44 1349.48 1311.57 1353.95 1346.23C1358.09 1378.27 1376.68 1408.17 1403.57 1426.08M903.378 1258.73C893.817 1258.73 884.307 1256.99 875.871 1253.66C847.111 1242.38 823.387 1213.64 813.928 1178.67C809.761 1163.3 807.792 1146.42 805.696 1128.57C801.094 1089.33 795.854 1044.85 763.515 1012.73C747.153 996.489 726.932 987.026 709.113 978.688C694.951 972.063 681.555 965.797 671.585 957.101C649.216 937.586 642.824 908.556 635.436 874.948C631.014 854.794 626.438 833.974 617.848 814.101C608.798 793.179 595.121 777.296 583.055 763.28C563.6 740.696 552.633 726.705 553.681 701.998C554.985 670.999 577.098 640.87 606.267 630.332C622.424 624.501 641.265 623.529 661.18 622.506C688.329 621.124 716.425 619.692 743.293 606.162C779.39 588.003 800.583 553.934 819.296 523.856C821.521 520.275 823.745 516.695 825.994 513.165C840.745 489.89 860.328 476.82 882.978 461.704C902.56 448.635 922.807 435.13 941.137 414.055C981.606 367.556 998.606 314.587 990.298 260.876C989.863 258.037 989.377 255.198 988.866 252.333C986.949 241.309 985.134 230.9 987.665 224.48C989.045 221.027 993.902 209.722 998.887 209.722C1011.03 209.722 1038.15 231.82 1062.52 268.83C1075.91 289.189 1082.25 304.765 1083.25 310.29C1091.76 357.684 1080.21 408.019 1067.81 451.013C1062.98 467.792 1059.07 486.053 1054.9 505.415C1042.86 561.633 1029.21 625.37 990.119 653.172C976.365 662.943 958.649 668.39 939.884 674.145C920.992 679.951 901.435 685.962 883.003 697.036C850.971 716.296 828.193 749.111 819.833 785.404C815.641 803.589 814.337 824.051 818.632 842.364C823.719 864.053 826.122 888.76 817.149 910.653C806.54 936.563 784.759 949.786 783.736 980.222C782.637 1012.93 797.669 1045.06 821.265 1067.29C846.65 1091.2 881.776 1106.32 928.61 1113.48C935.845 1114.58 943.08 1115.47 950.059 1116.34C967.443 1118.52 983.881 1120.56 998.836 1125.45C1018.65 1131.94 1033.4 1143.86 1038.31 1157.32C1040.58 1163.58 1039.97 1171.74 1036.75 1178.11C1035.55 1180.46 1032.89 1184.61 1028.67 1185.81C1026.7 1186.37 1023.68 1186.7 1020.51 1187.09C1013.84 1187.85 1005.51 1188.8 996.868 1192.61C979.739 1200.16 970.69 1214.33 963.404 1225.68C961.563 1228.57 959.825 1231.28 958.137 1233.61C946.685 1249.37 926.233 1258.73 903.378 1258.73ZM1218.97 1187.11C1205.14 1187.11 1188.45 1175.83 1178.32 1159.67C1168.66 1144.19 1163.09 1125.47 1157.23 1105.65C1154.81 1097.44 1152.27 1088.92 1149.39 1080.48C1134.74 1037.49 1112.32 1008.84 1082.79 995.389C1068.99 989.097 1053.67 986.028 1035.98 986.028C1020.08 986.028 1004.56 988.458 989.556 990.811C982.347 991.937 975.521 993.011 968.874 993.778C964.937 994.238 960.898 994.469 956.885 994.469C938.325 994.469 915.01 989.149 910.332 974.135C907.699 965.644 910.562 953.699 919.381 936.512C921.401 932.547 923.549 928.583 925.67 924.618C937.072 903.415 949.957 879.399 950.775 851.162C951.005 843.182 950.212 835.586 949.496 828.885C948.755 821.646 948.039 814.817 948.832 809.472C951.158 794.049 971.686 776.222 1006.45 772.002C1011.49 771.388 1016.45 770.774 1021.28 770.16C1042.24 767.5 1060.37 765.224 1076.4 765.224C1108.43 765.224 1129.01 773.281 1146.11 815.764C1150.84 827.529 1154.7 839.755 1158.79 852.697C1164.44 870.6 1170.27 889.143 1178.84 907.175C1201.49 954.978 1243.11 997.666 1299.17 1030.66C1303.11 1032.99 1307.14 1035.26 1311.16 1037.57C1331.92 1049.38 1351.52 1060.53 1361.6 1077.03C1366.48 1085.01 1367.3 1097.59 1363.54 1106.34C1360.91 1112.45 1357.69 1113.12 1356.61 1113.35C1355.49 1113.58 1353.93 1113.71 1351.86 1113.71C1349.84 1113.71 1347.79 1113.61 1345.75 1113.53C1343.11 1113.43 1340.38 1113.3 1337.41 1113.3C1334.17 1113.3 1331.23 1113.45 1328.41 1113.76C1296.97 1117.16 1277.31 1138.85 1259.95 1158.01C1248.24 1170.92 1237.2 1183.1 1225.39 1186.29C1223.34 1186.83 1221.17 1187.11 1218.97 1187.11ZM1947.82 1397.28C1944.14 1395.28 1942.14 1389.3 1941.53 1385.82C1939.56 1374.36 1946.16 1363.11 1944.29 1351.62C1940.48 1328.22 1926.19 1308.17 1919.24 1285.74C1918.24 1282.49 1917.29 1279.16 1917.37 1275.76C1917.45 1272.36 1918.65 1268.86 1921.26 1266.68C1931.2 1258.42 1940.68 1275.33 1944.88 1281.7C1952.57 1293.41 1964 1302.31 1976.37 1308.96C1987.6 1314.97 1999.71 1318.09 2011.24 1323.23C2019.19 1326.79 2022.03 1335.18 2012.73 1339.55C2001.58 1344.82 1991.74 1349.65 1982.61 1358.12C1978.44 1361.98 1974.56 1366.18 1971.05 1370.65C1967.76 1374.87 1965.35 1381.21 1961.67 1384.9C1959.6 1388.71 1955.87 1397.66 1950.65 1397.94C1949.63 1397.97 1948.69 1397.74 1947.82 1397.28ZM65.9355 1361.73C59.9534 1361.98 53.8691 1361.93 47.6569 1361.55C29.9662 1360.42 10.8951 1355.71 0.0813141 1341.65C-9.17304 1329.63 -10.4001 1312.98 -7.07675 1298.14C-3.77893 1283.33 3.50696 1269.78 10.077 1256.07C77.6441 1114.78 66.9325 938.941 -17.2259 806.889C-22.6711 798.346 -28.4743 789.829 -31.2608 780.084C-34.0473 770.365 -33.3315 758.983 -26.7103 751.336C2.48437 717.651 25.3902 786.299 39.1183 800.673C67.8017 830.726 112.028 852.415 153.98 850.906C181.129 849.934 210.759 847.351 233.076 862.876C251.636 875.792 261.274 898.939 280.243 911.242C297.806 922.623 320.558 922.879 338.837 933.059C362.152 946.077 369.514 969.582 379.152 992.601C390.145 1018.84 408.066 1042.76 423.251 1066.93C427.52 1073.73 431.943 1081.81 429.207 1089.33C422.535 1107.57 389.276 1102.68 374.678 1106.62C350.52 1113.12 328.611 1127.16 310.639 1144.32C283.515 1170.23 264.163 1203 244.453 1234.92C204.214 1300.11 144.904 1358.3 65.9355 1361.73ZM594.329 445.028C591.44 445.489 588.474 445.489 585.509 444.926C561.811 440.425 551.304 406.791 550.486 386.151C549.974 373.158 551.738 358.809 553.783 342.184C555.343 329.447 556.953 316.249 557.695 302.131C559.305 271.362 555.982 239.749 543.66 211.257C530.111 179.925 504.265 164.042 482.458 140.102C477.397 134.526 473.639 127.39 473.613 119.845C473.587 108.898 480.873 99.7675 482.152 89.1276C483.507 77.8994 481.666 64.267 479.902 53.1667C475.351 24.802 461.316 -0.774744 441.376 -21.2362C409.651 -53.821 367.239 -69.7553 329.25 -93.2092C321.095 -98.2478 312.173 -104.923 311.687 -114.515C311.329 -121.548 315.931 -128.096 321.785 -131.984C338.939 -143.391 365.041 -146.434 385.058 -146.434C397.84 -146.434 410.162 -144.849 418.854 -142.061C440.277 -135.206 460.396 -123.569 477.039 -108.376C485.219 -100.908 493.758 -91.3165 502.808 -81.1625C525.253 -55.9694 550.69 -27.4257 588.526 -9.39412C615.675 3.54773 642.032 6.41234 663.174 8.71425C677.976 10.3256 690.758 11.7067 699.143 16.0548C735.777 35.0327 763.566 82.4009 744.853 119.999C743.447 122.812 741.555 126.214 739.535 129.795C729.948 146.906 716.834 170.283 716.425 201.307C716.118 223.994 723.174 244.839 734.397 264.277C738.155 270.799 741.759 278.498 747 283.971C754.235 291.542 763.873 295.302 769.804 304.458C776.118 314.254 776.757 328.782 767.988 336.481C760.421 343.105 749.224 342.491 739.177 342.696C698.555 343.591 659.007 365.894 637.2 400.167C630.656 410.449 625.569 421.779 617.567 430.961C611.534 437.969 603.2 443.647 594.329 445.028ZM1329.74 667.623C1323.79 665.833 1319.44 659.438 1314.58 653.709C1304.23 641.509 1293.52 629.514 1280.58 619.948C1262.18 606.316 1246.35 603.528 1224.09 600.484C1218.72 599.742 1212.86 598.77 1209.26 594.729C1204.78 589.716 1205.63 581.608 1209.33 576.007C1216.57 565.086 1224.88 561.377 1230.14 548.486C1236.59 532.68 1239.53 516.311 1239.09 499.251C1238.15 464.39 1224.93 431.242 1215.21 398.197C1207.16 370.83 1209.79 342.542 1216.06 328.015C1218.56 322.183 1225.36 313.589 1231.93 305.277C1242.72 291.619 1246.63 272.308 1255.94 257.525C1263.53 245.478 1278.54 236.629 1288.02 251.719C1297.99 267.577 1284.34 283.025 1275.98 295.532C1259.8 319.728 1253.36 349.857 1252.85 390.652C1252.39 428.097 1264.27 471.04 1291.32 498.305C1314.76 521.938 1338.87 546.108 1350.12 578.232C1357.58 599.512 1365.87 650.18 1342.35 665.04C1337.28 668.16 1333.25 668.672 1329.74 667.623ZM1563.63 490.12C1539.14 484.238 1534.08 452.957 1517.67 436.179C1503.61 421.805 1477.17 409.963 1474.03 388.632C1470.25 363.004 1501.51 338.271 1501.46 308.372C1501.43 293.384 1504.91 275.352 1518.92 270.032C1539.42 262.257 1573.68 294.253 1594.39 299.471C1603.33 301.722 1612.21 303.742 1620.77 305.712C1649.3 312.259 1673.82 317.886 1693.65 328.68C1719.5 342.696 1768.61 402.315 1750.05 433.237C1742.84 445.259 1728.5 451.55 1714.52 452.625C1682.99 455.003 1663 449.53 1631.51 460.988C1610.88 468.482 1590.83 493.803 1567.21 490.785C1566.01 490.632 1564.81 490.402 1563.63 490.12ZM393.673 590.1C387.205 590.1 376.442 581.225 367.009 561.352C362.612 552.093 358.956 541.274 355.07 529.815C349.804 514.265 344.384 498.203 335.922 481.68C310.153 431.319 262.118 392.647 207.435 378.247C195.318 375.05 182.459 373.439 169.242 373.439C144.368 373.439 121.82 378.989 101.93 383.9C87.3843 387.481 73.6561 390.882 63.2769 390.882C55.7354 390.882 51.0571 389.143 45.4329 384.207C28.7648 369.628 18.9225 347.734 19.127 325.585V324.945C19.127 307.911 32.9829 290.673 57.4738 261.643C89.4294 223.738 109.6 192.176 122.817 159.234C128.773 144.373 131.406 128.49 133.937 113.093C137.976 88.5138 141.811 65.2901 158.76 50.1742C168.807 41.2224 190.972 31.938 210.656 31.938C218.684 31.938 225.356 33.5493 229.958 36.5674C241.436 44.1381 242.663 59.3051 243.226 81.6337C243.302 84.7284 243.379 87.7721 243.507 90.7134C244.759 119.001 246.165 151.023 260.098 180.104C273.622 208.341 294.713 226.577 313.298 242.665C324.572 252.41 335.207 261.617 340.345 270.237C351.9 289.65 354.227 314.766 356.937 343.872C360.516 382.493 364.58 426.255 391.398 468.968C392.037 469.966 392.752 471.117 393.494 472.268C407.478 493.957 413.869 530.762 409.037 561.786C406.225 579.92 400.089 588.182 395.692 589.767C395.053 589.998 394.389 590.1 393.673 590.1ZM1968.5 610.485C1949.94 610.485 1930.61 594.192 1925.42 574.191C1922.38 562.477 1922.79 549.458 1923.25 535.672C1923.91 515.032 1924.63 493.701 1913.61 474.109C1907.5 463.239 1898.94 455.208 1890.65 447.433C1884.75 441.882 1879.2 436.665 1875.01 430.833C1862.1 412.878 1861.23 388.734 1860.28 363.157C1860.13 358.911 1859.98 354.717 1859.77 350.548C1857.5 305.712 1842.31 275.122 1815.83 262.103C1814.37 261.387 1812.86 260.722 1811.35 260.057C1808.59 258.855 1806.01 257.704 1804.71 256.476C1804.32 256.118 1803.17 255.019 1803.28 251.949C1803.43 247.627 1805.98 242.588 1809.51 239.673C1815.75 234.532 1824.6 231.897 1833.98 229.084C1837.1 228.163 1840.19 227.217 1843.23 226.194C1881.96 213.226 1915.09 183.25 1931.86 145.985C1938.56 131.201 1940.07 109.563 1941.68 86.6467C1945.29 35.6466 1949.81 2.1922 1979.06 2.1922C1982.64 2.1922 1986.6 2.65257 1990.87 3.54776C2016.41 8.94446 2042.84 14.5202 2064.37 28.3317C2084.02 40.9154 2100.97 61.1467 2117.74 91.9922C2135.23 124.117 2149.83 161.126 2163.71 208.469C2170.33 231.053 2177.34 257.295 2176.64 283.383C2175.95 309.497 2166.88 332.746 2151.69 347.197C2138.71 359.551 2120.94 366.61 2102.15 374.078C2078.68 383.388 2054.42 393.031 2037.62 414.132C2014.95 442.599 2015.46 480.273 2015.92 513.523C2016 519.687 2016.07 525.493 2016.02 531.273C2015.72 566.237 2002.88 604.065 1974.86 609.794C1972.82 610.254 1970.67 610.485 1968.5 610.485ZM1917.09 1088.41C1911.08 1086.83 1911.13 1072.2 1908.14 1065.21C1904.18 1055.96 1898.81 1047.28 1892.21 1039.66C1878.92 1024.32 1860.67 1013.63 1840.47 1010.66C1836.46 1010.07 1831.8 1009.41 1829.68 1005.95C1827.2 1001.96 1829.63 996.796 1832.16 992.832C1847.4 968.892 1866.98 948.098 1885.67 926.767C1904.36 905.436 1922.51 883.056 1934.06 857.147C1945.64 831.238 1950.12 801.134 1940.86 774.304C1937.23 763.741 1931.58 753.97 1928.21 743.33C1917.8 710.592 1945.16 713.278 1968.98 709.032C1977.78 707.472 1987.83 706.167 1994.83 711.717C2000.43 716.142 2002.42 723.918 2001.76 731.002C2001.07 738.087 1998.13 744.737 1995.37 751.285C1970.39 810.29 1956.56 873.977 1954.82 938.021C1954.08 965.593 1955.54 993.369 1951.32 1020.66C1949.15 1034.73 1945.87 1048.87 1940.07 1061.91C1936.59 1069.72 1931.12 1080.71 1924.2 1085.93C1921.13 1088.21 1918.85 1088.87 1917.09 1088.41ZM1247.4 1428.81C1223.62 1426.15 1199.7 1426.26 1177 1415.97C1151 1404.18 1124.43 1393.21 1096.54 1386.74C1060.78 1378.45 1022.18 1377.94 988.355 1392.21C982.27 1394.77 976.288 1397.81 969.769 1398.76C946.557 1402.09 955.376 1383.75 968.44 1377.17C981.452 1370.6 997.762 1369.19 1008.47 1358.5C1017.5 1349.5 1025.27 1339.99 1032.79 1330.78C1040.69 1321.08 1049.56 1305.71 1060.75 1300.03C1075.3 1292.67 1096.39 1297.78 1110.53 1303.38C1129.04 1310.7 1145.76 1322.16 1164.47 1328.96C1199.01 1341.52 1239.42 1336.66 1270 1316.28C1273.55 1313.9 1277.13 1311.26 1281.32 1310.42C1285.52 1309.57 1290.58 1311.16 1292.16 1315.12C1293.24 1317.81 1292.52 1320.83 1291.81 1323.64C1287.33 1340.83 1277.59 1360.65 1284.57 1377.76C1290.17 1391.52 1307.5 1407.53 1298.55 1423.42C1292.19 1434.9 1279.28 1434.75 1268.11 1432.19C1261.26 1430.6 1254.35 1429.58 1247.4 1428.81Z" stroke="#997800" stroke-width="0.5" stroke-miterlimit="10"/>
</svg>
