<?xml version="1.0" encoding="UTF-8" standalone="no"?>
<svg
   xmlns:dc="http://purl.org/dc/elements/1.1/"
   xmlns:cc="http://creativecommons.org/ns#"
   xmlns:rdf="http://www.w3.org/1999/02/22-rdf-syntax-ns#"
   xmlns:svg="http://www.w3.org/2000/svg"
   xmlns="http://www.w3.org/2000/svg"
   xmlns:xlink="http://www.w3.org/1999/xlink"
   xmlns:sodipodi="http://sodipodi.sourceforge.net/DTD/sodipodi-0.dtd"
   xmlns:inkscape="http://www.inkscape.org/namespaces/inkscape"
   width="1933.0194"
   height="2141.0386"
   viewBox="0 0 1933.0194 2141.0386"
   fill="none"
   version="1.1"
   id="svg39"
   sodipodi:docname="bg2.svg"
   inkscape:version="1.0.2-2 (e86c870879, 2021-01-15)">
  <metadata
     id="metadata43">
    <rdf:RDF>
      <cc:Work
         rdf:about="">
        <dc:format>image/svg+xml</dc:format>
        <dc:type
           rdf:resource="http://purl.org/dc/dcmitype/StillImage" />
        <dc:title />
      </cc:Work>
    </rdf:RDF>
  </metadata>
  <sodipodi:namedview
     pagecolor="#ffffff"
     bordercolor="#666666"
     borderopacity="1"
     objecttolerance="10"
     gridtolerance="10"
     guidetolerance="10"
     inkscape:pageopacity="0"
     inkscape:pageshadow="2"
     inkscape:window-width="960"
     inkscape:window-height="1042"
     id="namedview41"
     showgrid="false"
     fit-margin-top="0"
     fit-margin-left="0"
     fit-margin-right="0"
     fit-margin-bottom="0"
     inkscape:zoom="0.19276765"
     inkscape:cx="1250.478"
     inkscape:cy="1892.4273"
     inkscape:window-x="951"
     inkscape:window-y="0"
     inkscape:window-maximized="0"
     inkscape:current-layer="svg39"
     inkscape:document-rotation="0" />
  <defs
     id="defs37">
    <linearGradient
       id="paint0_linear"
       x1="200.571"
       y1="442.07501"
       x2="243.769"
       y2="282.39301"
       gradientUnits="userSpaceOnUse"
       gradientTransform="translate(1437.6353,63.22878)">
      <stop
         stop-color="#FDEAAD"
         stop-opacity="0.3"
         id="stop12" />
      <stop
         offset="1"
         stop-color="#FDEAAD"
         stop-opacity="0.8"
         id="stop14" />
    </linearGradient>
    <linearGradient
       id="paint1_linear"
       x1="200.571"
       y1="442.07501"
       x2="243.769"
       y2="282.39301"
       gradientUnits="userSpaceOnUse"
       gradientTransform="translate(1437.6353,63.22878)">
      <stop
         stop-color="#FDEAAD"
         stop-opacity="0.3"
         id="stop17" />
      <stop
         offset="1"
         stop-color="#FDEAAD"
         stop-opacity="0.8"
         id="stop19" />
    </linearGradient>
    <linearGradient
       id="paint2_linear"
       x1="200.571"
       y1="442.07501"
       x2="243.769"
       y2="282.39301"
       gradientUnits="userSpaceOnUse"
       gradientTransform="translate(1437.6353,63.22878)">
      <stop
         stop-color="#FDEAAD"
         stop-opacity="0.3"
         id="stop22" />
      <stop
         offset="1"
         stop-color="#FDEAAD"
         stop-opacity="0.8"
         id="stop24" />
    </linearGradient>
    <linearGradient
       id="paint3_linear"
       x1="200.571"
       y1="442.07501"
       x2="243.769"
       y2="282.39301"
       gradientUnits="userSpaceOnUse"
       gradientTransform="translate(1437.6353,63.22878)">
      <stop
         stop-color="#FDEAAD"
         stop-opacity="0.3"
         id="stop27" />
      <stop
         offset="1"
         stop-color="#FDEAAD"
         stop-opacity="0.8"
         id="stop29" />
    </linearGradient>
    <linearGradient
       id="paint4_linear"
       x1="200.571"
       y1="442.07501"
       x2="243.769"
       y2="282.39301"
       gradientUnits="userSpaceOnUse"
       gradientTransform="translate(1437.6353,63.22878)">
      <stop
         stop-color="#FDEAAD"
         stop-opacity="0.3"
         id="stop32" />
      <stop
         offset="1"
         stop-color="#FDEAAD"
         stop-opacity="0.8"
         id="stop34" />
    </linearGradient>
    <linearGradient
       id="paint0_linear-3"
       x1="525.90503"
       y1="861.04199"
       x2="612.18298"
       y2="1007.74"
       gradientUnits="userSpaceOnUse">
      <stop
         stop-color="#FDEAAD"
         stop-opacity="0.3"
         id="stop14-9" />
      <stop
         offset="1"
         stop-color="#FDEAAD"
         stop-opacity="0.8"
         id="stop16" />
    </linearGradient>
    <linearGradient
       id="paint0_linear-7"
       x1="525.90503"
       y1="860.64001"
       x2="612.18298"
       y2="1007.34"
       gradientUnits="userSpaceOnUse">
      <stop
         stop-color="#997800"
         stop-opacity="0.58"
         id="stop14-1" />
      <stop
         offset="1"
         stop-color="#997800"
         stop-opacity="0.8"
         id="stop16-8" />
    </linearGradient>
    <linearGradient
       inkscape:collect="always"
       xlink:href="#paint0_linear-7"
       id="linearGradient80"
       gradientUnits="userSpaceOnUse"
       x1="525.90503"
       y1="860.64001"
       x2="612.18298"
       y2="1007.34"
       gradientTransform="translate(-43.991145,983.0936)" />
    <linearGradient
       inkscape:collect="always"
       xlink:href="#paint0_linear-7"
       id="linearGradient82"
       gradientUnits="userSpaceOnUse"
       x1="525.90503"
       y1="860.64001"
       x2="612.18298"
       y2="1007.34"
       gradientTransform="translate(-43.991145,983.0936)" />
    <linearGradient
       inkscape:collect="always"
       xlink:href="#paint0_linear-7"
       id="linearGradient84"
       gradientUnits="userSpaceOnUse"
       x1="525.90503"
       y1="860.64001"
       x2="612.18298"
       y2="1007.34"
       gradientTransform="translate(-43.991145,983.0936)" />
    <linearGradient
       inkscape:collect="always"
       xlink:href="#paint0_linear-7"
       id="linearGradient86"
       gradientUnits="userSpaceOnUse"
       x1="525.90503"
       y1="860.64001"
       x2="612.18298"
       y2="1007.34"
       gradientTransform="translate(-43.991145,983.0936)" />
    <linearGradient
       inkscape:collect="always"
       xlink:href="#paint0_linear-7"
       id="linearGradient88"
       gradientUnits="userSpaceOnUse"
       x1="525.90503"
       y1="860.64001"
       x2="612.18298"
       y2="1007.34"
       gradientTransform="translate(-43.991145,983.0936)" />
    <linearGradient
       inkscape:collect="always"
       xlink:href="#paint0_linear-7"
       id="linearGradient90"
       gradientUnits="userSpaceOnUse"
       x1="525.90503"
       y1="860.64001"
       x2="612.18298"
       y2="1007.34"
       gradientTransform="translate(-43.991145,983.0936)" />
    <linearGradient
       id="paint0_linear-5"
       x1="118.13"
       y1="560.19897"
       x2="174.099"
       y2="592.96198"
       gradientUnits="userSpaceOnUse">
      <stop
         stop-color="#997800"
         stop-opacity="0.58"
         id="stop12-0" />
      <stop
         offset="1"
         stop-color="#997800"
         stop-opacity="0.8"
         id="stop14-7" />
    </linearGradient>
    <linearGradient
       inkscape:collect="always"
       xlink:href="#paint0_linear-5"
       id="linearGradient132"
       gradientUnits="userSpaceOnUse"
       x1="118.13"
       y1="560.19897"
       x2="174.099"
       y2="592.96198"
       gradientTransform="translate(1364.7254,159.47885)" />
    <linearGradient
       inkscape:collect="always"
       xlink:href="#paint0_linear-5"
       id="linearGradient134"
       gradientUnits="userSpaceOnUse"
       x1="118.13"
       y1="560.19897"
       x2="174.099"
       y2="592.96198"
       gradientTransform="translate(1364.7254,159.47885)" />
    <linearGradient
       inkscape:collect="always"
       xlink:href="#paint0_linear-5"
       id="linearGradient136"
       gradientUnits="userSpaceOnUse"
       x1="118.13"
       y1="560.19897"
       x2="174.099"
       y2="592.96198"
       gradientTransform="translate(1364.7254,159.47885)" />
    <linearGradient
       inkscape:collect="always"
       xlink:href="#paint0_linear-5"
       id="linearGradient138"
       gradientUnits="userSpaceOnUse"
       x1="118.13"
       y1="560.19897"
       x2="174.099"
       y2="592.96198"
       gradientTransform="translate(1364.7254,159.47885)" />
    <linearGradient
       inkscape:collect="always"
       xlink:href="#paint0_linear-5"
       id="linearGradient140"
       gradientUnits="userSpaceOnUse"
       x1="118.13"
       y1="560.19897"
       x2="174.099"
       y2="592.96198"
       gradientTransform="translate(1364.7254,159.47885)" />
  </defs>
  <path
     d="m 613.30986,2202.3936 c 2.203,-0.69 4.362,-1.45 6.565,-2.14 79.073,-24.83 145.187,-29 227.461,-10.55 92.423,20.7 190.76304,50.87 278.91304,15.77 73.99,-29.5 128.47,-101.33 205.79,-119.75 65.65,-15.63 132.92,10.64 198.15,28.04 131.22,34.89 271.69,-29.25 326.04,-159.873 30.78,-73.98 42.53,-227.098 23.75,-309.127 -29.38,-128.424 -158.84,-175.254 -262.23,-225.592 -196.8,-95.832 -226.33,-361.6993 -443.1,-420.8227 -109.87,-30.9967 -232.65805,-10.75 -327.34904,53.9726 -40.29901,27.5578 -76.148,63.4091 -97.614,107.7521 -59.241,122.08 -1.584,284.217 -78.75,395.422 -40.502,58.33 -111.2,88.794 -180.99001,95.888 -72.519,7.378 -143.89599,-22.709 -209.64599,6.724 -42.109,18.827 -90.109,72.279 -127.002,101.539 -39.42801,31.206 -218.037605,146.856 -194.088935,213.819 22.43683,62.628 158.455935,80.928 213.936925,105.398 148.38,65.44 280.616,175.65 440.16401,123.53 z"
     stroke="url(#paint0_linear)"
     stroke-miterlimit="10"
     id="path2-7"
     style="stroke:url(#linearGradient80)" />
  <path
     d="m 114.11385,1936.1086 c 8.511,-78.897 156.224,-168.866 222.892,-181.38 65.807,-12.363 133.938,-7.874 199.37801,-22.203 98.754,-21.59 187.336,-87.592 237.44399,-176.896 79.51101,-141.714 -22.03199,-325.797 124.48701,-425.873 73.03404,-49.9065 167.21404,-65.4066 251.91404,-41.532 l 0.71,0.193 c 84.01,22.913 133.42,95.148 190.57,178.824 69.15,101.174 144.13,189.585 255.46,243.119 49.96,24.054 102.22,45.9 143.22,83.598 79.69,73.413 65.52,201.158 40.12,297.652 -3.37,12.789 -6.44,21.091 -8.36,25.777 -86.54,207.756 -296.49,41.861 -445.58,70.316 -91.47,17.46 -157.09,103.5 -246.64,129.27 -161.21604,46.45 -316.95004,-59.22 -486.80804,-5.86 -2.486,0.8 -5.09,1.57 -7.725,2.46 -92.486,30.18 -208.952,-3.84 -295.901,-37.65 -47.688,-18.55 -101.764,-41.15 -140.912,-75.57 -27.08,-23.864 -36.323,-44.92 -34.26901,-64.245 z"
     stroke="url(#paint1_linear)"
     stroke-miterlimit="10"
     id="path4-7"
     style="stroke:url(#linearGradient82)" />
  <path
     d="m 245.49185,1929.0796 c -2.92899,-35.68 35.483,-69.029 108.07801,-82.695 25.797,-4.869 53.898,-6.729 83.65899,-8.652 38.002,-2.506 77.218,-5.067 118.31901,-14.065 123.686,-27.017 234.98,-109.928 297.72299,-221.786 13.564,-24.166 24.254,-50.855 31.746,-79.316 14.431,-54.822 15.502,-109.297 16.509,-157.29 0.74301,-38.347 1.494,-74.567 8.84401,-102.489 6.591,-25.039 17.845,-41.147 38.87,-55.492 51.15904,-34.958 117.14904,-45.855 176.48904,-29.091 l 1.47,0.402 c 49.28,13.442 83.32,60.311 139.15,142.019 53.51,78.306 113.6,153.195 188.91,210.807 76.69,58.63 192.21,71.026 238.1,163.859 26.64,53.86 30.35,167.69 -19.67,212.996 -43.9,39.77 -107.53,16.751 -160.08,4.927 -63.06,-14.174 -134.58,-30.27 -204.08,-17.05 -67.2,12.822 -119.48,48.952 -165.52,80.8 -31.52,21.78 -61.26,42.37 -89.15,50.4 -58.53,16.86 -121.00204,6 -193.38104,-6.6 -87.849,-15.27 -187.42,-32.58 -295.484,1.33 -2.62,0.83 -5.522,1.78 -8.559,2.75 -71.841,23.53 -169.78,9.62 -237.626,-20.92 -48.345,-21.809 -72.216,-48.979 -74.31701,-74.844 z"
     stroke="url(#paint2_linear)"
     stroke-miterlimit="10"
     id="path6-9"
     style="stroke:url(#linearGradient84)" />
  <path
     d="m 932.78786,1648.0906 c 17.485,-31.142 31.14094,-65.259 40.66104,-101.406 9.46,-35.967 16.75,-75.425 18.22,-112.674 1.3,-32.532 -7.19,-66.06 -2.08,-98.904 4.73,-30.243 22.32,-60.327 50.57,-70.9 24.1,-9 51.94,-2.179 73.22,12.506 33.49,23.036 55.12,64.009 77.78,97.22 71.48,104.576 135.98,176.163 209.09,232.078 35.91,27.495 75.76,45.828 110.92,62.046 45.92,21.151 85.59,39.436 100.29,69.058 13.09,26.353 23.48,75.459 -7.46,93.149 -32.36,18.525 -76.72,-6.444 -108.28,-15.183 -43.5,-12.122 -88.72,-17.248 -133.76,-15.63 -63,2.188 -125.67,17.529 -182.53,45.333 -50.26,24.585 -96.12,77.591 -149.57,92.938 -38.63,11.151 -91.67104,1.897 -153.05204,-8.796 -93.014,-16.295 -19.487,-146.32 55.981,-280.835 z"
     stroke="url(#paint3_linear)"
     stroke-miterlimit="10"
     id="path8-8"
     style="stroke:url(#linearGradient86)" />
  <path
     d="m 905.97986,1857.4666 c -0.494,-1.486 -0.853,-3 -1.079,-4.542 -1.965,-12.699 4.134,-25.065 10.081,-36.379 23.445,-44.898 44.977,-91.155 69.54704,-135.294 l 1.22,-2.241 c 48.27,-86.395 71.4,-186.53 60.86,-285.684 -1.28,-12.19 -3.06,-24.645 -0.24,-36.554 2.82,-11.909 11.52,-23.372 23.47,-25.069 16.01,-2.261 28.82,12.688 38.19,26.055 41.78,59.47 80.91,122.529 125.98,179.356 31.97,40.32 84.89,93.239 129.59,118.56 34.08,26.092 75.1,30.588 113.81,45.584 22.24,8.641 43.49,22.226 60.05,39.741 4.1,4.337 21.32,21.005 19.69,27.702 -4.97,19.819 -68.25,-1.174 -80.06,-5.038 -38.19,-12.606 -76.27,-27.818 -117.16,-26.356 -71.68,2.523 -143.22,20.337 -206.82,51.45 -26.48,12.985 -49.73,30.519 -72.23,47.553 -40.63,30.748 -88.21,55.227 -140.84005,47.307 -14.736,-2.346 -29.498,-12.035 -34.05899,-26.151 z"
     stroke="url(#paint4_linear)"
     stroke-miterlimit="10"
     id="path10-0"
     style="stroke:url(#linearGradient88)" />
  <path
     d="m 447.86985,1969.4126 c 19.591,-2.894 37.943,-11.403 57.21,-16.188 38.565,-9.689 79.084,-4.236 118.69,-7.077 25.495,-1.799 37.103,-15.173 56.54201,-28.534 3.235,-2.207 6.662,-4.425 8.74699,-7.783 2.084,-3.357 2.37301,-8.298 -0.529,-10.956 -2.74,-2.549 -6.952,-2.153 -10.63199,-1.612 -15.25801,2.274 -30.184,4.252 -45.636,4.864 -83.302,3.215 -168.98001,-18.867 -248.95601,5.077 -13.093,3.894 -28.569,13.96 -25.09199,27.394 1.349,5.195 5.413,9.199 9.517,12.571 22.21699,18.095 51.999,26.411 80.13899,22.244 z"
     stroke="url(#paint5_linear)"
     stroke-miterlimit="10"
     id="path12"
     style="stroke:url(#linearGradient90)" />
  <path
     d="m 1779.5214,965.35385 c -6.051,-0.417 -12.209,-3.335 -16.828,-7.776 -8.671,-8.322 -12.426,-21.292 -17.944,-31.671 -18.443,-34.685 -41.372,-77.781 -88.994,-106.153 -44.469,-26.487 -89.904,-18.72 -125.244,-63.358 -21.717,-27.435 -37.788,-60.132 -65.54,-81.44 -25.0307,-19.225 -58.6527,-28.54 -76.2022,-54.722 -22.5789,-33.739 -8.3422,-79.359 10.7277,-115.192 20.5734,-38.619 40.2344,-73.165 39.1027,-118.187 -1.3013,-51.921 -22.5046,-100.245 -52.7309,-141.8096 -8.7325,-12.0314 -18.7582,-24.2563 -20.2653,-39.0581 -4.5573,-44.03977 55.5491,-46.58587 85.0582,-44.8613 34.9828,2.07885 75.3308,26.4494 105.8008,42.4523 72.183,37.8643 137.616,88.6717 191.919,149.5167 24.758,27.757 48.24,60.238 49.396,97.412 1.479,46.399 -31.453,85.711 -60.711,121.729 -36.722,45.233 -50.125,85.103 -49.536,142.557 0.651,59.536 32.08,114.944 61.536,164.687 13.674,23.038 30.954,58.785 30.455,85.874 z"
     stroke="url(#paint0_linear)"
     stroke-miterlimit="10"
     id="path2"
     style="stroke:url(#linearGradient132)" />
  <path
     d="m 1663.6764,785.34785 c -9.844,9.103 -31.083,-4.121 -44.292,-9.197 -14.795,-5.692 -28.895,-13.606 -38.906,-26.233 -6.068,-7.65 -11.9,-16.174 -18.045,-25.159 -14.444,-21.117 -30.791,-45.034 -54.983,-63.657 -11.575,-8.921 -23.909,-15.731 -34.763,-21.765 -13.6601,-7.575 -26.551,-14.755 -31.995,-22.861 -8.7136,-13.028 -3.885,-39.697 12.9587,-71.344 l 2.8487,-5.332 c 20.9586,-39.233 42.5876,-79.788 41.2116,-133.981 -1.427,-56.085 -32.945,-106.417 -57.7356,-154.898 -3.3209,-6.4683 -6.708,-14.081 -3.7672,-20.7954 2.2978,-5.2612 8.108,-8.3519 13.8126,-8.9677 5.7259,-0.5789 11.4353,0.8718 16.9812,2.4658 100.852,29.0353 196.785,100.3603 265.887,177.8823 17.556,19.675 37.801,45.491 38.59,70.363 0.947,29.263 -24.417,60.483 -48.941,90.679 l -2.214,2.75 c -23.256,28.63 -41.852,60.742 -51.084,96.64 -5.576,21.678 -6.573,44.126 -5.971,66.443 0.417,15.477 8.287,32.439 4.927,48.114 -0.928,4.13 -2.484,6.995 -4.52,8.853 z"
     stroke="url(#paint1_linear)"
     stroke-miterlimit="10"
     id="path4"
     style="stroke:url(#linearGradient134)" />
  <path
     d="m 1643.3594,744.39885 c -3.251,3.345 -8.877,1.354 -18.601,-10.946 -5.345,-6.734 -10.784,-14.746 -16.594,-23.233 -23.997,-35.092 -51.141,-70.347 -90.442,-88.865 -9.542,-4.521 -19.451,-9.768 -24.839,-18.892 -8.888,-15.046 4.442,-29.057 11.257,-41.889 21.94,-41.127 46.797,-87.724 45.247,-150.883 -0.888,-35.85 -12.346,-71.837 -31.304,-102.186 -4.259,-6.817 -9.052,-15.248 -5.233,-22.319 3.25,-6.005 11.575,-7.633 18.002,-5.362 23.007,8.07 47.953,27.836 68.604,41.151 35.258,22.712 68.532,48.486 99.395,76.924 19.767,18.208 39.227,38.712 46.127,64.704 10.929,41.07 -13.321,63.767 -38.378,90.377 -25.437,26.976 -43.861,69.68 -53.04,105.154 -3.812,14.802 -5.383,29.992 -5.973,45.259 -0.383,10.567 1.787,34.841 -4.228,41.006 z"
     stroke="url(#paint2_linear)"
     stroke-miterlimit="10"
     id="path6"
     style="stroke:url(#linearGradient136)" />
  <path
     d="m 1599.5514,646.68385 c -1.403,0.559 -2.896,0.875 -4.544,0.836 -13.532,-0.407 -25.441,-23.029 -34.398,-30.991 -12.731,-11.361 -29.879,-17.376 -41.991,-29.29 -11.99,-11.786 1.316,-21.892 7.333,-34.314 4.619,-9.452 9.042,-18.989 13.189,-28.662 21.891,-50.904 36.201,-108.489 19.365,-163.017 -1.196,-3.796 -2.487,-7.932 -0.996,-11.597 3.445,-8.58 13.8,-0.585 18.278,2.066 11.592,6.891 21.283,16.303 31.95,24.414 17.472,13.27 34.305,27.399 50.435,42.276 18.312,16.876 40.357,34.762 35.091,62.814 -4.056,21.495 -21.885,37.105 -36.099,53.694 -17.923,20.935 -31.253,45.836 -38.768,72.372 -2.654,9.702 -6.994,34.563 -18.845,39.399 z"
     stroke="url(#paint3_linear)"
     stroke-miterlimit="10"
     id="path8"
     style="stroke:url(#linearGradient138)" />
  <path
     d="m 1559.4584,590.33885 c -0.29,0.61 -0.617,1.241 -0.929,1.814 -0.891,1.793 -2.131,3.836 -4.128,4.047 -2.225,0.243 -3.92,-1.937 -5.085,-3.879 -3.308,-5.589 -6.352,-11.576 -6.574,-18.05 -0.37,-11.021 9.146,-13.235 12.909,-21.948 8.7,-20.27 10.046,-42.968 12.486,-64.619 1.501,-13.425 2.876,-46.535 22.2,-47.879 3.984,-0.267 8.057,1.679 10.354,4.992 5.199,7.508 3.979,16.19 11.92,22.813 3.88,3.24 8.718,5.487 11.689,9.545 2.763,3.783 3.538,8.906 2.091,13.333 -2.12,6.342 -10.588,12.437 -15.16,17.428 -3.128,3.472 -6.278,6.907 -9.253,10.389 -18.366,21.535 -29.895,46.829 -42.52,72.014 z"
     stroke="url(#paint4_linear)"
     stroke-miterlimit="10"
     id="path10"
     style="stroke:url(#linearGradient140)" />
</svg>
