<?xml version="1.0" encoding="UTF-8" standalone="no"?>
<svg
   xmlns:dc="http://purl.org/dc/elements/1.1/"
   xmlns:cc="http://creativecommons.org/ns#"
   xmlns:rdf="http://www.w3.org/1999/02/22-rdf-syntax-ns#"
   xmlns:svg="http://www.w3.org/2000/svg"
   xmlns="http://www.w3.org/2000/svg"
   xmlns:sodipodi="http://sodipodi.sourceforge.net/DTD/sodipodi-0.dtd"
   xmlns:inkscape="http://www.inkscape.org/namespaces/inkscape"
   width="1933.0194"
   height="2141.0386"
   viewBox="0 0 1933.0194 2141.0386"
   fill="none"
   version="1.1"
   id="svg39"
   sodipodi:docname="bg3.svg"
   inkscape:version="1.0.2-2 (e86c870879, 2021-01-15)">
  <metadata
     id="metadata43">
    <rdf:RDF>
      <cc:Work
         rdf:about="">
        <dc:format>image/svg+xml</dc:format>
        <dc:type
           rdf:resource="http://purl.org/dc/dcmitype/StillImage" />
        <dc:title></dc:title>
      </cc:Work>
    </rdf:RDF>
  </metadata>
  <sodipodi:namedview
     pagecolor="#ffffff"
     bordercolor="#666666"
     borderopacity="1"
     objecttolerance="10"
     gridtolerance="10"
     guidetolerance="10"
     inkscape:pageopacity="0"
     inkscape:pageshadow="2"
     inkscape:window-width="1920"
     inkscape:window-height="1051"
     id="namedview41"
     showgrid="false"
     fit-margin-top="0"
     fit-margin-left="0"
     fit-margin-right="0"
     fit-margin-bottom="0"
     inkscape:zoom="0.13630731"
     inkscape:cx="-466.12665"
     inkscape:cy="1746.1445"
     inkscape:window-x="-9"
     inkscape:window-y="-9"
     inkscape:window-maximized="1"
     inkscape:current-layer="svg39"
     inkscape:document-rotation="0" />
  <path
     d="m 1290.4313,871.1038 c -6.051,-0.417 -12.209,-3.335 -16.829,-7.776 -8.671,-8.322 -12.425,-21.292 -17.943,-31.671 -18.444,-34.685 -41.373,-77.781 -88.994,-106.153 -44.47,-26.487 -89.904,-18.72 -125.245,-63.358 -21.716,-27.43502 -37.787,-60.13202 -65.54,-81.44002 -25.0299,-19.225 -58.652,-28.54 -76.2014,-54.722 -22.579,-33.739 -8.3423,-79.359 10.7276,-115.192 20.5735,-38.619 40.2345,-73.165 39.1027,-118.187 -1.3013,-51.921 -22.5046,-100.245 -52.7308,-141.8096 -8.7325,-12.0314 -18.7583,-24.2563 -20.2653,-39.0581 -4.5574,-44.03977 55.549,-46.58586 85.0581,-44.8613 34.9831,2.07885 75.3311,26.4494 105.8001,42.4523 72.184,37.8643 137.616,88.6717 191.919,149.5167 24.759,27.757 48.241,60.238 49.397,97.412 1.479,46.399 -31.453,85.711 -60.711,121.729 -36.723,45.233 -50.125,85.103 -49.537,142.557 0.652,59.53602 32.081,114.94402 61.536,164.68702 13.675,23.038 30.955,58.785 30.456,85.874 z"
     stroke="url(#paint0_linear)"
     stroke-miterlimit="10"
     id="path2"
     style="stroke:#29220a;stroke-opacity:1" />
  <path
     d="m 1174.5863,691.0978 c -9.844,9.103 -31.083,-4.121 -44.292,-9.197 -14.795,-5.692 -28.896,-13.606 -38.906,-26.233 -6.069,-7.65002 -11.9,-16.17402 -18.046,-25.15902 -14.443,-21.117 -30.79,-45.034 -54.982,-63.657 -11.576,-8.921 -23.909,-15.731 -34.763,-21.765 -13.6603,-7.575 -26.5513,-14.755 -31.9952,-22.861 -8.7137,-13.028 -3.8851,-39.697 12.9587,-71.344 l 2.8487,-5.332 c 20.9588,-39.233 42.5878,-79.788 41.2118,-133.981 -1.427,-56.085 -32.945,-106.417 -57.7358,-154.898 -3.3209,-6.4683 -6.7081,-14.081 -3.7673,-20.7954 2.2979,-5.2612 8.1081,-8.3519 13.8127,-8.9677 5.7259,-0.5789 11.4353,0.8718 16.9804,2.4658 100.853,29.0353 196.786,100.3603 265.888,177.8823 17.556,19.675 37.801,45.491 38.59,70.363 0.947,29.263 -24.417,60.483 -48.942,90.679 l -2.213,2.75 c -23.256,28.63 -41.853,60.742 -51.084,96.64 -5.576,21.678 -6.574,44.126 -5.971,66.443 0.417,15.477 8.287,32.43902 4.927,48.11402 -0.928,4.13 -2.485,6.995 -4.52,8.853 z"
     stroke="url(#paint1_linear)"
     stroke-miterlimit="10"
     id="path4"
     style="stroke:#29220a;stroke-opacity:1" />
  <path
     d="m 1154.2683,650.14878 c -3.25,3.34502 -8.876,1.354 -18.6,-10.946 -5.345,-6.734 -10.784,-14.746 -16.594,-23.233 -23.997,-35.092 -51.141,-70.347 -90.443,-88.865 -9.541,-4.521 -19.45,-9.768 -24.838,-18.892 -8.888,-15.046 4.441,-29.057 11.257,-41.889 21.94,-41.127 46.797,-87.724 45.247,-150.883 -0.888,-35.85 -12.346,-71.837 -31.304,-102.186 -4.259,-6.817 -9.052,-15.248 -5.233,-22.319 3.25,-6.005 11.575,-7.633 18.001,-5.362 23.007,8.07 47.954,27.836 68.605,41.151 35.258,22.712 68.532,48.486 99.395,76.924 19.767,18.208 39.226,38.712 46.126,64.704 10.93,41.07 -13.32,63.767 -38.377,90.377 -25.438,26.976 -43.861,69.68 -53.04,105.154 -3.813,14.802 -5.383,29.992 -5.973,45.259 -0.383,10.567 1.786,34.841 -4.229,41.006 z"
     stroke="url(#paint2_linear)"
     stroke-miterlimit="10"
     id="path6"
     style="stroke:#29220a;stroke-opacity:1" />
  <path
     d="m 1110.4613,552.43378 c -1.403,0.559 -2.896,0.875 -4.544,0.836 -13.532,-0.407 -25.442,-23.029 -34.398,-30.991 -12.731,-11.361 -29.879,-17.376 -41.991,-29.29 -11.991,-11.786 1.316,-21.892 7.333,-34.314 4.619,-9.452 9.042,-18.989 13.189,-28.662 21.891,-50.904 36.201,-108.489 19.365,-163.017 -1.196,-3.796 -2.488,-7.932 -0.997,-11.597 3.446,-8.58 13.801,-0.585 18.278,2.066 11.593,6.891 21.283,16.303 31.951,24.414 17.472,13.27 34.305,27.399 50.435,42.276 18.312,16.876 40.356,34.762 35.091,62.814 -4.056,21.495 -21.885,37.105 -36.099,53.694 -17.923,20.935 -31.254,45.836 -38.769,72.372 -2.653,9.702 -6.993,34.563 -18.844,39.399 z"
     stroke="url(#paint3_linear)"
     stroke-miterlimit="10"
     id="path8"
     style="stroke:#29220a;stroke-opacity:1" />
  <path
     d="m 1070.3673,496.08878 c -0.29,0.61 -0.617,1.241 -0.928,1.814 -0.891,1.793 -2.131,3.836 -4.128,4.047 -2.225,0.243 -3.92,-1.937 -5.085,-3.879 -3.308,-5.589 -6.353,-11.576 -6.574,-18.05 -0.37,-11.021 9.146,-13.235 12.908,-21.948 8.701,-20.27 10.047,-42.968 12.487,-64.619 1.5,-13.425 2.876,-46.535 22.2,-47.879 3.984,-0.267 8.057,1.679 10.353,4.992 5.199,7.508 3.98,16.19 11.921,22.813 3.88,3.24 8.717,5.487 11.688,9.545 2.764,3.783 3.539,8.906 2.092,13.333 -2.12,6.342 -10.589,12.437 -15.16,17.428 -3.128,3.472 -6.278,6.907 -9.253,10.389 -18.366,21.535 -29.895,46.829 -42.521,72.014 z"
     stroke="url(#paint4_linear)"
     stroke-miterlimit="10"
     id="path10"
     style="stroke:#29220a;stroke-opacity:1" />
  <defs
     id="defs37">
    <linearGradient
       id="paint0_linear"
       x1="200.571"
       y1="442.07501"
       x2="243.769"
       y2="282.39301"
       gradientUnits="userSpaceOnUse"
       gradientTransform="translate(875.6353,65.22878)">
      <stop
         stop-color="#FDEAAD"
         stop-opacity="0.3"
         id="stop12" />
      <stop
         offset="1"
         stop-color="#FDEAAD"
         stop-opacity="0.8"
         id="stop14" />
    </linearGradient>
    <linearGradient
       id="paint1_linear"
       x1="200.571"
       y1="442.07501"
       x2="243.769"
       y2="282.39301"
       gradientUnits="userSpaceOnUse"
       gradientTransform="translate(875.6353,65.22878)">
      <stop
         stop-color="#FDEAAD"
         stop-opacity="0.3"
         id="stop17" />
      <stop
         offset="1"
         stop-color="#FDEAAD"
         stop-opacity="0.8"
         id="stop19" />
    </linearGradient>
    <linearGradient
       id="paint2_linear"
       x1="200.571"
       y1="442.07501"
       x2="243.769"
       y2="282.39301"
       gradientUnits="userSpaceOnUse"
       gradientTransform="translate(875.6353,65.22878)">
      <stop
         stop-color="#FDEAAD"
         stop-opacity="0.3"
         id="stop22" />
      <stop
         offset="1"
         stop-color="#FDEAAD"
         stop-opacity="0.8"
         id="stop24" />
    </linearGradient>
    <linearGradient
       id="paint3_linear"
       x1="200.571"
       y1="442.07501"
       x2="243.769"
       y2="282.39301"
       gradientUnits="userSpaceOnUse"
       gradientTransform="translate(875.6353,65.22878)">
      <stop
         stop-color="#FDEAAD"
         stop-opacity="0.3"
         id="stop27" />
      <stop
         offset="1"
         stop-color="#FDEAAD"
         stop-opacity="0.8"
         id="stop29" />
    </linearGradient>
    <linearGradient
       id="paint4_linear"
       x1="200.571"
       y1="442.07501"
       x2="243.769"
       y2="282.39301"
       gradientUnits="userSpaceOnUse"
       gradientTransform="translate(875.6353,65.22878)">
      <stop
         stop-color="#FDEAAD"
         stop-opacity="0.3"
         id="stop32" />
      <stop
         offset="1"
         stop-color="#FDEAAD"
         stop-opacity="0.8"
         id="stop34" />
    </linearGradient>
    <linearGradient
       id="paint0_linear-3"
       x1="525.90503"
       y1="861.04199"
       x2="612.18298"
       y2="1007.74"
       gradientUnits="userSpaceOnUse">
      <stop
         stop-color="#FDEAAD"
         stop-opacity="0.3"
         id="stop14-9" />
      <stop
         offset="1"
         stop-color="#FDEAAD"
         stop-opacity="0.8"
         id="stop16" />
    </linearGradient>
  </defs>
  <path
     d="m 648.80328,2295.3352 c 2.203,-0.68 4.362,-1.45 6.565,-2.13 79.073,-24.84 145.187,-29.01 227.461,-10.56 92.423,20.71 190.76302,50.87 278.91302,15.78 73.99,-29.51 128.47,-101.34 205.79,-119.76 65.65,-15.63 132.92,10.64 198.15,28.04 131.22,34.89 271.69,-29.25 326.04,-159.871 30.78,-73.98 42.53,-227.098 23.75,-309.127 -29.38,-128.424 -158.84,-175.254 -262.23,-225.592 -196.8,-95.833 -226.33,-361.6995 -443.1,-420.8228 -109.87,-30.9967 -232.65802,-10.7501 -327.34902,53.9725 -40.299,27.5578 -76.148,63.4093 -97.614,107.7523 -59.241,122.08 -1.584,284.217 -78.75,395.422 -40.502,58.33 -111.2,88.794 -180.99,95.887 -72.519,7.379 -143.896,-22.708 -209.646,6.725 -42.109,18.827 -90.109,72.279 -127.002,101.538 -39.428,31.207 -218.03762,146.857 -194.08893,213.82 22.43683,62.626 158.45593,80.936 213.93693,105.396 148.38,65.44 280.616,175.65 440.164,123.53 z"
     stroke="url(#paint0_linear)"
     stroke-miterlimit="10"
     id="path2-3"
     style="stroke:#29220a;stroke-opacity:1" />
  <path
     d="m 149.60728,2029.0512 c 8.511,-78.896 156.224,-168.865 222.892,-181.379 65.807,-12.363 133.938,-7.874 199.378,-22.204 98.754,-21.589 187.336,-87.592 237.444,-176.895 79.511,-141.715 -22.032,-325.797 124.487,-425.873 73.03402,-49.9066 167.21402,-65.4067 251.91402,-41.532 l 0.71,0.193 c 84.01,22.913 133.42,95.148 190.57,178.823 69.15,101.175 144.13,189.586 255.46,243.12 49.96,24.054 102.22,45.9 143.22,83.598 79.69,73.413 65.52,201.158 40.12,297.651 -3.37,12.79 -6.44,21.091 -8.36,25.778 -86.54,207.764 -296.49,41.861 -445.58,70.314 -91.47,17.46 -157.09,103.5 -246.64,129.27 -161.21602,46.45 -316.95002,-59.22 -486.80802,-5.86 -2.486,0.8 -5.09,1.57 -7.725,2.46 -92.486,30.19 -208.952,-3.83 -295.901,-37.65 -47.688,-18.54 -101.764,-41.15 -140.912,-75.57 -27.08,-23.862 -36.323,-44.918 -34.269,-64.244 z"
     stroke="url(#paint1_linear)"
     stroke-miterlimit="10"
     id="path4-9"
     style="stroke:#29220a;stroke-opacity:1" />
  <path
     d="m 280.98528,2022.0232 c -2.929,-35.68 35.483,-69.03 108.078,-82.695 25.797,-4.869 53.898,-6.73 83.659,-8.652 38.002,-2.506 77.218,-5.067 118.319,-14.065 123.686,-27.017 234.98,-109.928 297.723,-221.786 13.564,-24.166 24.254,-50.855 31.746,-79.316 14.431,-54.822 15.502,-109.297 16.509,-157.29 0.743,-38.347 1.494,-74.568 8.844,-102.489 6.591,-25.039 17.845,-41.147 38.87,-55.492 51.15902,-34.958 117.14902,-45.855 176.48902,-29.091 l 1.47,0.402 c 49.28,13.442 83.32,60.311 139.15,142.019 53.51,78.306 113.6,153.195 188.91,210.807 76.69,58.63 192.21,71.026 238.1,163.859 26.64,53.86 30.35,167.69 -19.67,212.995 -43.9,39.771 -107.53,16.752 -160.08,4.928 -63.06,-14.174 -134.58,-30.271 -204.08,-17.051 -67.2,12.822 -119.48,48.952 -165.52,80.801 -31.52,21.778 -61.26,42.368 -89.15,50.398 -58.53,16.86 -121.00202,6 -193.38102,-6.6 -87.849,-15.27 -187.42,-32.58 -295.484,1.33 -2.62,0.83 -5.522,1.78 -8.559,2.75 -71.841,23.53 -169.78,9.62 -237.626,-20.92 -48.345,-21.807 -72.216,-48.977 -74.317,-74.842 z"
     stroke="url(#paint2_linear)"
     stroke-miterlimit="10"
     id="path6-1"
     style="stroke:#29220a;stroke-opacity:1" />
  <path
     d="m 968.28128,1741.0342 c 17.485,-31.142 31.14102,-65.259 40.66102,-101.406 9.46,-35.968 16.75,-75.425 18.22,-112.674 1.3,-32.532 -7.19,-66.06 -2.08,-98.905 4.73,-30.242 22.32,-60.326 50.57,-70.899 24.1,-9 51.94,-2.18 73.22,12.506 33.49,23.036 55.12,64.009 77.78,97.22 71.48,104.576 135.98,176.163 209.09,232.078 35.91,27.495 75.76,45.828 110.92,62.046 45.92,21.151 85.59,39.436 100.29,69.058 13.09,26.353 23.48,75.459 -7.46,93.149 -32.36,18.525 -76.72,-6.444 -108.28,-15.183 -43.5,-12.123 -88.72,-17.248 -133.76,-15.63 -63,2.187 -125.67,17.529 -182.53,45.333 -50.26,24.584 -96.12,77.591 -149.57,92.938 -38.63,11.15 -91.67102,1.897 -153.05202,-8.796 -93.014,-16.295 -19.487,-146.32 55.981,-280.835 z"
     stroke="url(#paint3_linear)"
     stroke-miterlimit="10"
     id="path8-9"
     style="stroke:#29220a;stroke-opacity:1" />
  <path
     d="m 941.47328,1950.4102 c -0.494,-1.486 -0.853,-3 -1.079,-4.542 -1.965,-12.699 4.134,-25.066 10.081,-36.379 23.445,-44.898 44.97702,-91.155 69.54702,-135.294 l 1.22,-2.242 c 48.27,-86.394 71.4,-186.529 60.86,-285.683 -1.28,-12.19 -3.06,-24.645 -0.24,-36.554 2.82,-11.91 11.52,-23.372 23.47,-25.069 16.01,-2.262 28.82,12.687 38.19,26.055 41.78,59.47 80.91,122.529 125.98,179.356 31.97,40.32 84.89,93.239 129.59,118.56 34.08,26.092 75.1,30.588 113.81,45.584 22.24,8.641 43.49,22.226 60.05,39.741 4.1,4.337 21.32,21.005 19.69,27.702 -4.97,19.819 -68.25,-1.174 -80.06,-5.038 -38.19,-12.606 -76.27,-27.818 -117.16,-26.356 -71.68,2.523 -143.22,20.337 -206.82,51.45 -26.48,12.985 -49.73,30.519 -72.23,47.552 -40.63,30.749 -88.21,55.228 -140.84002,47.308 -14.736,-2.346 -29.498,-12.036 -34.059,-26.151 z"
     stroke="url(#paint4_linear)"
     stroke-miterlimit="10"
     id="path10-3"
     style="stroke:#29220a;stroke-opacity:1" />
  <path
     d="m 483.36328,2062.3562 c 19.591,-2.894 37.943,-11.403 57.21,-16.188 38.565,-9.689 79.084,-4.236 118.69,-7.077 25.495,-1.799 37.103,-15.173 56.542,-28.534 3.235,-2.207 6.662,-4.425 8.747,-7.783 2.084,-3.357 2.373,-8.298 -0.529,-10.956 -2.74,-2.549 -6.952,-2.153 -10.632,-1.613 -15.258,2.275 -30.184,4.253 -45.636,4.865 -83.302,3.215 -168.98,-18.867 -248.956,5.077 -13.093,3.894 -28.569,13.96 -25.092,27.394 1.349,5.195 5.413,9.199 9.517,12.571 22.217,18.094 51.999,26.411 80.139,22.244 z"
     stroke="url(#paint5_linear)"
     stroke-miterlimit="10"
     id="path12"
     style="stroke:#29220a;stroke-opacity:1" />
</svg>
