<svg width="248" height="155" viewBox="0 0 248 155" fill="none" xmlns="http://www.w3.org/2000/svg">
<path d="M230.211 16.2871C224.177 6.75479 213.119 0.623583 201.853 0.551378C188.233 0.456189 175.855 8.45147 162.38 10.4557C144.899 13.0469 127.675 5.40691 110.145 3.32532C89.251 0.842515 68.3036 6.28722 47.9697 11.6897C34.4625 15.2761 20.2197 19.2769 10.5823 29.3991C-2.57397 43.2195 -2.7956 67.3288 10.0831 81.3846C31.9361 105.235 74.7765 94.2906 99.1848 115.523C111.83 126.522 117.871 145.023 133.127 151.98C151.198 160.207 171.63 147.969 187.152 135.59C198.966 126.173 210.446 116.347 221.932 106.531C231.224 98.5728 240.886 90.1171 245.208 78.6624C250.543 64.5231 243.08 58.8878 237.73 47.7252C233.029 37.8715 236.653 26.4594 230.211 16.2871Z" fill="#FEC803"/>
</svg>
