<?xml version="1.0" encoding="UTF-8" standalone="no"?>
<svg
   xmlns:dc="http://purl.org/dc/elements/1.1/"
   xmlns:cc="http://creativecommons.org/ns#"
   xmlns:rdf="http://www.w3.org/1999/02/22-rdf-syntax-ns#"
   xmlns:svg="http://www.w3.org/2000/svg"
   xmlns="http://www.w3.org/2000/svg"
   xmlns:sodipodi="http://sodipodi.sourceforge.net/DTD/sodipodi-0.dtd"
   xmlns:inkscape="http://www.inkscape.org/namespaces/inkscape"
   width="60"
   height="27"
   viewBox="0 0 60 27"
   fill="none"
   version="1.1"
   id="svg4"
   sodipodi:docname="Rectangle 146.svg"
   inkscape:version="1.0.2-2 (e86c870879, 2021-01-15)">
  <metadata
     id="metadata10">
    <rdf:RDF>
      <cc:Work
         rdf:about="">
        <dc:format>image/svg+xml</dc:format>
        <dc:type
           rdf:resource="http://purl.org/dc/dcmitype/StillImage" />
      </cc:Work>
    </rdf:RDF>
  </metadata>
  <defs
     id="defs8">
    <linearGradient
       id="paint0_linear"
       x1="4.5"
       y1="8.9780302"
       x2="4.5"
       y2="0.0131836"
       gradientUnits="userSpaceOnUse"
       gradientTransform="translate(41.477098,9.1578736)">
      <stop
         stop-color="#FD5900"
         id="stop4" />
      <stop
         offset="1"
         stop-color="#FFDE00"
         id="stop6" />
    </linearGradient>
  </defs>
  <sodipodi:namedview
     pagecolor="#ffffff"
     bordercolor="#666666"
     borderopacity="1"
     objecttolerance="10"
     gridtolerance="10"
     guidetolerance="10"
     inkscape:pageopacity="0"
     inkscape:pageshadow="2"
     inkscape:window-width="1200"
     inkscape:window-height="1303"
     id="namedview6"
     showgrid="false"
     inkscape:zoom="10.125"
     inkscape:cx="34.205458"
     inkscape:cy="16.022561"
     inkscape:window-x="3582"
     inkscape:window-y="0"
     inkscape:window-maximized="0"
     inkscape:current-layer="svg4"
     inkscape:document-rotation="0" />
  <rect
     width="60"
     height="27"
     rx="13.5"
     fill="#FFF7CB"
     id="rect2" />
  <path
     d="m 45.925926,5.1296296 c -0.27529,0 -0.49805,0.22276 -0.49805,0.498047 v 2.021003 c 0,0.27529 0.22276,0.49805 0.49805,0.49805 0.27529,0 0.49805,-0.22276 0.49805,-0.49805 v -2.021003 c 0,-0.275287 -0.22276,-0.498047 -0.49805,-0.498047 z m 0,13.9741004 c -0.27529,0 -0.49805,0.2228 -0.49805,0.4981 v 2.0298 c 0,0.2752 0.22276,0.498 0.49805,0.498 0.27529,0 0.49805,-0.2228 0.49805,-0.498 v -2.0298 c 0,-0.2753 -0.22276,-0.4981 -0.49805,-0.4981 z m -5.47852,-5.47848 c 0,-0.27529 -0.22276,-0.49805 -0.49804,-0.49805 h -2.025393 c -0.275287,0 -0.498047,0.22276 -0.498047,0.49805 0,0.27528 0.22276,0.49804 0.498047,0.49804 h 2.025393 c 0.27528,0 0.49804,-0.22276 0.49804,-0.49804 z m 13.48052,-0.49805 h -2.0254 c -0.2753,0 -0.4981,0.22276 -0.4981,0.49805 0,0.27528 0.2228,0.49804 0.4981,0.49804 h 2.0254 c 0.2752,0 0.498,-0.22276 0.498,-0.49804 0,-0.27529 -0.2228,-0.49805 -0.498,-0.49805 z M 40.643406,7.6384896 c -0.19453,-0.19454 -0.50973,-0.19454 -0.70427,0 -0.19454,0.19454 -0.19454,0.50974 0,0.70427 l 1.40854,1.4085499 c 0.19457,0.19453 0.50974,0.19453 0.70428,0 0.19453,-0.19454 0.19453,-0.50974 0,-0.7042799 z m 9.86072,9.8607404 c -0.1945,-0.1945 -0.5097,-0.1945 -0.7042,0 -0.1946,0.1945 -0.1946,0.5097 0,0.7043 l 1.4085,1.4085 c 0.1946,0.1945 0.5098,0.1945 0.7043,0 0.1945,-0.1945 0.1945,-0.5097 0,-0.7043 z m -9.15645,0 -1.40854,1.4085 c -0.19454,0.1946 -0.19454,0.5098 0,0.7043 0.19457,0.1945 0.50974,0.1945 0.70427,0 l 1.40855,-1.4085 c 0.19453,-0.1946 0.19453,-0.5098 0,-0.7043 -0.19454,-0.1945 -0.50971,-0.1945 -0.70428,0 z m 9.15645,-7.7479605 1.4086,-1.4085399 c 0.1945,-0.19454 0.1945,-0.50973 0,-0.70427 -0.1945,-0.19454 -0.5097,-0.19454 -0.7043,0 l -1.4085,1.40854 c -0.1946,0.1945399 -0.1946,0.5097399 0,0.7042699 0.1945,0.19457 0.5097,0.19457 0.7042,0 z"
     fill="#ffa101"
     id="path2" />
  <path
     d="m 45.977098,18.135904 c 2.47557,0 4.48242,-2.00685 4.48242,-4.48243 0,-2.47557 -2.00685,-4.4824168 -4.48242,-4.4824168 -2.47557,0 -4.482422,2.0068468 -4.482422,4.4824168 0,2.47558 2.006852,4.48243 4.482422,4.48243 z"
     fill="url(#paint0_linear)"
     id="path2-7"
     style="fill:url(#paint0_linear);stroke-width:0.999999" />
  <circle
     cx="13.135803"
     cy="13.530864"
     r="11.5"
     fill="#fe8c01"
     id="circle2" />
</svg>
