<svg width="20" height="20" viewBox="0 0 20 20" fill="none" xmlns="http://www.w3.org/2000/svg">
<path d="M19.9352 9.95045C19.9333 9.47384 19.7722 9.01153 19.4776 8.63684C19.1831 8.26216 18.7718 7.99656 18.3091 7.88218L17.3249 5.43591C17.6338 5.28839 17.9028 5.06892 18.1093 4.79593C18.3157 4.52293 18.4537 4.20438 18.5116 3.86702C18.5695 3.52965 18.5456 3.18333 18.4419 2.85711C18.3382 2.5309 18.1578 2.23433 17.9157 1.99229C17.6737 1.75025 17.3771 1.56981 17.0509 1.46613C16.7247 1.36245 16.3784 1.33855 16.041 1.39643C15.7037 1.45431 15.3851 1.59229 15.1121 1.79878C14.8391 2.00527 14.6196 2.27425 14.4721 2.58312L12.0187 1.59178C11.8979 1.13546 11.6295 0.731921 11.2554 0.444016C10.8813 0.15611 10.4225 0 9.95045 0C9.4784 0 9.0196 0.15611 8.64551 0.444016C8.27142 0.731921 8.00304 1.13546 7.88218 1.59178L5.43591 2.57599C5.28839 2.26711 5.06892 1.99814 4.79593 1.79165C4.52293 1.58516 4.20438 1.44718 3.86702 1.3893C3.52965 1.33141 3.18333 1.35532 2.85711 1.459C2.5309 1.56268 2.23433 1.74312 1.99229 1.98516C1.75025 2.22719 1.56981 2.52377 1.46613 2.84998C1.36245 3.17619 1.33855 3.52252 1.39643 3.85989C1.45431 4.19725 1.59229 4.5158 1.79878 4.7888C2.00527 5.06179 2.27425 5.28126 2.58312 5.42878L1.59178 7.88218C1.13546 8.00304 0.731921 8.27142 0.444016 8.64551C0.15611 9.0196 0 9.4784 0 9.95045C0 10.4225 0.15611 10.8813 0.444016 11.2554C0.731921 11.6295 1.13546 11.8979 1.59178 12.0187L2.57599 14.465C2.26711 14.6125 1.99814 14.832 1.79165 15.105C1.58516 15.378 1.44718 15.6965 1.3893 16.0339C1.33141 16.3712 1.35532 16.7176 1.459 17.0438C1.56268 17.37 1.74312 17.6666 1.98516 17.9086C2.22719 18.1507 2.52377 18.3311 2.84998 18.4348C3.17619 18.5385 3.52252 18.5624 3.85989 18.5045C4.19725 18.4466 4.5158 18.3086 4.7888 18.1021C5.06179 17.8956 5.28126 17.6267 5.42878 17.3178L7.87505 18.302C7.99591 18.7583 8.26429 19.1618 8.63838 19.4498C9.01247 19.7377 9.47127 19.8938 9.94332 19.8938C10.4154 19.8938 10.8742 19.7377 11.2483 19.4498C11.6224 19.1618 11.8907 18.7583 12.0116 18.302L14.4579 17.3178C14.6054 17.6267 14.8248 17.8956 15.0978 18.1021C15.3708 18.3086 15.6894 18.4466 16.0268 18.5045C16.3641 18.5624 16.7104 18.5385 17.0367 18.4348C17.3629 18.3311 17.6594 18.1507 17.9015 17.9086C18.1435 17.6666 18.324 17.37 18.4276 17.0438C18.5313 16.7176 18.5552 16.3712 18.4973 16.0339C18.4395 15.6965 18.3015 15.378 18.095 15.105C17.8885 14.832 17.6195 14.6125 17.3106 14.465L18.2949 12.0187C18.7602 11.9071 19.1747 11.6426 19.472 11.2677C19.7694 10.8928 19.9325 10.429 19.9352 9.95045ZM8.04621 16.8399L5.59995 15.8557C5.56842 15.7151 5.52055 15.5787 5.45731 15.4492L7.98916 12.9245C8.36817 13.176 8.79182 13.3528 9.23725 13.4451V15.7844C8.71929 15.97 8.29274 16.348 8.04621 16.8399ZM2.10528 9.23725C2.24633 9.23725 2.38422 9.27908 2.50151 9.35745C2.61879 9.43582 2.71021 9.5472 2.76419 9.67752C2.81817 9.80784 2.83229 9.95124 2.80477 10.0896C2.77725 10.2279 2.70933 10.355 2.60958 10.4548C2.50984 10.5545 2.38276 10.6224 2.24442 10.6499C2.10607 10.6775 1.96267 10.6633 1.83235 10.6094C1.70203 10.5554 1.59064 10.464 1.51228 10.3467C1.43391 10.2294 1.39208 10.0915 1.39208 9.95045C1.39208 9.7613 1.46722 9.5799 1.60097 9.44614C1.73472 9.31239 1.91613 9.23725 2.10528 9.23725ZM11.8547 3.06096L14.301 4.04518C14.3325 4.18578 14.3804 4.32222 14.4436 4.4517L11.9117 6.97642C11.5327 6.72485 11.1091 6.54813 10.6636 6.45578V4.1165C11.1816 3.93088 11.6082 3.55286 11.8547 3.06096ZM18.5088 9.95045C18.5088 10.0915 18.467 10.2294 18.3886 10.3467C18.3103 10.464 18.1989 10.5554 18.0686 10.6094C17.9382 10.6633 17.7948 10.6775 17.6565 10.6499C17.5181 10.6224 17.3911 10.5545 17.2913 10.4548C17.1916 10.355 17.1236 10.2279 17.0961 10.0896C17.0686 9.95124 17.0827 9.80784 17.1367 9.67752C17.1907 9.5472 17.2821 9.43582 17.3994 9.35745C17.5167 9.27908 17.6546 9.23725 17.7956 9.23725C17.9848 9.23725 18.1662 9.31239 18.2999 9.44614C18.4337 9.5799 18.5088 9.7613 18.5088 9.95045ZM15.7844 9.23725H13.4451C13.3528 8.79182 13.176 8.36817 12.9245 7.98916L15.4492 5.45731C15.5787 5.52055 15.7151 5.56842 15.8557 5.59995L16.8399 8.04621C16.348 8.29274 15.97 8.71929 15.7844 9.23725ZM9.95045 12.09C9.52728 12.09 9.11361 11.9646 8.76176 11.7295C8.4099 11.4944 8.13567 11.1602 7.97372 10.7692C7.81178 10.3783 7.76941 9.94808 7.85197 9.53304C7.93453 9.118 8.1383 8.73676 8.43753 8.43753C8.73676 8.1383 9.118 7.93453 9.53304 7.85197C9.94808 7.76941 10.3783 7.81178 10.7692 7.97372C11.1602 8.13567 11.4944 8.4099 11.7295 8.76176C11.9646 9.11361 12.09 9.52728 12.09 9.95045C12.09 10.5179 11.8646 11.0621 11.4634 11.4634C11.0621 11.8646 10.5179 12.09 9.95045 12.09ZM9.23725 4.1165V6.45578C8.79182 6.54813 8.36817 6.72485 7.98916 6.97642L5.45731 4.4517C5.52055 4.32222 5.56842 4.18578 5.59995 4.04518L8.04621 3.06096C8.29274 3.55286 8.71929 3.93088 9.23725 4.1165ZM4.4517 5.45731L6.97642 7.98916C6.72485 8.36817 6.54813 8.79182 6.45578 9.23725H4.1165C3.93088 8.71929 3.55286 8.29274 3.06096 8.04621L4.04518 5.59995C4.18578 5.56842 4.32222 5.52055 4.4517 5.45731ZM4.1165 10.6636H6.45578C6.54813 11.1091 6.72485 11.5327 6.97642 11.9117L4.4517 14.4436C4.32222 14.3804 4.18578 14.3325 4.04518 14.301L3.06096 11.8547C3.55286 11.6082 3.93088 11.1816 4.1165 10.6636ZM10.6636 15.7844V13.4451C11.1091 13.3528 11.5327 13.176 11.9117 12.9245L14.4436 15.4492C14.3804 15.5787 14.3325 15.7151 14.301 15.8557L11.8547 16.8399C11.6082 16.348 11.1816 15.97 10.6636 15.7844ZM15.4492 14.4436L12.9245 11.9117C13.176 11.5327 13.3528 11.1091 13.4451 10.6636H15.7844C15.97 11.1816 16.348 11.6082 16.8399 11.8547L15.8557 14.301C15.7151 14.3325 15.5787 14.3804 15.4492 14.4436ZM16.3692 2.81848C16.5103 2.81848 16.6482 2.8603 16.7655 2.93867C16.8827 3.01704 16.9742 3.12842 17.0281 3.25874C17.0821 3.38906 17.0962 3.53246 17.0687 3.67081C17.0412 3.80916 16.9733 3.93624 16.8735 4.03598C16.7738 4.13572 16.6467 4.20365 16.5084 4.23117C16.37 4.25869 16.2266 4.24456 16.0963 4.19058C15.966 4.1366 15.8546 4.04519 15.7762 3.9279C15.6979 3.81062 15.656 3.67273 15.656 3.53167C15.656 3.34252 15.7312 3.16112 15.8649 3.02737C15.9987 2.89362 16.1801 2.81848 16.3692 2.81848ZM9.95045 1.39208C10.0915 1.39208 10.2294 1.43391 10.3467 1.51228C10.464 1.59064 10.5554 1.70203 10.6094 1.83235C10.6633 1.96267 10.6775 2.10607 10.6499 2.24442C10.6224 2.38276 10.5545 2.50984 10.4548 2.60958C10.355 2.70933 10.2279 2.77725 10.0896 2.80477C9.95124 2.83229 9.80784 2.81817 9.67752 2.76419C9.5472 2.71021 9.43582 2.61879 9.35745 2.50151C9.27908 2.38422 9.23725 2.24633 9.23725 2.10528C9.23725 1.91613 9.31239 1.73472 9.44614 1.60097C9.5799 1.46722 9.7613 1.39208 9.95045 1.39208ZM3.53167 2.81848C3.67273 2.81848 3.81062 2.8603 3.9279 2.93867C4.04519 3.01704 4.1366 3.12842 4.19058 3.25874C4.24456 3.38906 4.25869 3.53246 4.23117 3.67081C4.20365 3.80916 4.13572 3.93624 4.03598 4.03598C3.93624 4.13572 3.80916 4.20365 3.67081 4.23117C3.53246 4.25869 3.38906 4.24456 3.25874 4.19058C3.12842 4.1366 3.01704 4.04519 2.93867 3.9279C2.8603 3.81062 2.81848 3.67273 2.81848 3.53167C2.81848 3.34252 2.89362 3.16112 3.02737 3.02737C3.16112 2.89362 3.34252 2.81848 3.53167 2.81848ZM3.53167 17.0824C3.34252 17.0824 3.16112 17.0073 3.02737 16.8735C2.89362 16.7398 2.81848 16.5584 2.81848 16.3692C2.81848 16.1801 2.89362 15.9987 3.02737 15.8649C3.16112 15.7312 3.34252 15.656 3.53167 15.656C3.72082 15.656 3.90223 15.7312 4.03598 15.8649C4.16973 15.9987 4.24487 16.1801 4.24487 16.3692C4.24487 16.5584 4.16973 16.7398 4.03598 16.8735C3.90223 17.0073 3.72082 17.0824 3.53167 17.0824ZM9.95045 18.5088C9.80939 18.5088 9.6715 18.467 9.55422 18.3886C9.43693 18.3103 9.34552 18.1989 9.29154 18.0686C9.23756 17.9382 9.22344 17.7948 9.25096 17.6565C9.27848 17.5181 9.3464 17.3911 9.44614 17.2913C9.54589 17.1916 9.67297 17.1236 9.81131 17.0961C9.94966 17.0686 10.0931 17.0827 10.2234 17.1367C10.3537 17.1907 10.4651 17.2821 10.5435 17.3994C10.6218 17.5167 10.6636 17.6546 10.6636 17.7956C10.6636 17.9848 10.5885 18.1662 10.4548 18.2999C10.321 18.4337 10.1396 18.5088 9.95045 18.5088ZM16.3692 17.0824C16.1801 17.0824 15.9987 17.0073 15.8649 16.8735C15.7312 16.7398 15.656 16.5584 15.656 16.3692C15.656 16.1801 15.7312 15.9987 15.8649 15.8649C15.9987 15.7312 16.1801 15.656 16.3692 15.656C16.5584 15.656 16.7398 15.7312 16.8735 15.8649C17.0073 15.9987 17.0824 16.1801 17.0824 16.3692C17.0824 16.5584 17.0073 16.7398 16.8735 16.8735C16.7398 17.0073 16.5584 17.0824 16.3692 17.0824Z" fill="#F7C408"/>
</svg>
