<svg width="290" height="290" viewBox="0 0 290 290" fill="none" xmlns="http://www.w3.org/2000/svg">
<g clip-path="url(#clip0)">
<path d="M9.92741 117.444C8.80431 118.567 8.80431 120.412 9.92741 121.535L11.973 119.49L9.92741 117.444Z" fill="#434343"/>
<path d="M30.444 60.0055C31.5872 61.1487 33.4122 61.1286 34.5353 60.0055L30.5443 56.0145C30.2836 56.3555 30.0228 56.6764 29.7621 57.0173C29.4212 58.0201 29.6418 59.2033 30.444 60.0055Z" fill="#434343"/>
<path d="M34.5352 80.5222C35.6583 79.3991 35.6784 77.554 34.5352 76.4309C33.4121 75.3078 31.567 75.2878 30.4239 76.4309C29.2807 77.5741 29.2807 79.3991 30.4239 80.5423C31.567 81.6453 33.4121 81.6453 34.5352 80.5222Z" fill="#434343"/>
<path d="M14.0388 101.019C15.1619 99.8956 15.1819 98.0505 14.0388 96.9274C12.9157 95.8043 11.0706 95.7842 9.92743 96.9274C8.78428 98.0705 8.78428 99.8956 9.92743 101.039C11.0706 102.162 12.8956 102.162 14.0388 101.019Z" fill="#434343"/>
<path d="M50.9606 76.4108C50.1183 77.2531 49.8977 78.4965 50.3188 79.5594C50.4592 79.9004 50.6798 80.2413 50.9606 80.5221L53.0063 78.4765L50.9606 76.4108Z" fill="#434343"/>
<path d="M33.5927 96.2855C32.5498 95.8644 31.3064 96.085 30.444 96.9273C29.3209 98.0504 29.3209 99.8955 30.444 101.019L34.5553 96.9072C34.2545 96.6465 33.9336 96.4259 33.5927 96.2855Z" fill="#434343"/>
<path d="M14.0387 117.444C13.7579 117.163 13.4371 116.943 13.0761 116.802C12.3741 116.521 11.592 116.521 10.89 116.802C10.5491 116.943 10.2081 117.163 9.92737 117.444L11.973 119.49L14.0387 117.444Z" fill="#434343"/>
<path d="M75.5684 18.9724L74.7461 18.1501C73.9239 18.6114 73.1217 19.0727 72.3195 19.534C72.7005 19.7145 73.1016 19.8147 73.5228 19.8147C74.2648 19.8348 75.0069 19.554 75.5684 18.9724Z" fill="#434343"/>
<path d="M55.0518 39.4889C56.1749 38.3658 56.195 36.5208 55.0518 35.3776C53.9287 34.2545 52.0836 34.2545 50.9405 35.3776C49.8174 36.5007 49.8174 38.3458 50.9405 39.4889C52.0836 40.6321 53.9287 40.6321 55.0518 39.4889Z" fill="#434343"/>
<path d="M75.5684 39.4889C76.6915 38.3658 76.7116 36.5207 75.5684 35.3976C74.4453 34.2745 72.6002 34.2544 71.4571 35.3976C70.3139 36.5407 70.3139 38.3658 71.4571 39.5089C72.6002 40.632 74.4253 40.632 75.5684 39.4889Z" fill="#434343"/>
<path d="M55.0518 60.0056C56.1749 58.8825 56.195 57.0374 55.0518 55.9143C53.9287 54.7912 52.0836 54.7712 50.9405 55.9143C49.7973 57.0575 49.7973 58.8825 50.9405 60.0257C52.0836 61.1488 53.9287 61.1287 55.0518 60.0056Z" fill="#434343"/>
<path d="M91.9737 35.3977C91.1314 36.24 90.9107 37.4835 91.3319 38.5464C91.4723 38.8873 91.6929 39.2283 91.9737 39.509L94.0193 37.4634L91.9737 35.3977Z" fill="#434343"/>
<path d="M74.6058 55.2725C73.5629 54.8513 72.3195 55.0719 71.4571 55.9142C70.334 57.0373 70.334 58.8824 71.4571 60.0055L75.5684 55.8942C75.2876 55.6134 74.9668 55.4128 74.6058 55.2725Z" fill="#434343"/>
<path d="M35.177 59.0429C35.5981 58 35.3976 56.7566 34.5352 55.8942C33.6929 55.0519 32.4494 54.8313 31.3865 55.2524C31.186 55.3327 31.0255 55.473 30.8651 55.5934C30.7648 55.7338 30.6445 55.8541 30.5442 55.9945L34.5352 59.9855C34.816 59.7248 35.0366 59.4039 35.177 59.0429Z" fill="#434343"/>
<path d="M55.0519 76.4108C53.9288 75.2877 52.0837 75.2877 50.9606 76.4108L53.0062 78.4564L55.0519 76.4108Z" fill="#434343"/>
<path d="M96.085 18.9723C97.2081 17.8492 97.2282 16.0041 96.085 14.881C94.9619 13.7579 93.1168 13.7378 91.9737 14.881C90.8305 16.0241 90.8305 17.8492 91.9737 18.9923C93.1168 20.1154 94.9419 20.1154 96.085 18.9723Z" fill="#434343"/>
<path d="M115.639 14.2394C114.596 13.8182 113.353 14.0388 112.49 14.8811C111.367 16.0042 111.367 17.8493 112.49 18.9724L116.602 14.8611C116.301 14.6004 115.98 14.3798 115.639 14.2394Z" fill="#434343"/>
<path d="M75.5685 18.9723C76.0498 18.491 76.2905 17.8893 76.3506 17.2476C75.8092 17.5484 75.2877 17.8492 74.7462 18.15L75.5685 18.9723Z" fill="#434343"/>
<path d="M96.0851 35.3976C95.5235 34.8361 94.7815 34.5553 94.0394 34.5553C93.6584 34.5553 93.2974 34.6355 92.9564 34.7759C92.6155 34.9163 92.2745 35.1369 91.9938 35.4177L94.0394 37.4633L96.0851 35.3976Z" fill="#434343"/>
<path d="M11.0706 200.634C11.2511 201.055 11.4115 201.476 11.592 201.917L11.973 201.536L11.0706 200.634Z" fill="#434343"/>
<path d="M9.92737 121.535C10.2081 121.816 10.529 122.037 10.89 122.177C11.9329 122.598 13.1763 122.398 14.0387 121.535L11.9931 119.49L9.92737 121.535Z" fill="#434343"/>
<path d="M30.444 142.052C31.5871 143.195 33.4122 143.175 34.5353 142.052L30.4239 137.941C29.3008 139.084 29.3008 140.909 30.444 142.052Z" fill="#434343"/>
<path d="M9.92741 158.457C8.80431 159.58 8.80431 161.425 9.92741 162.568C11.0706 163.712 12.8956 163.692 14.0187 162.568C15.1418 161.445 15.1618 159.6 14.0187 158.457C12.8956 157.334 11.0505 157.334 9.92741 158.457Z" fill="#434343"/>
<path d="M34.5352 162.568C35.6583 161.445 35.6784 159.6 34.5352 158.477C33.4121 157.354 31.567 157.334 30.4239 158.477C29.2807 159.62 29.2807 161.445 30.4239 162.589C31.567 163.692 33.4121 163.692 34.5352 162.568Z" fill="#434343"/>
<path d="M14.0388 142.052C15.1619 140.929 15.1619 139.084 14.0388 137.94C12.9157 136.817 11.0706 136.797 9.92743 137.94C8.78428 139.084 8.78428 140.909 9.92743 142.052C11.0706 143.175 12.8956 143.175 14.0388 142.052Z" fill="#434343"/>
<path d="M14.0388 183.065C15.1619 181.942 15.1819 180.097 14.0388 178.974C12.9157 177.851 11.0706 177.831 9.92743 178.974C8.78428 180.117 8.78428 181.942 9.92743 183.085C11.0706 184.208 12.8956 184.208 14.0388 183.065Z" fill="#434343"/>
<path d="M50.9606 158.457C49.8375 159.58 49.8375 161.425 50.9606 162.548L53.0063 160.503L50.9606 158.457Z" fill="#434343"/>
<path d="M33.5927 178.332C32.5498 177.911 31.3064 178.131 30.444 178.974C29.3209 180.097 29.3209 181.942 30.444 183.065L34.5553 178.954C34.2545 178.693 33.9336 178.472 33.5927 178.332Z" fill="#434343"/>
<path d="M14.0187 199.49C13.056 198.528 11.592 198.427 10.4689 199.129C10.6694 199.631 10.8499 200.152 11.0705 200.654L11.973 201.556L14.0187 199.49Z" fill="#434343"/>
<path d="M55.0519 80.5221L53.0062 78.4764L50.9606 80.5221C51.5221 81.0836 52.2642 81.3644 53.0062 81.3644C53.7483 81.3644 54.4903 81.0836 55.0519 80.5221Z" fill="#434343"/>
<path d="M71.4572 101.019C72.6003 102.162 74.4253 102.142 75.5484 101.019L71.4371 96.9072C70.3341 98.0504 70.3341 99.8955 71.4572 101.019Z" fill="#434343"/>
<path d="M34.5353 101.019C35.3776 100.176 35.5982 98.9328 35.1771 97.8699C35.0367 97.5289 34.8161 97.188 34.5353 96.9072L30.424 101.019C31.5671 102.162 33.4122 102.162 34.5353 101.019Z" fill="#434343"/>
<path d="M50.9606 117.444C49.8375 118.567 49.8375 120.412 50.9606 121.555C52.1038 122.698 53.9288 122.678 55.0519 121.555C56.175 120.432 56.1951 118.587 55.0519 117.444C53.9288 116.301 52.0837 116.301 50.9606 117.444Z" fill="#434343"/>
<path d="M75.5684 121.535C76.6915 120.412 76.7116 118.567 75.5684 117.444C74.4453 116.321 72.6002 116.301 71.4571 117.444C70.3139 118.587 70.3139 120.412 71.4571 121.555C72.6002 122.678 74.4253 122.678 75.5684 121.535Z" fill="#434343"/>
<path d="M55.0518 101.019C56.1749 99.8956 56.1749 98.0505 55.0518 96.9074C53.9287 95.7843 52.0836 95.7642 50.9405 96.9074C49.7973 98.0505 49.7973 99.8755 50.9405 101.019C52.0836 102.162 53.9287 102.162 55.0518 101.019Z" fill="#434343"/>
<path d="M55.0518 142.052C56.1749 140.929 56.195 139.084 55.0518 137.961C53.9287 136.837 52.0836 136.817 50.9405 137.961C49.7973 139.104 49.7973 140.929 50.9405 142.072C52.0836 143.175 53.9287 143.175 55.0518 142.052Z" fill="#434343"/>
<path d="M30.444 117.444C29.3009 118.587 29.3009 120.412 30.444 121.555C31.5872 122.698 33.4122 122.698 34.5554 121.555C35.6785 120.432 35.6785 118.587 34.5554 117.444C33.4122 116.301 31.5671 116.301 30.444 117.444Z" fill="#434343"/>
<path d="M91.9737 117.444C90.8506 118.567 90.8506 120.412 91.9737 121.535L94.0193 119.49L91.9737 117.444Z" fill="#434343"/>
<path d="M74.6058 137.299C73.5629 136.878 72.3195 137.098 71.4571 137.941C70.334 139.064 70.334 140.909 71.4571 142.032L75.5684 137.921C75.2876 137.66 74.9467 137.459 74.6058 137.299Z" fill="#434343"/>
<path d="M14.0387 117.444L11.993 119.49L14.0387 121.535C14.6002 120.974 14.881 120.232 14.881 119.49C14.881 118.748 14.6002 118.006 14.0387 117.444Z" fill="#434343"/>
<path d="M34.5353 137.941C33.693 137.098 32.4495 136.878 31.3866 137.299C31.0457 137.439 30.7047 137.66 30.424 137.941L34.5353 142.052C34.8161 141.771 35.0367 141.45 35.1771 141.089C35.5982 140.046 35.3977 138.803 34.5353 137.941Z" fill="#434343"/>
<path d="M55.0519 158.457C54.4903 157.896 53.7483 157.615 53.0062 157.615C52.2642 157.615 51.5221 157.896 50.9606 158.457L53.0062 160.503L55.0519 158.457Z" fill="#434343"/>
<path d="M96.0851 39.489L94.0394 37.4434L91.9938 39.489C92.2745 39.7698 92.5954 39.9904 92.9564 40.1308C93.9792 40.5519 95.2227 40.3313 96.0851 39.489Z" fill="#434343"/>
<path d="M112.49 60.0055C113.633 61.1487 115.458 61.1286 116.582 60.0055L112.47 55.8942C112.189 56.1749 111.969 56.4958 111.828 56.8568C111.427 57.8997 111.648 59.1632 112.49 60.0055Z" fill="#434343"/>
<path d="M75.5685 60.0055C76.6916 58.8824 76.7117 57.0373 75.5685 55.8942L71.4572 60.0055C72.0187 60.5671 72.7608 60.8478 73.5028 60.8478C74.2649 60.8478 75.0069 60.5671 75.5685 60.0055Z" fill="#434343"/>
<path d="M91.9737 76.4108C90.8506 77.5339 90.8506 79.379 91.9737 80.5221C93.1168 81.6653 94.9419 81.6452 96.065 80.5221C97.1881 79.399 97.2081 77.554 96.065 76.4108C94.9419 75.2877 93.0968 75.2877 91.9737 76.4108Z" fill="#434343"/>
<path d="M116.582 80.5222C117.705 79.3991 117.725 77.554 116.582 76.4309C115.459 75.3078 113.613 75.2878 112.47 76.4309C111.327 77.5741 111.327 79.3991 112.47 80.5423C113.613 81.6453 115.459 81.6453 116.582 80.5222Z" fill="#434343"/>
<path d="M96.085 60.0055C97.2081 58.8824 97.2081 57.0373 96.085 55.8942C94.9619 54.7711 93.1168 54.751 91.9737 55.8942C90.8305 57.0373 90.8305 58.8624 91.9737 60.0055C93.1168 61.1286 94.9419 61.1286 96.085 60.0055Z" fill="#434343"/>
<path d="M96.085 101.019C97.2081 99.8956 97.2282 98.0505 96.085 96.9274C94.9619 95.8043 93.1168 95.7842 91.9737 96.9274C90.8305 98.0705 90.8305 99.8956 91.9737 101.039C93.1168 102.162 94.9419 102.162 96.085 101.019Z" fill="#434343"/>
<path d="M75.5684 80.5221C76.6915 79.399 76.6915 77.5539 75.5684 76.4108C74.4453 75.2877 72.6003 75.2676 71.4571 76.4108C70.3139 77.5539 70.3139 79.379 71.4571 80.5221C72.6003 81.6452 74.4253 81.6452 75.5684 80.5221Z" fill="#434343"/>
<path d="M133.007 76.4108C132.165 77.2531 131.944 78.4965 132.365 79.5594C132.506 79.9004 132.726 80.2413 133.007 80.5221L135.053 78.4765L133.007 76.4108Z" fill="#434343"/>
<path d="M116.582 96.9273C116.301 96.6465 115.98 96.4259 115.619 96.2855C114.576 95.8644 113.333 96.085 112.47 96.9273C111.347 98.0504 111.347 99.8955 112.47 101.019L116.582 96.9273Z" fill="#434343"/>
<path d="M55.0518 80.5221C55.3326 80.2413 55.5532 79.9204 55.6936 79.5594C55.834 79.2185 55.9142 78.8374 55.9142 78.4764C55.9142 77.7344 55.6334 76.9923 55.0719 76.4308L53.0262 78.4764L55.0518 80.5221Z" fill="#434343"/>
<path d="M75.5685 96.9273C74.7262 96.085 73.4827 95.8644 72.4198 96.2855C72.0789 96.4259 71.7379 96.6465 71.4572 96.9273L75.5685 101.039C75.8493 100.758 76.0699 100.437 76.2103 100.076C76.6314 99.013 76.4108 97.7696 75.5685 96.9273Z" fill="#434343"/>
<path d="M96.0851 117.444C95.5235 116.882 94.7815 116.602 94.0394 116.602C93.2974 116.602 92.5553 116.882 91.9938 117.444L94.0394 119.49L96.0851 117.444Z" fill="#434343"/>
<path d="M153.503 18.9724C154.346 19.8147 155.589 20.0354 156.652 19.6142C156.993 19.4738 157.334 19.2532 157.615 18.9724L153.503 14.8611C152.38 16.0042 152.38 17.8493 153.503 18.9724Z" fill="#434343"/>
<path d="M115.639 19.6142C115.98 19.4738 116.321 19.2532 116.602 18.9724C117.444 18.1301 117.665 16.8867 117.243 15.8237C117.103 15.4828 116.882 15.1419 116.602 14.8611L112.49 18.9724C113.052 19.534 113.794 19.8147 114.536 19.8147C114.917 19.8348 115.278 19.7546 115.639 19.6142Z" fill="#434343"/>
<path d="M133.007 35.3976C131.884 36.5207 131.884 38.3658 133.007 39.509C134.15 40.6521 135.975 40.6321 137.098 39.509C138.221 38.3859 138.241 36.5408 137.098 35.3976C135.975 34.2545 134.13 34.2545 133.007 35.3976Z" fill="#434343"/>
<path d="M157.615 39.4889C158.738 38.3658 158.758 36.5207 157.615 35.3976C156.492 34.2745 154.647 34.2544 153.503 35.3976C152.36 36.5407 152.36 38.3658 153.503 39.5089C154.647 40.632 156.472 40.632 157.615 39.4889Z" fill="#434343"/>
<path d="M137.098 18.9723C138.221 17.8492 138.221 16.0041 137.098 14.861C135.975 13.7379 134.13 13.7178 132.987 14.861C131.844 16.0041 131.844 17.8292 132.987 18.9723C134.13 20.1155 135.975 20.1155 137.098 18.9723Z" fill="#434343"/>
<path d="M137.098 60.0056C138.221 58.8825 138.241 57.0374 137.098 55.9143C135.975 54.7912 134.13 54.7712 132.987 55.9143C131.844 57.0575 131.844 58.8825 132.987 60.0257C134.13 61.1287 135.975 61.1287 137.098 60.0056Z" fill="#434343"/>
<path d="M112.49 35.3776C111.347 36.5208 111.347 38.3458 112.49 39.4889C113.633 40.6321 115.458 40.6321 116.602 39.4889C117.725 38.3658 117.725 36.5208 116.602 35.3776C115.458 34.2545 113.613 34.2545 112.49 35.3776Z" fill="#434343"/>
<path d="M174.02 35.3977C172.897 36.5208 172.897 38.3659 174.02 39.489L176.066 37.4433L174.02 35.3977Z" fill="#434343"/>
<path d="M156.652 55.2524C155.609 54.8313 154.366 55.0519 153.503 55.8942C152.38 57.0173 152.38 58.8624 153.503 59.9855L157.615 55.8742C157.334 55.6134 156.993 55.3928 156.652 55.2524Z" fill="#434343"/>
<path d="M96.0851 39.4889C97.2082 38.3658 97.2082 36.5207 96.0851 35.3776L94.0394 37.4232L96.0851 39.4889Z" fill="#434343"/>
<path d="M116.582 60.0056C117.143 59.4441 117.424 58.702 117.424 57.96C117.424 57.2179 117.143 56.4759 116.582 55.9143C115.458 54.7912 113.613 54.7712 112.47 55.9143L116.582 60.0056Z" fill="#434343"/>
<path d="M135.053 78.4565L137.098 76.4108C136.256 75.5685 135.012 75.3479 133.949 75.769C133.609 75.9094 133.268 76.13 132.987 76.4108L135.053 78.4565Z" fill="#434343"/>
<path d="M178.131 18.9723C179.255 17.8492 179.275 16.0041 178.131 14.881C177.008 13.7579 175.163 13.7378 174.02 14.881C172.877 16.0241 172.877 17.8492 174.02 18.9923C175.163 20.1154 176.988 20.1154 178.131 18.9723Z" fill="#434343"/>
<path d="M197.685 14.2394C196.642 13.8182 195.399 14.0388 194.537 14.8811C193.414 16.0042 193.414 17.8493 194.537 18.9724L198.648 14.8611C198.347 14.6004 198.026 14.3798 197.685 14.2394Z" fill="#434343"/>
<path d="M157.615 14.881C157.053 14.3195 156.311 14.0387 155.569 14.0387C154.827 14.0387 154.085 14.3195 153.523 14.881L157.635 18.9924C158.738 17.8492 158.738 16.0041 157.615 14.881Z" fill="#434343"/>
<path d="M178.131 35.3976C177.289 34.5553 176.046 34.3347 174.983 34.7559C174.642 34.8962 174.301 35.1169 174.02 35.3976L176.066 37.4433L178.131 35.3976Z" fill="#434343"/>
<path d="M11.9731 201.536L11.592 201.917C11.933 202.719 12.314 203.501 12.675 204.304C13.1564 204.183 13.6377 203.983 14.0187 203.602L11.9731 201.536Z" fill="#434343"/>
<path d="M30.444 224.098C31.5871 225.241 33.4122 225.221 34.5353 224.098L30.4239 219.987C29.3008 221.13 29.3008 222.955 30.444 224.098Z" fill="#434343"/>
<path d="M50.9405 240.503C49.8174 241.627 49.8174 243.472 50.9405 244.595L52.9861 242.549L50.9405 240.503Z" fill="#434343"/>
<path d="M55.0519 162.568L53.0062 160.523L50.9606 162.568C52.0837 163.692 53.9288 163.692 55.0519 162.568Z" fill="#434343"/>
<path d="M71.4572 183.065C72.6003 184.208 74.4253 184.188 75.5484 183.065L71.4371 178.954C70.3341 180.097 70.3341 181.942 71.4572 183.065Z" fill="#434343"/>
<path d="M34.5353 183.065C35.6584 181.942 35.6784 180.097 34.5353 178.954L30.424 183.065C31.5671 184.208 33.4122 184.208 34.5353 183.065Z" fill="#434343"/>
<path d="M50.9405 199.49C49.8174 200.613 49.8174 202.458 50.9405 203.602C52.0836 204.745 53.9087 204.725 55.0318 203.602C56.1549 202.479 56.1749 200.633 55.0318 199.49C53.9287 198.347 52.0836 198.347 50.9405 199.49Z" fill="#434343"/>
<path d="M71.4571 199.47C70.3139 200.613 70.3139 202.438 71.4571 203.582C72.6002 204.725 74.4253 204.705 75.5684 203.582C76.6915 202.458 76.7116 200.613 75.5684 199.49C74.4253 198.347 72.6002 198.347 71.4571 199.47Z" fill="#434343"/>
<path d="M50.9605 178.974C49.8174 180.117 49.8174 181.942 50.9605 183.085C52.1037 184.228 53.9287 184.228 55.0719 183.085C56.195 181.962 56.195 180.117 55.0719 178.974C53.9287 177.831 52.0836 177.831 50.9605 178.974Z" fill="#434343"/>
<path d="M50.9605 219.987C49.8174 221.13 49.8174 222.955 50.9605 224.098C52.1037 225.241 53.9287 225.221 55.0719 224.098C56.195 222.975 56.215 221.13 55.0719 220.007C53.9287 218.864 52.0836 218.864 50.9605 219.987Z" fill="#434343"/>
<path d="M30.444 199.47C29.3009 200.613 29.3009 202.438 30.444 203.582C31.5872 204.725 33.4122 204.725 34.5554 203.582C35.6785 202.458 35.6785 200.613 34.5554 199.47C33.4122 198.347 31.5671 198.347 30.444 199.47Z" fill="#434343"/>
<path d="M91.9737 199.49C90.8506 200.613 90.8506 202.458 91.9737 203.582L94.0193 201.536L91.9737 199.49Z" fill="#434343"/>
<path d="M71.4571 219.987C70.334 221.11 70.334 222.955 71.4571 224.078L75.5684 219.967C75.2876 219.686 74.9668 219.465 74.6058 219.325C73.5629 218.924 72.3195 219.144 71.4571 219.987Z" fill="#434343"/>
<path d="M14.881 201.536C14.881 201.175 14.8008 200.794 14.6604 200.453C14.52 200.112 14.2994 199.771 14.0187 199.49L11.973 201.536L14.0387 203.582C14.6003 203.02 14.881 202.278 14.881 201.536Z" fill="#434343"/>
<path d="M34.5353 219.987C33.4122 218.864 31.5671 218.844 30.424 219.987L34.5353 224.098C34.8161 223.817 35.0367 223.496 35.1771 223.135C35.5982 222.093 35.3977 220.849 34.5353 219.987Z" fill="#434343"/>
<path d="M50.9406 240.503L52.9862 242.549L55.0318 240.503C53.9087 239.38 52.0837 239.38 50.9406 240.503Z" fill="#434343"/>
<path d="M95.1224 122.177C95.4633 122.037 95.8043 121.816 96.0851 121.535L94.0394 119.49L91.9938 121.535C92.816 122.378 94.0795 122.598 95.1224 122.177Z" fill="#434343"/>
<path d="M112.49 137.941C111.367 139.064 111.367 140.909 112.49 142.052C113.633 143.195 115.458 143.175 116.582 142.052L112.49 137.941Z" fill="#434343"/>
<path d="M75.5685 142.052C75.8493 141.771 76.0699 141.45 76.2103 141.089C76.6314 140.046 76.4309 138.803 75.5685 137.941L71.4572 142.052C71.7379 142.333 72.0588 142.553 72.4198 142.694C73.4627 143.115 74.7061 142.894 75.5685 142.052Z" fill="#434343"/>
<path d="M91.9737 158.457C90.8506 159.58 90.8506 161.425 91.9737 162.568C93.1168 163.712 94.9419 163.692 96.065 162.568C97.1881 161.445 97.2081 159.6 96.065 158.457C94.9419 157.334 93.0968 157.334 91.9737 158.457Z" fill="#434343"/>
<path d="M112.49 158.457C111.347 159.6 111.347 161.425 112.49 162.568C113.633 163.712 115.458 163.691 116.602 162.568C117.725 161.445 117.745 159.6 116.602 158.477C115.458 157.334 113.613 157.334 112.49 158.457Z" fill="#434343"/>
<path d="M91.9737 137.94C90.8305 139.084 90.8305 140.909 91.9737 142.052C93.1168 143.195 94.9419 143.195 96.085 142.052C97.2081 140.929 97.2081 139.084 96.085 137.94C94.9419 136.817 93.0968 136.817 91.9737 137.94Z" fill="#434343"/>
<path d="M91.9737 178.974C90.8305 180.117 90.8305 181.942 91.9737 183.085C93.1168 184.228 94.9419 184.208 96.085 183.085C97.2081 181.962 97.2282 180.117 96.085 178.994C94.9419 177.831 93.0968 177.831 91.9737 178.974Z" fill="#434343"/>
<path d="M71.4571 158.457C70.3139 159.6 70.3139 161.425 71.4571 162.568C72.6003 163.712 74.4253 163.712 75.5684 162.568C76.6915 161.445 76.6915 159.6 75.5684 158.457C74.4253 157.334 72.6003 157.334 71.4571 158.457Z" fill="#434343"/>
<path d="M132.987 162.568L135.033 160.523L132.987 158.477C131.864 159.6 131.864 161.425 132.987 162.568Z" fill="#434343"/>
<path d="M115.619 178.332C114.576 177.911 113.333 178.131 112.47 178.974C111.347 180.097 111.347 181.942 112.47 183.065L116.582 178.954C116.301 178.693 115.98 178.472 115.619 178.332Z" fill="#434343"/>
<path d="M55.0519 158.457L53.0062 160.503L55.0519 162.548C55.6134 161.987 55.8942 161.245 55.8942 160.503C55.8942 159.761 55.6134 159.019 55.0519 158.457Z" fill="#434343"/>
<path d="M75.5685 178.974C74.7262 178.131 73.4827 177.911 72.4198 178.332C72.0789 178.472 71.7379 178.693 71.4572 178.974L75.5685 183.085C75.8493 182.804 76.0699 182.483 76.2103 182.122C76.6314 181.059 76.4108 179.816 75.5685 178.974Z" fill="#434343"/>
<path d="M91.9738 199.49L94.0194 201.536L96.065 199.49C94.9419 198.347 93.0969 198.347 91.9738 199.49Z" fill="#434343"/>
<path d="M135.053 81.3645C135.434 81.3645 135.795 81.2842 136.136 81.1438C136.477 81.0035 136.817 80.7828 137.098 80.5021L135.053 78.4564L133.007 80.5021C133.569 81.0837 134.311 81.3645 135.053 81.3645Z" fill="#434343"/>
<path d="M153.504 101.019C154.647 102.162 156.472 102.142 157.595 101.019L153.483 96.9072C152.38 98.0504 152.38 99.8955 153.504 101.019Z" fill="#434343"/>
<path d="M114.536 101.881C114.917 101.881 115.278 101.801 115.619 101.66C115.96 101.52 116.301 101.299 116.582 101.019C117.424 100.176 117.644 98.9328 117.223 97.8699C117.083 97.5289 116.862 97.188 116.582 96.9072L112.47 101.019C113.052 101.6 113.794 101.881 114.536 101.881Z" fill="#434343"/>
<path d="M132.987 117.444C131.864 118.567 131.864 120.412 132.987 121.555C134.13 122.698 135.955 122.678 137.078 121.555C138.201 120.432 138.221 118.587 137.078 117.444C135.975 116.301 134.13 116.301 132.987 117.444Z" fill="#434343"/>
<path d="M157.615 121.535C158.738 120.412 158.758 118.567 157.615 117.444C156.492 116.321 154.647 116.301 153.503 117.444C152.36 118.587 152.36 120.412 153.503 121.555C154.647 122.678 156.472 122.678 157.615 121.535Z" fill="#434343"/>
<path d="M137.098 101.019C138.221 99.8956 138.221 98.0505 137.098 96.9074C135.975 95.7843 134.13 95.7642 132.987 96.9074C131.844 98.0505 131.844 99.8755 132.987 101.019C134.13 102.162 135.975 102.162 137.098 101.019Z" fill="#434343"/>
<path d="M137.098 142.052C138.221 140.929 138.241 139.084 137.098 137.961C135.975 136.837 134.13 136.817 132.987 137.961C131.844 139.104 131.844 140.929 132.987 142.072C134.13 143.175 135.955 143.175 137.098 142.052Z" fill="#434343"/>
<path d="M116.582 121.535C117.705 120.412 117.705 118.567 116.582 117.424C115.459 116.301 113.613 116.281 112.47 117.424C111.327 118.567 111.327 120.392 112.47 121.535C113.613 122.678 115.459 122.678 116.582 121.535Z" fill="#434343"/>
<path d="M174.02 121.535L176.066 119.49L174.02 117.444C172.897 118.567 172.897 120.412 174.02 121.535Z" fill="#434343"/>
<path d="M153.503 137.941C152.38 139.064 152.38 140.909 153.503 142.032L157.615 137.92C157.334 137.64 157.013 137.419 156.652 137.279C155.609 136.878 154.366 137.098 153.503 137.941Z" fill="#434343"/>
<path d="M96.085 121.535C96.3658 121.255 96.5864 120.934 96.7268 120.573C96.8672 120.232 96.9474 119.851 96.9474 119.49C96.9474 118.748 96.6666 118.006 96.1051 117.444L94.0594 119.49L96.085 121.535Z" fill="#434343"/>
<path d="M116.582 137.941C115.739 137.098 114.496 136.878 113.433 137.299C113.092 137.439 112.751 137.66 112.47 137.941L116.582 142.052C117.725 140.909 117.725 139.084 116.582 137.941Z" fill="#434343"/>
<path d="M133.949 157.815C133.609 157.956 133.268 158.176 132.987 158.457L135.032 160.503L137.078 158.457C136.256 157.615 135.012 157.394 133.949 157.815Z" fill="#434343"/>
<path d="M178.131 39.489L176.086 37.4434L174.04 39.489C174.321 39.7698 174.642 39.9904 175.003 40.1308C176.026 40.5519 177.269 40.3313 178.131 39.489Z" fill="#434343"/>
<path d="M194.537 60.0055C195.68 61.1487 197.505 61.1286 198.628 60.0055L194.537 55.8942C194.256 56.1749 194.035 56.4958 193.895 56.8568C193.474 57.8997 193.674 59.1431 194.537 60.0055Z" fill="#434343"/>
<path d="M157.615 60.0055C158.457 59.1632 158.678 57.9198 158.257 56.8568C158.116 56.5159 157.896 56.1749 157.615 55.8942L153.503 60.0055C154.647 61.1286 156.472 61.1286 157.615 60.0055Z" fill="#434343"/>
<path d="M174.02 76.4108C172.897 77.5339 172.897 79.379 174.02 80.5221C175.163 81.6653 176.988 81.6452 178.111 80.5221C179.234 79.399 179.255 77.5539 178.111 76.4108C176.988 75.2676 175.143 75.2877 174.02 76.4108Z" fill="#434343"/>
<path d="M198.628 80.502C199.751 79.379 199.771 77.5339 198.628 76.4108C197.505 75.2877 195.66 75.2676 194.517 76.4108C193.373 77.5539 193.373 79.379 194.517 80.5221C195.66 81.6452 197.505 81.6452 198.628 80.502Z" fill="#434343"/>
<path d="M178.131 60.0055C179.255 58.8824 179.255 57.0373 178.131 55.8942C177.008 54.7711 175.163 54.751 174.02 55.8942C172.877 57.0373 172.877 58.8624 174.02 60.0055C175.163 61.1286 176.988 61.1286 178.131 60.0055Z" fill="#434343"/>
<path d="M178.131 101.019C179.255 99.8956 179.275 98.0505 178.131 96.9274C177.008 95.8043 175.163 95.7842 174.02 96.9274C172.877 98.0705 172.877 99.8956 174.02 101.039C175.163 102.162 176.988 102.162 178.131 101.019Z" fill="#434343"/>
<path d="M157.615 80.5221C158.738 79.399 158.738 77.5539 157.615 76.4108C156.492 75.2877 154.647 75.2676 153.503 76.4108C152.36 77.5539 152.36 79.379 153.503 80.5221C154.647 81.6452 156.472 81.6452 157.615 80.5221Z" fill="#434343"/>
<path d="M215.053 80.5021L217.099 78.4564L215.053 76.4108C213.91 77.5339 213.91 79.379 215.053 80.5021Z" fill="#434343"/>
<path d="M197.685 96.2855C196.642 95.8644 195.399 96.085 194.537 96.9273C193.414 98.0504 193.414 99.8955 194.537 101.019L198.648 96.9072C198.347 96.6465 198.026 96.4259 197.685 96.2855Z" fill="#434343"/>
<path d="M137.098 80.5221C138.221 79.399 138.221 77.5539 137.098 76.4108L135.052 78.4564L137.098 80.5221Z" fill="#434343"/>
<path d="M158.457 98.973C158.457 98.231 158.176 97.489 157.615 96.9274C157.053 96.3659 156.311 96.0851 155.569 96.0851C154.827 96.0851 154.085 96.3659 153.523 96.9274L157.635 101.039C158.176 100.457 158.457 99.7151 158.457 98.973Z" fill="#434343"/>
<path d="M178.111 117.444C177.269 116.602 176.026 116.381 174.963 116.802C174.622 116.943 174.281 117.163 174 117.444L176.046 119.49L178.111 117.444Z" fill="#434343"/>
<path d="M198.628 18.9724C199.751 17.8493 199.771 16.0042 198.628 14.8611L194.537 18.9724C195.66 20.1156 197.505 20.1156 198.628 18.9724Z" fill="#434343"/>
<path d="M219.145 39.4889C220.268 38.3658 220.288 36.5208 219.145 35.3776C218.021 34.2545 216.176 34.2545 215.033 35.3776C213.91 36.5007 213.91 38.3458 215.033 39.4889C216.176 40.6321 218.021 40.612 219.145 39.4889Z" fill="#434343"/>
<path d="M239.661 39.4889C240.784 38.3658 240.804 36.5207 239.661 35.3976C238.538 34.2745 236.693 34.2544 235.55 35.3976C234.407 36.5407 234.407 38.3658 235.55 39.5089C236.693 40.632 238.518 40.632 239.661 39.4889Z" fill="#434343"/>
<path d="M217.901 19.6743C216.718 18.9924 215.535 18.2905 214.331 17.6287C214.452 18.13 214.652 18.5913 215.053 18.9924C215.815 19.7545 216.918 19.9551 217.901 19.6743Z" fill="#434343"/>
<path d="M219.144 60.0056C220.268 58.8825 220.288 57.0374 219.144 55.9143C218.021 54.7912 216.176 54.7712 215.033 55.9143C213.89 57.0575 213.89 58.8825 215.033 60.0257C216.176 61.1287 218.021 61.1287 219.144 60.0056Z" fill="#434343"/>
<path d="M194.537 35.3776C193.394 36.5208 193.394 38.3458 194.537 39.4889C195.68 40.6321 197.505 40.6321 198.648 39.4889C199.771 38.3658 199.771 36.5208 198.648 35.3776C197.505 34.2545 195.66 34.2545 194.537 35.3776Z" fill="#434343"/>
<path d="M239.661 55.8942C239.38 55.6134 239.06 55.3928 238.699 55.2524C237.656 54.8313 236.412 55.0519 235.55 55.8942C234.427 57.0173 234.427 58.8624 235.55 59.9855L239.661 55.8942Z" fill="#434343"/>
<path d="M178.131 39.4889C178.974 38.6466 179.194 37.4032 178.773 36.3402C178.633 35.9993 178.412 35.6583 178.131 35.3776L176.086 37.4232L178.131 39.4889Z" fill="#434343"/>
<path d="M199.27 59.0429C199.691 58 199.49 56.7566 198.628 55.8942C197.505 54.7711 195.66 54.751 194.517 55.8942L198.628 60.0055C198.909 59.7247 199.129 59.3838 199.27 59.0429Z" fill="#434343"/>
<path d="M219.145 76.4109C218.864 76.1301 218.543 75.9095 218.182 75.7691C217.139 75.3479 215.896 75.5485 215.033 76.4109L217.079 78.4565L219.145 76.4109Z" fill="#434343"/>
<path d="M50.9406 244.615C51.2213 244.896 51.5422 245.116 51.9032 245.257C52.9461 245.678 54.1895 245.477 55.0519 244.615L53.0063 242.569L50.9406 244.615Z" fill="#434343"/>
<path d="M71.4571 265.111C72.6003 266.255 74.4253 266.234 75.5484 265.111L71.437 261C71.1563 261.281 70.9357 261.602 70.7953 261.963C70.3942 263.026 70.6148 264.269 71.4571 265.111Z" fill="#434343"/>
<path d="M91.9738 203.582C93.1169 204.725 94.9419 204.725 96.0851 203.582L94.0394 201.536L91.9738 203.582Z" fill="#434343"/>
<path d="M112.49 224.098C113.052 224.66 113.794 224.94 114.536 224.94C115.278 224.94 116.02 224.66 116.582 224.098L112.47 219.987C111.347 221.13 111.347 222.955 112.49 224.098Z" fill="#434343"/>
<path d="M75.5685 224.098C76.6916 222.975 76.7117 221.13 75.5685 219.987L71.4572 224.098C72.6003 225.221 74.4253 225.221 75.5685 224.098Z" fill="#434343"/>
<path d="M91.9737 240.503C90.8506 241.627 90.8506 243.472 91.9737 244.615C93.1168 245.758 94.9419 245.738 96.065 244.615C97.1881 243.492 97.2081 241.647 96.065 240.503C94.9419 239.36 93.0968 239.38 91.9737 240.503Z" fill="#434343"/>
<path d="M116.582 244.595C117.705 243.472 117.725 241.627 116.582 240.503C115.459 239.38 113.613 239.36 112.47 240.503C111.327 241.647 111.327 243.472 112.47 244.615C113.613 245.738 115.459 245.738 116.582 244.595Z" fill="#434343"/>
<path d="M91.9737 219.987C90.8305 221.13 90.8305 222.955 91.9737 224.098C93.1168 225.241 94.9419 225.241 96.085 224.098C97.2081 222.975 97.2081 221.13 96.085 219.987C94.9419 218.864 93.0968 218.864 91.9737 219.987Z" fill="#434343"/>
<path d="M91.9737 261.02C90.8305 262.163 90.8305 263.988 91.9737 265.131C93.1168 266.275 94.9419 266.254 96.085 265.131C97.2081 264.008 97.2282 262.163 96.085 261.04C94.9419 259.877 93.0968 259.877 91.9737 261.02Z" fill="#434343"/>
<path d="M71.4571 240.503C70.3139 241.647 70.3139 243.472 71.4571 244.615C72.6003 245.758 74.4253 245.758 75.5684 244.615C76.6915 243.492 76.6915 241.647 75.5684 240.503C74.4253 239.38 72.6003 239.36 71.4571 240.503Z" fill="#434343"/>
<path d="M132.987 240.503C132.145 241.346 131.924 242.589 132.345 243.652C132.485 243.993 132.706 244.334 132.987 244.615L135.033 242.569L132.987 240.503Z" fill="#434343"/>
<path d="M112.49 261.02C111.367 262.143 111.367 263.988 112.49 265.111L116.602 261C116.321 260.719 116 260.499 115.639 260.358C114.576 259.957 113.333 260.158 112.49 261.02Z" fill="#434343"/>
<path d="M55.0519 244.615C55.8942 243.772 56.1148 242.529 55.6936 241.466C55.5533 241.125 55.3326 240.784 55.0519 240.503L53.0062 242.549L55.0519 244.615Z" fill="#434343"/>
<path d="M76.1901 264.169C76.6113 263.126 76.4107 261.882 75.5484 261.02C74.4253 259.897 72.5802 259.877 71.437 261.02L75.5484 265.131C75.8492 264.831 76.0497 264.51 76.1901 264.169Z" fill="#434343"/>
<path d="M93.8789 280.714C94.6009 280.975 95.3028 281.256 96.0248 281.517C95.4432 280.915 94.6611 280.674 93.8789 280.714Z" fill="#434343"/>
<path d="M132.987 162.568C134.13 163.712 135.955 163.712 137.098 162.568L135.053 160.523L132.987 162.568Z" fill="#434343"/>
<path d="M153.503 178.974C152.38 180.097 152.38 181.942 153.503 183.085C154.647 184.228 156.472 184.208 157.595 183.085L153.503 178.974Z" fill="#434343"/>
<path d="M116.582 183.065C116.862 182.784 117.083 182.463 117.223 182.102C117.644 181.059 117.444 179.816 116.582 178.954L112.47 183.065C113.613 184.208 115.458 184.208 116.582 183.065Z" fill="#434343"/>
<path d="M132.987 199.47C131.864 200.593 131.864 202.438 132.987 203.582C134.13 204.725 135.955 204.705 137.078 203.582C138.201 202.458 138.221 200.613 137.078 199.47C135.975 198.347 134.13 198.347 132.987 199.47Z" fill="#434343"/>
<path d="M157.615 203.582C158.738 202.459 158.758 200.613 157.615 199.49C156.492 198.367 154.647 198.347 153.503 199.49C152.36 200.634 152.36 202.459 153.503 203.602C154.647 204.725 156.472 204.725 157.615 203.582Z" fill="#434343"/>
<path d="M137.098 183.065C138.221 181.942 138.221 180.097 137.098 178.954C135.975 177.831 134.13 177.811 132.987 178.954C131.844 180.097 131.844 181.922 132.987 183.065C134.13 184.208 135.955 184.208 137.098 183.065Z" fill="#434343"/>
<path d="M137.098 224.098C138.221 222.975 138.241 221.13 137.098 220.007C135.975 218.884 134.13 218.864 132.987 220.007C131.844 221.15 131.844 222.975 132.987 224.118C134.13 225.221 135.955 225.221 137.098 224.098Z" fill="#434343"/>
<path d="M112.49 199.47C111.347 200.613 111.347 202.438 112.49 203.582C113.633 204.725 115.458 204.725 116.602 203.582C117.725 202.458 117.725 200.613 116.602 199.47C115.458 198.347 113.613 198.347 112.49 199.47Z" fill="#434343"/>
<path d="M174.02 199.47C173.739 199.751 173.519 200.072 173.378 200.433C172.957 201.476 173.158 202.719 174.02 203.582L176.066 201.536L174.02 199.47Z" fill="#434343"/>
<path d="M153.503 219.987C152.38 221.11 152.38 222.955 153.503 224.078L157.615 219.967C157.334 219.686 157.013 219.465 156.652 219.325C155.609 218.924 154.366 219.144 153.503 219.987Z" fill="#434343"/>
<path d="M96.0651 199.49L94.0194 201.536L96.0651 203.582C96.6266 203.02 96.9074 202.278 96.9074 201.536C96.9274 200.794 96.6467 200.052 96.0651 199.49Z" fill="#434343"/>
<path d="M116.582 219.987C115.739 219.144 114.496 218.924 113.433 219.345C113.092 219.485 112.751 219.706 112.47 219.987L116.582 224.098C117.725 222.955 117.725 221.13 116.582 219.987Z" fill="#434343"/>
<path d="M137.098 240.503C136.537 239.942 135.795 239.661 135.053 239.661C134.672 239.661 134.311 239.741 133.97 239.882C133.629 240.022 133.288 240.243 133.007 240.524L135.053 242.569L137.098 240.503Z" fill="#434343"/>
<path d="M174.02 121.535C174.301 121.816 174.622 122.037 174.983 122.177C176.026 122.598 177.269 122.398 178.131 121.535L176.086 119.49L174.02 121.535Z" fill="#434343"/>
<path d="M194.537 142.052C195.68 143.195 197.505 143.175 198.628 142.052L194.537 137.941C193.394 139.084 193.394 140.909 194.537 142.052Z" fill="#434343"/>
<path d="M153.503 142.052C153.784 142.333 154.105 142.553 154.466 142.694C155.509 143.115 156.752 142.914 157.615 142.052C158.477 141.19 158.678 139.966 158.257 138.903C158.116 138.562 157.896 138.221 157.615 137.941L153.503 142.052Z" fill="#434343"/>
<path d="M174.02 158.457C172.897 159.58 172.897 161.425 174.02 162.568C175.163 163.712 176.988 163.691 178.111 162.568C179.234 161.445 179.255 159.6 178.111 158.457C176.988 157.314 175.143 157.334 174.02 158.457Z" fill="#434343"/>
<path d="M198.628 162.548C199.751 161.425 199.771 159.58 198.628 158.457C197.505 157.334 195.66 157.314 194.517 158.457C193.373 159.6 193.373 161.425 194.517 162.568C195.66 163.691 197.505 163.691 198.628 162.548Z" fill="#434343"/>
<path d="M178.131 142.052C179.255 140.929 179.255 139.084 178.131 137.94C177.008 136.817 175.163 136.797 174.02 137.94C172.877 139.084 172.877 140.909 174.02 142.052C175.143 143.175 176.988 143.175 178.131 142.052Z" fill="#434343"/>
<path d="M178.131 183.065C179.255 181.942 179.275 180.097 178.131 178.974C177.008 177.851 175.163 177.831 174.02 178.974C172.877 180.117 172.877 181.942 174.02 183.085C175.143 184.208 176.988 184.208 178.131 183.065Z" fill="#434343"/>
<path d="M153.503 158.457C152.36 159.6 152.36 161.425 153.503 162.568C154.647 163.712 156.472 163.712 157.615 162.568C158.738 161.445 158.738 159.6 157.615 158.457C156.472 157.334 154.647 157.314 153.503 158.457Z" fill="#434343"/>
<path d="M215.033 162.548L217.079 160.503L215.033 158.457C213.91 159.58 213.91 161.425 215.033 162.548Z" fill="#434343"/>
<path d="M194.537 178.974C193.414 180.097 193.414 181.942 194.537 183.065L198.648 178.954C198.367 178.673 198.046 178.452 197.685 178.312C196.622 177.911 195.379 178.111 194.537 178.974Z" fill="#434343"/>
<path d="M137.098 158.457L135.052 160.503L137.098 162.548C137.379 162.268 137.6 161.947 137.74 161.586C138.161 160.563 137.94 159.299 137.098 158.457Z" fill="#434343"/>
<path d="M157.615 178.974C156.492 177.851 154.647 177.831 153.503 178.974L157.615 183.085C158.176 182.524 158.457 181.782 158.457 181.039C158.457 180.277 158.176 179.535 157.615 178.974Z" fill="#434343"/>
<path d="M178.111 199.49C177.55 198.929 176.808 198.648 176.066 198.648C175.685 198.648 175.324 198.728 174.983 198.869C174.642 199.009 174.301 199.23 174.02 199.51L176.066 201.556L178.111 199.49Z" fill="#434343"/>
<path d="M215.053 80.5021C215.334 80.7828 215.655 81.0035 216.016 81.1438C217.059 81.565 218.302 81.3645 219.165 80.5021L217.119 78.4564L215.053 80.5021Z" fill="#434343"/>
<path d="M235.55 101.019C236.693 102.162 238.518 102.142 239.641 101.019L235.53 96.9072C234.427 98.0504 234.427 99.8955 235.55 101.019Z" fill="#434343"/>
<path d="M198.628 101.019C199.47 100.176 199.691 98.9328 199.27 97.8699C199.129 97.5289 198.909 97.188 198.628 96.9072L194.537 101.019C195.66 102.162 197.505 102.162 198.628 101.019Z" fill="#434343"/>
<path d="M215.033 117.424C213.91 118.547 213.91 120.392 215.033 121.535C216.176 122.678 218.001 122.658 219.125 121.535C220.248 120.412 220.268 118.567 219.125 117.424C218.021 116.301 216.176 116.301 215.033 117.424Z" fill="#434343"/>
<path d="M239.661 121.535C240.784 120.412 240.804 118.567 239.661 117.444C238.538 116.321 236.693 116.301 235.55 117.444C234.407 118.587 234.407 120.412 235.55 121.555C236.693 122.678 238.518 122.678 239.661 121.535Z" fill="#434343"/>
<path d="M215.053 96.9273C213.91 98.0705 213.91 99.8955 215.053 101.039C216.196 102.182 218.021 102.182 219.165 101.039C220.288 99.9155 220.288 98.0705 219.165 96.9273C218.021 95.7842 216.176 95.7842 215.053 96.9273Z" fill="#434343"/>
<path d="M215.053 137.94C213.91 139.084 213.91 140.909 215.053 142.052C216.196 143.195 218.021 143.175 219.165 142.052C220.288 140.929 220.308 139.084 219.165 137.96C218.021 136.817 216.176 136.817 215.053 137.94Z" fill="#434343"/>
<path d="M194.537 117.424C193.394 118.567 193.394 120.392 194.537 121.535C195.68 122.678 197.505 122.678 198.648 121.535C199.771 120.412 199.771 118.567 198.648 117.424C197.505 116.301 195.66 116.301 194.537 117.424Z" fill="#434343"/>
<path d="M256.066 121.535L258.112 119.49L256.066 117.444C254.943 118.567 254.943 120.392 256.066 121.535Z" fill="#434343"/>
<path d="M235.55 137.941C234.427 139.064 234.427 140.909 235.55 142.032L239.661 137.92C239.38 137.64 239.06 137.419 238.699 137.279C237.656 136.878 236.412 137.098 235.55 137.941Z" fill="#434343"/>
<path d="M178.131 121.535C178.412 121.255 178.633 120.934 178.773 120.573C179.194 119.53 178.994 118.286 178.131 117.424L176.086 119.47L178.131 121.535Z" fill="#434343"/>
<path d="M199.49 140.006C199.49 139.264 199.21 138.522 198.648 137.961C198.086 137.399 197.344 137.118 196.602 137.118C195.86 137.118 195.118 137.399 194.557 137.961L198.668 142.072C199.19 141.49 199.49 140.748 199.49 140.006Z" fill="#434343"/>
<path d="M215.996 157.815C215.655 157.956 215.314 158.176 215.033 158.457L217.079 160.503L219.124 158.457C218.302 157.615 217.039 157.394 215.996 157.815Z" fill="#434343"/>
<path d="M237.616 60.8478C238.358 60.8478 239.1 60.5671 239.661 60.0055C240.784 58.8824 240.804 57.0373 239.661 55.8942L235.55 60.0055C236.131 60.5671 236.873 60.8478 237.616 60.8478Z" fill="#434343"/>
<path d="M260.178 80.5021C261.301 79.379 261.321 77.5339 260.178 76.3908C259.055 75.2677 257.21 75.2677 256.066 76.3908C254.943 77.5139 254.943 79.359 256.066 80.5021C257.21 81.6453 259.035 81.6453 260.178 80.5021Z" fill="#434343"/>
<path d="M256.066 55.8943C254.923 57.0374 254.923 58.8625 256.066 60.0056C257.21 61.1488 259.035 61.1488 260.178 60.0056C260.719 59.4641 261 58.7421 261.02 58.0201C260.298 57.0575 259.536 56.1349 258.794 55.1923C257.831 54.9517 256.808 55.1522 256.066 55.8943Z" fill="#434343"/>
<path d="M260.178 101.019C261.301 99.8956 261.321 98.0505 260.178 96.9274C259.055 95.8043 257.21 95.7842 256.066 96.9274C254.923 98.0705 254.923 99.8956 256.066 101.039C257.21 102.162 259.035 102.162 260.178 101.019Z" fill="#434343"/>
<path d="M235.55 76.4107C234.407 77.5539 234.407 79.3789 235.55 80.5221C236.693 81.6652 238.518 81.6652 239.661 80.5221C240.784 79.399 240.784 77.5539 239.661 76.4107C238.518 75.2676 236.693 75.2676 235.55 76.4107Z" fill="#434343"/>
<path d="M279.712 96.2855C278.669 95.8644 277.425 96.085 276.563 96.9273C275.44 98.0504 275.44 99.8955 276.563 101.019L280.674 96.9072C280.393 96.6265 280.073 96.4259 279.712 96.2855Z" fill="#434343"/>
<path d="M219.145 80.5221C219.425 80.2413 219.646 79.9204 219.786 79.5594C220.207 78.5166 220.007 77.2731 219.145 76.4108L217.099 78.4564L219.145 80.5221Z" fill="#434343"/>
<path d="M240.303 100.056C240.724 99.0131 240.524 97.7696 239.661 96.9073C238.819 96.0649 237.575 95.8443 236.512 96.2655C236.172 96.4059 235.831 96.6265 235.55 96.9073L239.661 101.019C239.942 100.738 240.142 100.417 240.303 100.056Z" fill="#434343"/>
<path d="M260.158 117.424C259.035 116.301 257.19 116.301 256.066 117.424L258.112 119.469L260.158 117.424Z" fill="#434343"/>
<path d="M132.987 244.595C133.268 244.875 133.588 245.096 133.949 245.236C134.992 245.658 136.236 245.457 137.098 244.595L135.053 242.549L132.987 244.595Z" fill="#434343"/>
<path d="M152.862 261.983C152.441 263.026 152.641 264.269 153.504 265.131C154.647 266.274 156.472 266.254 157.595 265.131L153.483 261.02C153.223 261.301 153.002 261.622 152.862 261.983Z" fill="#434343"/>
<path d="M112.49 265.111C113.052 265.673 113.794 265.954 114.536 265.954C114.917 265.954 115.278 265.874 115.619 265.733C115.96 265.593 116.301 265.372 116.582 265.091C116.862 264.811 117.083 264.49 117.223 264.129C117.645 263.086 117.444 261.842 116.582 260.98L112.49 265.111Z" fill="#434343"/>
<path d="M132.987 281.517C131.864 282.64 131.864 284.485 132.987 285.628C134.13 286.771 135.955 286.751 137.078 285.628C138.201 284.505 138.221 282.66 137.078 281.517C135.975 280.393 134.13 280.393 132.987 281.517Z" fill="#434343"/>
<path d="M153.503 281.517C152.36 282.66 152.36 284.485 153.503 285.628C154.647 286.771 156.472 286.751 157.615 285.628C158.738 284.505 158.758 282.66 157.615 281.537C156.472 280.394 154.647 280.393 153.503 281.517Z" fill="#434343"/>
<path d="M132.987 261.02C131.844 262.163 131.844 263.988 132.987 265.131C134.13 266.275 135.955 266.275 137.098 265.131C138.221 264.008 138.221 262.163 137.098 261.02C135.955 259.877 134.13 259.877 132.987 261.02Z" fill="#434343"/>
<path d="M112.49 281.517C111.347 282.66 111.347 284.485 112.49 285.628C113.633 286.771 115.458 286.771 116.602 285.628C117.725 284.505 117.725 282.66 116.602 281.517C115.458 280.393 113.613 280.393 112.49 281.517Z" fill="#434343"/>
<path d="M174.02 281.517C172.897 282.64 172.897 284.485 174.02 285.608L176.066 283.562L174.02 281.517Z" fill="#434343"/>
<path d="M174.02 203.582C174.862 204.424 176.106 204.644 177.169 204.223C177.51 204.083 177.851 203.862 178.131 203.582L176.086 201.536L174.02 203.582Z" fill="#434343"/>
<path d="M194.537 224.098C195.379 224.94 196.622 225.161 197.685 224.74C198.026 224.6 198.367 224.379 198.648 224.098L194.537 219.987C193.394 221.13 193.394 222.955 194.537 224.098Z" fill="#434343"/>
<path d="M153.503 224.098C154.065 224.66 154.807 224.941 155.549 224.941C155.93 224.941 156.291 224.86 156.632 224.72C156.973 224.58 157.314 224.359 157.595 224.078C158.437 223.236 158.658 221.992 158.236 220.929C158.096 220.589 157.876 220.248 157.595 219.967L153.503 224.098Z" fill="#434343"/>
<path d="M174.02 240.503C172.897 241.627 172.897 243.472 174.02 244.615C175.163 245.758 176.988 245.738 178.111 244.615C179.234 243.492 179.255 241.647 178.111 240.503C176.988 239.36 175.143 239.36 174.02 240.503Z" fill="#434343"/>
<path d="M194.537 240.503C193.394 241.647 193.394 243.472 194.537 244.615C195.68 245.758 197.505 245.738 198.648 244.615C199.771 243.492 199.791 241.647 198.648 240.523C197.505 239.36 195.66 239.36 194.537 240.503Z" fill="#434343"/>
<path d="M174.02 219.987C172.877 221.13 172.877 222.955 174.02 224.098C175.163 225.241 176.988 225.241 178.131 224.098C179.255 222.975 179.255 221.13 178.131 219.987C176.988 218.864 175.143 218.864 174.02 219.987Z" fill="#434343"/>
<path d="M174.02 261.02C172.877 262.163 172.877 263.988 174.02 265.131C175.163 266.275 176.988 266.254 178.131 265.131C179.255 264.008 179.275 262.163 178.131 261.04C176.988 259.877 175.143 259.877 174.02 261.02Z" fill="#434343"/>
<path d="M153.503 240.503C152.36 241.647 152.36 243.472 153.503 244.615C154.647 245.758 156.472 245.758 157.615 244.615C158.738 243.492 158.738 241.647 157.615 240.503C156.472 239.36 154.647 239.36 153.503 240.503Z" fill="#434343"/>
<path d="M215.033 240.503C213.91 241.627 213.91 243.472 215.033 244.595L217.079 242.549L215.033 240.503Z" fill="#434343"/>
<path d="M197.665 260.378C196.622 259.957 195.379 260.178 194.517 261.02C193.394 262.143 193.394 263.988 194.517 265.111L198.628 261C198.347 260.719 198.026 260.519 197.665 260.378Z" fill="#434343"/>
<path d="M137.74 241.466C137.6 241.125 137.379 240.784 137.098 240.503L135.052 242.549L137.098 244.595C137.94 243.752 138.161 242.509 137.74 241.466Z" fill="#434343"/>
<path d="M157.615 261.02C156.492 259.897 154.647 259.877 153.503 261.02L157.615 265.131C158.176 264.57 158.457 263.828 158.457 263.086C158.457 262.324 158.176 261.582 157.615 261.02Z" fill="#434343"/>
<path d="M178.111 281.517C177.269 280.674 176.026 280.454 174.963 280.875C174.622 281.015 174.281 281.236 174 281.517L176.046 283.562L178.111 281.517Z" fill="#434343"/>
<path d="M215.033 162.548C215.314 162.829 215.635 163.05 215.996 163.19C217.039 163.611 218.282 163.411 219.145 162.548L217.099 160.503L215.033 162.548Z" fill="#434343"/>
<path d="M235.55 183.065C236.693 184.208 238.518 184.188 239.641 183.065L235.53 178.954C234.427 180.097 234.427 181.942 235.55 183.065Z" fill="#434343"/>
<path d="M195.499 183.707C196.542 184.128 197.786 183.927 198.648 183.065C199.49 182.223 199.711 180.979 199.29 179.916C199.149 179.575 198.929 179.234 198.648 178.954L194.537 183.065C194.817 183.346 195.138 183.566 195.499 183.707Z" fill="#434343"/>
<path d="M215.033 199.47C213.91 200.593 213.91 202.438 215.033 203.582C216.176 204.725 218.001 204.705 219.125 203.582C220.248 202.458 220.268 200.613 219.125 199.47C218.021 198.347 216.176 198.347 215.033 199.47Z" fill="#434343"/>
<path d="M239.661 203.582C240.784 202.459 240.804 200.613 239.661 199.49C238.538 198.367 236.693 198.347 235.55 199.49C234.407 200.634 234.407 202.459 235.55 203.602C236.693 204.725 238.518 204.705 239.661 203.582Z" fill="#434343"/>
<path d="M215.033 178.974C213.89 180.117 213.89 181.942 215.033 183.085C216.176 184.228 218.001 184.228 219.144 183.085C220.268 181.962 220.268 180.117 219.144 178.974C218.021 177.831 216.176 177.831 215.033 178.974Z" fill="#434343"/>
<path d="M215.033 219.987C213.89 221.13 213.89 222.955 215.033 224.098C216.176 225.241 218.001 225.221 219.144 224.098C220.268 222.975 220.288 221.13 219.144 220.007C218.021 218.864 216.176 218.864 215.033 219.987Z" fill="#434343"/>
<path d="M194.537 199.47C193.394 200.613 193.394 202.438 194.537 203.582C195.68 204.725 197.505 204.725 198.648 203.582C199.771 202.458 199.771 200.613 198.648 199.47C197.505 198.347 195.66 198.347 194.537 199.47Z" fill="#434343"/>
<path d="M256.066 203.582L258.112 201.536L256.066 199.49C254.923 200.613 254.923 202.438 256.066 203.582Z" fill="#434343"/>
<path d="M235.55 219.987C234.427 221.11 234.427 222.955 235.55 224.078L239.661 219.967C239.38 219.686 239.06 219.465 238.699 219.325C237.656 218.924 236.412 219.144 235.55 219.987Z" fill="#434343"/>
<path d="M178.974 201.536C178.974 201.155 178.893 200.794 178.753 200.453C178.613 200.112 178.392 199.771 178.111 199.49L176.066 201.536L178.111 203.582C178.693 203.02 178.974 202.278 178.974 201.536Z" fill="#434343"/>
<path d="M198.628 219.987C198.066 219.425 197.324 219.145 196.582 219.145C195.84 219.145 195.098 219.425 194.537 219.987L198.648 224.098C199.771 222.955 199.771 221.13 198.628 219.987Z" fill="#434343"/>
<path d="M215.996 239.862C215.655 240.002 215.314 240.223 215.033 240.503L217.079 242.549L219.124 240.503C218.302 239.661 217.039 239.441 215.996 239.862Z" fill="#434343"/>
<path d="M256.066 121.535C256.909 122.378 258.152 122.598 259.215 122.177C259.556 122.037 259.897 121.816 260.178 121.535L258.132 119.49L256.066 121.535Z" fill="#434343"/>
<path d="M276.583 142.052C277.726 143.195 279.551 143.175 280.674 142.052L276.563 137.941C275.44 139.084 275.44 140.909 276.583 142.052Z" fill="#434343"/>
<path d="M236.512 142.674C237.555 143.095 238.799 142.894 239.661 142.032C240.503 141.189 240.724 139.946 240.303 138.883C240.163 138.542 239.942 138.201 239.661 137.92L235.55 142.032C235.831 142.333 236.172 142.533 236.512 142.674Z" fill="#434343"/>
<path d="M256.066 158.457C254.943 159.58 254.943 161.425 256.066 162.568C257.21 163.712 259.035 163.692 260.158 162.568C261.281 161.445 261.301 159.6 260.158 158.457C259.035 157.314 257.19 157.314 256.066 158.457Z" fill="#434343"/>
<path d="M276.583 158.457C275.44 159.6 275.44 161.425 276.583 162.569C277.726 163.712 279.551 163.692 280.694 162.569C281.817 161.445 281.837 159.6 280.694 158.477C279.551 157.314 277.706 157.314 276.583 158.457Z" fill="#434343"/>
<path d="M256.066 137.94C254.923 139.084 254.923 140.909 256.066 142.052C257.21 143.195 259.035 143.195 260.178 142.052C261.301 140.929 261.301 139.084 260.178 137.94C259.035 136.817 257.189 136.817 256.066 137.94Z" fill="#434343"/>
<path d="M256.066 178.974C254.923 180.117 254.923 181.942 256.066 183.085C257.21 184.228 259.035 184.208 260.178 183.085C261.301 181.962 261.321 180.117 260.178 178.994C259.035 177.831 257.189 177.831 256.066 178.974Z" fill="#434343"/>
<path d="M235.55 158.457C234.407 159.6 234.407 161.425 235.55 162.568C236.693 163.712 238.518 163.712 239.661 162.568C240.784 161.445 240.784 159.6 239.661 158.457C238.518 157.314 236.693 157.314 235.55 158.457Z" fill="#434343"/>
<path d="M279.712 178.332C278.669 177.911 277.425 178.131 276.563 178.974C275.721 179.816 275.5 181.059 275.921 182.122C276.062 182.463 276.282 182.804 276.563 183.085L280.674 178.974C280.393 178.673 280.073 178.472 279.712 178.332Z" fill="#434343"/>
<path d="M219.145 162.568C219.425 162.288 219.646 161.967 219.786 161.606C219.927 161.245 220.007 160.884 220.007 160.523C220.007 160.162 219.927 159.781 219.786 159.44C219.646 159.099 219.425 158.758 219.145 158.477L217.099 160.523L219.145 162.568Z" fill="#434343"/>
<path d="M240.283 182.102C240.704 181.059 240.503 179.816 239.641 178.954C238.799 178.111 237.555 177.891 236.492 178.312C236.151 178.452 235.811 178.673 235.53 178.954L239.641 183.065C239.942 182.784 240.142 182.463 240.283 182.102Z" fill="#434343"/>
<path d="M260.158 199.47C259.035 198.347 257.19 198.347 256.066 199.47L258.112 201.516L260.158 199.47Z" fill="#434343"/>
<path d="M280.674 101.019C281.517 100.176 281.737 98.9328 281.316 97.8699C281.176 97.5289 280.955 97.188 280.674 96.9072L276.563 101.019C277.125 101.58 277.867 101.861 278.609 101.861C279.371 101.881 280.113 101.58 280.674 101.019Z" fill="#434343"/>
<path d="M276.583 117.424C275.44 118.567 275.44 120.392 276.583 121.535C277.726 122.678 279.551 122.678 280.694 121.535C281.817 120.412 281.817 118.567 280.694 117.424C279.551 116.301 277.706 116.301 276.583 117.424Z" fill="#434343"/>
<path d="M260.178 121.535C260.458 121.255 260.679 120.934 260.819 120.573C260.96 120.232 261.04 119.851 261.04 119.49C261.04 118.748 260.759 118.006 260.198 117.444L258.152 119.49L260.178 121.535Z" fill="#434343"/>
<path d="M281.316 141.089C281.737 140.046 281.537 138.803 280.674 137.941C279.832 137.098 278.589 136.878 277.526 137.299C277.185 137.439 276.844 137.66 276.563 137.941L280.674 142.052C280.955 141.771 281.176 141.43 281.316 141.089Z" fill="#434343"/>
<path d="M174.02 285.628C174.301 285.909 174.622 286.129 174.983 286.27C175.324 286.41 175.705 286.49 176.066 286.49C176.447 286.49 176.808 286.41 177.149 286.27C177.49 286.129 177.831 285.909 178.111 285.628L176.066 283.582L174.02 285.628Z" fill="#434343"/>
<path d="M215.033 244.595C215.314 244.875 215.635 245.096 215.996 245.236C217.039 245.658 218.282 245.457 219.145 244.595L217.099 242.549L215.033 244.595Z" fill="#434343"/>
<path d="M194.537 265.111C195.68 266.255 197.505 266.255 198.648 265.111C199.49 264.269 199.711 263.026 199.29 261.963C199.149 261.622 198.929 261.281 198.648 261L194.537 265.111Z" fill="#434343"/>
<path d="M219.144 265.111C220.268 263.988 220.268 262.143 219.144 261C218.021 259.877 216.176 259.857 215.033 261C213.89 262.143 213.89 263.968 215.033 265.111C216.176 266.254 218.001 266.254 219.144 265.111Z" fill="#434343"/>
<path d="M195.82 280.815C195.62 280.875 195.439 280.935 195.259 281.035C195.439 280.975 195.62 280.895 195.82 280.815Z" fill="#434343"/>
<path d="M176.066 283.582L178.111 285.628C178.392 285.347 178.613 285.026 178.753 284.665C179.174 283.622 178.974 282.379 178.111 281.517L176.066 283.582Z" fill="#434343"/>
<path d="M256.066 203.582C257.21 204.725 259.035 204.725 260.178 203.582L258.132 201.536L256.066 203.582Z" fill="#434343"/>
<path d="M239.661 224.098C240.784 222.975 240.804 221.13 239.661 219.987L235.55 224.098C236.693 225.221 238.518 225.221 239.661 224.098Z" fill="#434343"/>
<path d="M256.066 219.987C254.923 221.13 254.923 222.955 256.066 224.098C257.21 225.241 259.035 225.241 260.178 224.098C261.301 222.975 261.301 221.13 260.178 219.987C259.035 218.864 257.189 218.864 256.066 219.987Z" fill="#434343"/>
<path d="M235.55 240.503C234.407 241.647 234.407 243.472 235.55 244.615C236.693 245.758 238.518 245.758 239.661 244.615C240.784 243.492 240.784 241.647 239.661 240.503C238.518 239.36 236.693 239.36 235.55 240.503Z" fill="#434343"/>
<path d="M219.786 241.466C219.646 241.125 219.425 240.784 219.145 240.503L217.099 242.549L219.145 244.595C219.987 243.752 220.207 242.509 219.786 241.466Z" fill="#434343"/>
<path d="M280.674 183.065C280.955 182.784 281.176 182.463 281.316 182.102C281.737 181.059 281.537 179.816 280.674 178.954L276.563 183.065C276.844 183.346 277.165 183.566 277.526 183.707C278.589 184.128 279.832 183.927 280.674 183.065Z" fill="#434343"/>
<path d="M276.583 199.47C275.44 200.613 275.44 202.439 276.583 203.582C276.824 203.822 277.104 203.983 277.405 204.123C278.187 202.378 278.929 200.613 279.651 198.829C278.609 198.448 277.405 198.648 276.583 199.47Z" fill="#434343"/>
<path d="M260.158 203.582C260.719 203.02 261 202.278 261 201.536C261 200.794 260.719 200.052 260.158 199.49L258.112 201.536L260.158 203.582Z" fill="#434343"/>
</g>
<defs>
<clipPath id="clip0">
<rect width="290" height="290" fill="white"/>
</clipPath>
</defs>
</svg>
