<svg width="54" height="54" viewBox="0 0 54 54" fill="none" xmlns="http://www.w3.org/2000/svg">
<circle cx="27" cy="27" r="27" fill="#F7C408"/>

<svg
x="13"
y="12">
<path transform="scale(.7, .7)"  d="M35.72 13.4579C36.8057 13.4579 37.6743 12.6168 37.6743 11.5654V1.99766C37.6743 0.946261 36.8057 0.10514 35.72 0.10514C34.6343 0.10514 33.7657 0.946261 33.7657 1.99766V9.6729H29.3143V1.99766C29.3143 0.946261 28.4457 0.10514 27.36 0.10514C26.2743 0.10514 25.4057 0.946261 25.4057 1.99766V9.6729H20.9543V1.99766C20.9543 0.946261 20.0857 0.10514 19 0.10514C17.9143 0.10514 16.72 0.841121 16.72 1.89252V9.56776H12.2686V1.89252C12.2686 0.841121 11.4 0 10.3143 0C9.22857 0 8.36 0.841121 8.36 1.89252V9.56776H3.90857V1.89252C3.90857 0.841121 3.04 0 1.95429 0C0.868571 0 0 0.841121 0 1.89252V26.6005C0 36.6939 8.46857 45 19 45C29.5314 45 38 36.7991 38 26.6005V21.1332C38 19.2407 36.3714 17.6635 34.4171 17.6635H16.72V40.8995C15.0914 40.6893 13.5714 40.2687 12.2686 39.5327V13.2477H35.72V13.4579ZM20.7371 21.5537H33.7657V26.6005C33.7657 33.9603 28.12 40.0584 20.7371 41.0047V21.5537ZM8.25143 36.9042C5.53714 34.2757 3.8 30.5958 3.8 26.6005V13.4579H8.25143V36.9042Z" fill="#030509"/>
</svg></svg>
