<svg width="21" height="20" viewBox="0 0 21 20" fill="none" xmlns="http://www.w3.org/2000/svg">
<path fill-rule="evenodd" clip-rule="evenodd" d="M10.4868 6.57e-05C7.99702 -0.00251937 5.58769 0.862709 3.69071 2.44065C1.79373 4.01859 0.533134 6.20607 0.134894 8.61097C-0.263345 11.0159 0.226812 13.4809 1.5175 15.5643C2.80819 17.6476 4.81502 19.2131 7.17824 19.9799C7.70203 20.0739 7.89408 19.7578 7.89408 19.4845C7.89408 19.2111 7.89408 18.6303 7.89408 17.7761C4.97835 18.3911 4.40219 16.4008 4.40219 16.4008C4.20883 15.7812 3.79751 15.2486 3.24114 14.8974C2.2896 14.2653 3.31098 14.2738 3.31098 14.2738C3.64297 14.3206 3.95988 14.4401 4.23802 14.6235C4.51616 14.8069 4.74836 15.0495 4.91725 15.333C5.05937 15.5855 5.25108 15.8079 5.48136 15.9876C5.71164 16.1673 5.97594 16.3006 6.25907 16.38C6.5422 16.4594 6.83858 16.4832 7.13116 16.4501C7.42374 16.4171 7.70675 16.3277 7.96392 16.1873C8.01205 15.6665 8.2471 15.1793 8.62738 14.812C6.30527 14.5557 3.85222 13.6759 3.85222 9.74655C3.83738 8.72747 4.22517 7.74213 4.93471 6.99601C4.59259 6.11505 4.61135 5.13884 4.98708 4.27109C4.98708 4.27109 5.86006 3.9892 7.86789 5.32176C9.58123 4.85477 11.3924 4.85477 13.1057 5.32176C15.1136 3.97212 15.9865 4.27109 15.9865 4.27109C16.3746 5.12725 16.4121 6.0965 16.0913 6.97892C16.7977 7.72637 17.1823 8.71156 17.1651 9.72946C17.1651 13.6673 14.7207 14.5386 12.3899 14.7864C12.6385 15.0338 12.8309 15.33 12.9542 15.6553C13.0776 15.9807 13.1292 16.3279 13.1057 16.6742C13.1057 18.0409 13.1057 19.1428 13.1057 19.4845C13.1057 19.8262 13.2891 20.0739 13.8216 19.9799C16.187 19.2124 18.1953 17.6449 19.4858 15.5588C20.7764 13.4728 21.2647 11.0049 20.863 8.59827C20.4613 6.19166 19.196 4.00399 17.2942 2.4281C15.3925 0.852212 12.9789 -0.00866094 10.4868 6.57e-05Z" fill="#6F6F6F"/>
</svg>
