<svg width="414" height="588" viewBox="0 0 414 588" fill="none" xmlns="http://www.w3.org/2000/svg">
<path d="M-409.923 231.272C-387.03 249.703 -362.841 268.728 -333.953 274.079C-298.027 280.713 -258.671 265.336 -225.515 280.673C-220.49 282.997 -215.642 286.091 -212.468 290.631C-202.717 304.508 -211.739 325.871 -201.623 339.478C-194.519 349.018 -180.946 350.612 -169.074 349.95C-157.202 349.288 -144.628 347.315 -133.918 352.477C-119.076 359.625 -113.376 377.488 -102.652 389.987C-90.1596 404.54 -71.2245 411.377 -54.0451 419.917C-36.8793 428.456 -19.4164 441.185 -15.6617 459.994C-13.852 469.101 -15.5267 478.533 -14.6893 487.775C-12.8255 508.098 0.990923 525.393 16.4821 538.662C31.9732 551.945 49.7198 562.619 63.8739 577.307C78.0279 591.995 88.5219 612.372 84.5782 632.397C81.5529 647.733 70.7348 660.191 60.2138 671.758C37.6997 696.485 13.2677 721.632 -18.5249 731.969C-40.2963 739.049 -63.8504 738.563 -85.9593 744.535C-108.055 750.494 -130.447 766.182 -132.757 788.963M-207.998 -82.7259C-199.854 -63.7276 -187.01 -46.7697 -170.924 -33.798C-156.662 -22.299 -140.063 -13.989 -125.693 -2.62521C-111.323 8.7386 -98.7898 24.4398 -97.6013 42.7354C-97.1556 49.6402 -98.3441 56.599 -97.4662 63.4497C-94.1033 89.9473 -63.148 103.77 -52.2353 128.146C-40.9445 153.347 -53.4914 183.601 -45.5499 210.058C-39.6074 229.813 -22.4146 247.487 -26.2097 267.769C-29.0054 282.727 -41.9709 292.982 -47.2112 306.914C-50.7497 316.332 -50.5876 342.626 -33.1111 330.992C-29.6131 328.668 -27.2226 325.02 -25.2238 321.318C-19.97 311.589 -16.5666 301.901 -4.54641 299.036C3.48953 297.117 11.8901 298.414 20.1017 299.279C42.1026 301.603 66.5481 294.063 80.4455 276.038C92.3846 260.553 95.9772 238.677 111.563 226.867C122.327 218.719 136.657 217.165 148.596 210.882C186.479 190.965 185.696 144.24 193.165 108.202C200.12 74.5838 246.418 67.1791 264.543 41.4518C272.538 30.088 273.862 14.8732 270.121 1.49603C266.38 -11.8946 258.047 -23.6233 248.255 -33.4737M812.135 -88.2794C784.313 -95.2787 755.208 -77.9966 738.272 -54.8366C721.336 -31.663 713.394 -3.35487 703.103 23.4399C692.811 50.2347 678.63 77.3944 654.117 92.3119C647.459 96.3656 640.166 99.4193 634.007 104.216C628.632 108.405 624.256 113.823 618.597 117.607C603.659 127.579 583.158 123.863 567.464 115.107C551.77 106.365 538.913 93.2848 523.719 83.7046C504.554 71.6246 481.756 65.3685 459.107 66.0035C447.357 66.3278 435.242 68.6384 425.68 75.4756C416.118 82.3128 409.703 94.4468 412.201 105.932C416.01 123.404 438.376 136.443 433.068 153.509C429.502 164.967 415.443 169.048 407.502 178.047C392.861 194.627 403.45 221.273 418.711 237.285C433.959 253.297 454.097 266.579 460.714 287.686C468.858 313.67 453.381 340.6 438.565 363.449C432.906 372.178 426.747 381.353 417.28 385.69C404.692 391.46 389.674 387.028 377.829 379.866C365.985 372.705 355.747 362.935 343.322 356.828C334.057 352.274 320.16 351.463 315.986 360.922C313.231 367.178 316.878 374.772 322.456 378.718C328.034 382.663 335.057 383.852 341.809 384.933C377.951 390.757 417.077 398.473 441.09 426.119C462.389 450.657 489.563 435.415 511.239 416.511C531.485 398.851 541.83 360.773 573.879 360.976C589.668 361.071 605.429 372.016 620.96 375.745C633.669 378.799 646.648 381.704 657.953 388.257C669.257 394.811 678.833 405.796 680.143 418.809C682.277 439.82 659.587 475.695 646.068 490.937C632.116 506.665 612.33 516.894 614.289 541.108C614.923 548.932 619.866 552.877 623.31 559.633C627.2 567.295 628.902 575.915 632.589 583.672C648.782 617.776 685.045 638.288 675.078 681.298C666.461 718.483 629.523 737.211 606.86 764.79M70.9644 757.412C74.8 731.509 88.6704 703.228 114.277 697.756C133.996 693.54 154.255 704.35 174.27 701.85C195.771 699.161 212.1 682.122 228.577 668.056C245.067 654.003 267.541 641.599 287.503 650.017C299.131 654.922 308.058 666.367 320.619 667.623C327.696 668.326 334.624 665.583 341.094 662.624C350.98 658.111 360.758 652.962 371.428 650.936C382.111 648.922 394.171 650.598 401.91 658.219C415.051 671.177 409.933 692.905 412.296 711.214C414.484 728.145 424.303 743.94 438.511 753.399M174.257 664.988C169.206 664.988 164.181 664.069 159.724 662.313C144.53 656.354 131.997 641.166 127 622.695C124.798 614.574 123.758 605.656 122.651 596.224C120.22 575.497 117.451 551.999 100.366 535.027C91.7228 526.447 81.0397 521.448 71.6261 517.043C64.1439 513.543 57.0669 510.232 51.7997 505.638C39.9821 495.328 36.6056 479.992 32.7024 462.237C30.3659 451.589 27.9485 440.59 23.4105 430.091C18.6295 419.038 11.4039 410.647 5.02912 403.242C-5.24878 391.311 -11.0428 383.92 -10.489 370.867C-9.80024 354.49 1.88227 338.573 17.2924 333.006C25.828 329.925 35.7818 329.411 46.3028 328.871C60.646 328.141 75.4888 327.385 89.6834 320.237C108.754 310.643 119.95 292.645 129.836 276.754C131.011 274.862 132.186 272.971 133.375 271.106C141.167 258.81 151.513 251.905 163.479 243.919C173.824 237.015 184.521 229.88 194.205 218.746C215.584 194.181 224.566 166.197 220.176 137.821C219.947 136.321 219.69 134.821 219.42 133.308C218.407 127.484 217.448 121.985 218.785 118.593C219.515 116.769 222.081 110.797 224.714 110.797C231.13 110.797 245.459 122.471 258.33 142.023C265.407 152.779 268.757 161.008 269.283 163.927C273.781 188.965 267.676 215.557 261.126 238.271C258.573 247.135 256.507 256.783 254.305 267.012C247.944 296.712 240.732 330.384 220.082 345.072C212.816 350.234 203.456 353.112 193.543 356.152C183.562 359.219 173.23 362.395 163.493 368.246C146.57 378.42 134.536 395.757 130.12 414.93C127.905 424.538 127.216 435.348 129.485 445.022C132.173 456.481 133.442 469.534 128.702 481.1C123.097 494.788 111.59 501.774 111.05 517.853C110.469 535.136 118.41 552.107 130.876 563.849C144.287 576.483 162.844 584.469 187.587 588.252C191.409 588.833 195.231 589.306 198.918 589.766C208.102 590.914 216.786 591.995 224.687 594.576C235.154 598.008 242.947 604.305 245.54 611.412C246.742 614.723 246.418 619.033 244.716 622.398C244.082 623.641 242.677 625.83 240.448 626.465C239.409 626.762 237.815 626.938 236.14 627.141C232.615 627.546 228.212 628.046 223.647 630.059C214.598 634.045 209.817 641.531 205.968 647.53C204.996 649.057 204.077 650.49 203.186 651.719C197.135 660.043 186.331 664.988 174.257 664.988ZM340.986 627.154C333.679 627.154 324.86 621.195 319.511 612.655C314.406 604.48 311.462 594.589 308.369 584.117C307.086 579.78 305.749 575.28 304.223 570.821C296.484 548.107 284.639 532.974 269.04 525.866C261.747 522.542 253.657 520.921 244.311 520.921C235.911 520.921 227.713 522.204 219.785 523.447C215.976 524.042 212.37 524.609 208.858 525.015C206.779 525.258 204.645 525.38 202.524 525.38C192.719 525.38 180.402 522.569 177.93 514.637C176.539 510.151 178.052 503.841 182.711 494.761C183.778 492.667 184.913 490.572 186.034 488.478C192.057 477.276 198.864 464.588 199.296 449.671C199.418 445.455 198.999 441.442 198.621 437.901C198.229 434.077 197.851 430.47 198.27 427.646C199.499 419.498 210.344 410.08 228.712 407.85C231.373 407.526 233.993 407.201 236.545 406.877C247.62 405.472 257.196 404.269 265.664 404.269C282.587 404.269 293.459 408.526 302.494 430.97C304.993 437.185 307.032 443.644 309.193 450.481C312.178 459.94 315.257 469.736 319.781 479.262C331.748 504.517 353.735 527.069 383.353 544.5C385.433 545.729 387.567 546.932 389.687 548.148C400.654 554.391 411.013 560.282 416.334 568.997C418.914 573.213 419.346 579.861 417.361 584.482C415.97 587.712 414.268 588.063 413.701 588.185C413.106 588.306 412.283 588.374 411.189 588.374C410.122 588.374 409.041 588.32 407.961 588.279C406.57 588.225 405.125 588.158 403.558 588.158C401.843 588.158 400.289 588.239 398.804 588.401C382.192 590.198 371.806 601.656 362.635 611.777C356.45 618.601 350.615 625.033 344.375 626.722C343.295 627.005 342.147 627.154 340.986 627.154ZM726.035 738.184C724.091 737.13 723.037 733.968 722.713 732.131C721.673 726.077 725.158 720.132 724.172 714.065C722.159 701.701 714.61 691.108 710.936 679.257C710.409 677.541 709.91 675.785 709.95 673.988C709.991 672.19 710.625 670.339 712.003 669.191C717.257 664.826 722.267 673.758 724.482 677.122C728.548 683.311 734.585 688.013 741.121 691.527C747.051 694.702 753.452 696.35 759.543 699.066C763.744 700.944 765.243 705.376 760.327 707.687C754.438 710.471 749.238 713.024 744.417 717.497C742.215 719.537 740.163 721.753 738.312 724.118C736.57 726.348 735.301 729.699 733.356 731.644C732.262 733.658 730.29 738.387 727.535 738.536C726.994 738.549 726.495 738.427 726.035 738.184ZM-268.166 719.402C-271.326 719.537 -274.541 719.51 -277.823 719.308C-287.169 718.713 -297.244 716.227 -302.957 708.795C-307.846 702.444 -308.494 693.648 -306.738 685.811C-304.996 677.987 -301.147 670.826 -297.676 663.583C-261.98 588.941 -267.639 496.045 -312.1 426.281C-314.977 421.768 -318.043 417.268 -319.515 412.12C-320.987 406.985 -320.609 400.972 -317.111 396.932C-301.687 379.137 -289.586 415.403 -282.333 422.997C-267.18 438.874 -243.815 450.333 -221.652 449.535C-207.309 449.022 -191.656 447.657 -179.865 455.859C-170.06 462.683 -164.968 474.911 -154.947 481.411C-145.668 487.424 -133.648 487.559 -123.992 492.937C-111.674 499.814 -107.785 512.232 -102.693 524.393C-96.8855 538.257 -87.418 550.891 -79.3955 563.66C-77.1401 567.254 -74.8036 571.524 -76.2487 575.497C-79.7737 585.131 -97.3447 582.55 -105.057 584.631C-117.819 588.063 -129.394 595.481 -138.889 604.548C-153.218 618.236 -163.442 635.545 -173.855 652.408C-195.113 686.851 -226.447 717.592 -268.166 719.402ZM10.9852 235.109C9.45907 235.353 7.89237 235.353 6.32569 235.055C-6.19417 232.677 -11.745 214.909 -12.1772 204.004C-12.4473 197.14 -11.5154 189.56 -10.4349 180.777C-9.61108 174.047 -8.76024 167.075 -8.36857 159.616C-7.51771 143.361 -9.27349 126.66 -15.7833 111.607C-22.9413 95.0549 -36.5957 86.6638 -48.1161 74.0163C-50.7902 71.0706 -52.7756 67.3007 -52.7891 63.3146C-52.8026 57.5313 -48.9535 52.7074 -48.2782 47.0863C-47.5624 41.1545 -48.5348 33.9524 -49.4667 28.0881C-51.8707 13.103 -59.2854 -0.409228 -69.8199 -11.219C-86.5806 -28.4336 -108.987 -36.8518 -129.056 -49.2425C-133.365 -51.9044 -138.078 -55.4311 -138.335 -60.4982C-138.524 -64.2141 -136.093 -67.6732 -133 -69.7271C-123.938 -75.7536 -110.148 -77.3615 -99.5731 -77.3615C-92.8202 -77.3615 -86.3104 -76.5238 -81.7185 -75.0509C-70.4006 -71.4296 -59.7716 -65.2816 -50.9793 -57.2553C-46.6575 -53.3097 -42.1465 -48.2426 -37.3655 -42.8783C-25.5074 -29.5687 -12.0692 -14.489 7.9194 -4.96286C22.2625 1.87434 36.187 3.38772 47.3563 4.60382C55.1761 5.4551 61.929 6.18475 66.3589 8.48183C85.7127 18.5079 100.394 43.5326 90.5073 63.3956C89.7644 64.882 88.765 66.6791 87.6981 68.5708C82.6334 77.6105 75.7049 89.9608 75.4888 106.351C75.3268 118.336 79.0544 129.349 84.9834 139.618C86.9688 143.064 88.8731 147.131 91.6417 150.023C95.4639 154.022 100.556 156.009 103.689 160.846C107.025 166.021 107.362 173.696 102.73 177.763C98.7323 181.263 92.8168 180.939 87.509 181.047C66.0483 181.52 45.1548 193.302 33.6344 211.409C30.1769 216.841 27.4893 222.827 23.262 227.678C20.0746 231.38 15.6717 234.38 10.9852 235.109ZM399.506 352.707C396.359 351.761 394.063 348.383 391.497 345.356C386.027 338.911 380.368 332.573 373.535 327.52C363.81 320.318 355.45 318.845 343.687 317.237C340.851 316.845 337.758 316.332 335.853 314.197C333.49 311.548 333.936 307.265 335.894 304.306C339.716 298.536 344.105 296.577 346.888 289.767C350.291 281.416 351.844 272.768 351.615 263.755C351.115 245.338 344.132 227.826 339 210.368C334.746 195.91 336.137 180.966 339.446 173.291C340.769 170.21 344.362 165.67 347.833 161.278C353.532 154.063 355.599 143.861 360.515 136.051C364.526 129.687 372.454 125.012 377.465 132.984C382.732 141.361 375.52 149.523 371.103 156.13C362.554 168.913 359.151 184.83 358.881 206.382C358.638 226.164 364.918 248.851 379.207 263.255C391.592 275.741 404.328 288.51 410.27 305.481C414.214 316.723 418.59 343.491 406.165 351.342C403.49 352.99 401.356 353.261 399.506 352.707ZM523.071 258.932C510.132 255.824 507.458 239.298 498.787 230.434C491.359 222.84 477.394 216.584 475.733 205.315C473.734 191.776 490.252 178.709 490.224 162.913C490.211 154.995 492.048 145.469 499.449 142.659C510.281 138.551 528.378 155.455 539.318 158.211C544.045 159.4 548.732 160.468 553.256 161.508C568.328 164.967 581.281 167.94 591.761 173.642C605.415 181.047 631.36 212.544 621.555 228.88C617.746 235.231 610.169 238.555 602.782 239.123C586.129 240.379 575.568 237.488 558.928 243.541C548.029 247.5 537.441 260.877 524.961 259.283C524.327 259.202 523.692 259.08 523.071 258.932ZM-95.0217 311.751C-98.4387 311.751 -104.125 307.062 -109.108 296.563C-111.431 291.672 -113.363 285.956 -115.415 279.903C-118.198 271.687 -121.061 263.201 -125.531 254.472C-139.145 227.867 -164.522 207.436 -193.411 199.829C-199.813 198.14 -206.606 197.289 -213.589 197.289C-226.73 197.289 -238.642 200.221 -249.15 202.815C-256.834 204.707 -264.087 206.504 -269.57 206.504C-273.555 206.504 -276.026 205.585 -278.997 202.977C-287.803 195.275 -293.003 183.709 -292.895 172.007V171.669C-292.895 162.67 -285.575 153.563 -272.636 138.227C-255.754 118.201 -245.098 101.527 -238.115 84.1235C-234.969 76.2728 -233.578 67.8817 -232.24 59.7474C-230.107 46.7621 -228.081 34.493 -219.126 26.5072C-213.819 21.7779 -202.109 16.873 -191.71 16.873C-187.469 16.873 -183.944 17.7242 -181.513 19.3187C-175.449 23.3183 -174.8 31.3311 -174.503 43.1273C-174.463 44.7623 -174.422 46.3702 -174.355 47.9241C-173.693 62.8687 -172.95 79.786 -165.589 95.1495C-158.445 110.067 -147.303 119.701 -137.484 128.2C-131.528 133.349 -125.909 138.213 -123.195 142.767C-117.09 153.022 -115.861 166.291 -114.43 181.668C-112.539 202.072 -110.391 225.191 -96.2237 247.757C-95.8861 248.284 -95.5079 248.892 -95.1162 249.5C-87.7286 260.958 -84.3521 280.403 -86.9047 296.793C-88.3904 306.373 -91.6317 310.738 -93.9547 311.575C-94.2924 311.697 -94.6436 311.751 -95.0217 311.751ZM736.962 322.52C727.157 322.52 716.946 313.913 714.205 303.346C712.597 297.158 712.813 290.28 713.056 282.997C713.408 272.092 713.786 260.823 707.965 250.473C704.737 244.73 700.212 240.487 695.837 236.38C692.717 233.447 689.786 230.691 687.571 227.61C680.751 218.125 680.291 205.369 679.792 191.857C679.711 189.614 679.63 187.398 679.522 185.195C678.32 161.508 670.297 145.347 656.305 138.47C655.535 138.091 654.739 137.74 653.942 137.389C652.483 136.754 651.119 136.146 650.43 135.497C650.228 135.308 649.62 134.727 649.674 133.105C649.755 130.822 651.105 128.16 652.969 126.62C656.265 123.904 660.938 122.512 665.894 121.025C667.542 120.539 669.176 120.039 670.783 119.499C691.245 112.648 708.748 96.8115 717.608 77.1241C721.146 69.314 721.943 57.8827 722.794 45.7757C724.699 18.8322 727.089 1.15821 742.54 1.15821C744.43 1.15821 746.524 1.40143 748.779 1.87436C762.272 4.72544 776.237 7.67112 787.608 14.9677C797.994 21.6158 806.949 32.304 815.808 48.5997C825.046 65.5711 832.758 85.1234 840.092 110.135C843.59 122.066 847.29 135.929 846.926 149.712C846.561 163.508 841.767 175.791 833.744 183.425C826.883 189.951 817.497 193.681 807.57 197.626C795.172 202.545 782.355 207.639 773.481 218.787C761.502 233.826 761.772 253.729 762.015 271.295C762.055 274.552 762.096 277.619 762.069 280.673C761.907 299.144 755.127 319.129 740.325 322.155C739.244 322.399 738.11 322.52 736.962 322.52ZM709.802 575.01C706.628 574.172 706.655 566.443 705.075 562.755C702.981 557.863 700.145 553.283 696.66 549.256C689.637 541.149 679.994 535.5 669.325 533.933C667.204 533.622 664.746 533.271 663.625 531.447C662.315 529.339 663.598 526.609 664.935 524.515C672.985 511.868 683.33 500.882 693.203 489.613C703.076 478.344 712.665 466.52 718.769 452.832C724.888 439.145 727.251 423.241 722.362 409.066C720.444 403.486 717.459 398.324 715.677 392.703C710.18 375.407 724.631 376.826 737.218 374.583C741.864 373.759 747.172 373.07 750.873 376.002C753.831 378.339 754.884 382.447 754.533 386.19C754.168 389.933 752.615 393.446 751.156 396.905C737.961 428.078 730.655 461.724 729.736 495.558C729.344 510.124 730.114 524.799 727.886 539.216C726.738 546.648 725.009 554.12 721.943 561.012C720.107 565.133 717.216 570.943 713.556 573.7C711.935 574.902 710.734 575.253 709.802 575.01ZM356.004 754.845C343.444 753.44 330.802 753.494 318.809 748.062C305.074 741.833 291.041 736.036 276.306 732.617C257.412 728.239 237.018 727.969 219.15 735.509C215.936 736.86 212.775 738.468 209.331 738.968C197.068 740.725 201.727 731.036 208.629 727.564C215.503 724.091 224.12 723.348 229.779 717.7C234.546 712.943 238.652 707.917 242.623 703.052C246.796 697.931 251.483 689.81 257.398 686.811C265.083 682.919 276.225 685.622 283.694 688.581C293.472 692.445 302.305 698.499 312.191 702.093C330.438 708.727 351.79 706.16 367.943 695.391C369.82 694.134 371.711 692.742 373.926 692.297C376.141 691.851 378.815 692.688 379.653 694.783C380.22 696.202 379.842 697.796 379.463 699.282C377.1 708.363 371.954 718.835 375.641 727.874C378.599 735.144 387.756 743.603 383.029 751.994C379.666 758.061 372.846 757.98 366.944 756.629C363.324 755.791 359.678 755.25 356.004 754.845Z" stroke="#997800" stroke-width="0.5" stroke-miterlimit="10"/>
</svg>
