<svg width="163" height="35" viewBox="0 0 163 35" fill="none" xmlns="http://www.w3.org/2000/svg">
<path d="M39.2747 27.207V25.1562C39.2747 24.6777 39.6168 24.3359 40.0957 24.3359H41.601C42.08 24.3359 42.4221 23.9941 42.4221 23.5156V10.5273C42.4221 10.0488 42.08 9.70703 41.601 9.70703H40.0957C39.6168 9.70703 39.2747 9.36523 39.2747 8.88672V6.83594C39.2747 6.35742 39.6168 6.01562 40.0957 6.01562H58.1594C58.6383 6.01562 58.9804 6.35742 58.9804 6.83594V11.9629C58.9804 12.4414 58.6383 12.7832 58.1594 12.7832H55.6277C55.1488 12.7832 54.8067 12.4414 54.8067 11.9629V10.5273C54.8067 10.0488 54.4645 9.70703 53.9856 9.70703H48.9907C48.5117 9.70703 48.1696 10.0488 48.1696 10.5273V13.9453C48.1696 14.4238 48.5117 14.7656 48.9907 14.7656H52.0697C52.5487 14.7656 52.8908 15.1074 52.8908 15.5859V17.6367C52.8908 18.1152 52.5487 18.457 52.0697 18.457H48.9907C48.5117 18.457 48.1696 18.7988 48.1696 19.2773V23.3789C48.1696 23.8574 48.5117 24.1992 48.9907 24.1992H50.7013C51.1802 24.1992 51.5224 24.541 51.5224 25.0195V27.0703C51.5224 27.5488 51.1802 27.8906 50.7013 27.8906H40.0957C39.6168 28.0273 39.2747 27.6172 39.2747 27.207Z" fill="#F7C408"/>
<path d="M64.7279 28.3691C62.47 28.3691 60.5542 27.6855 58.9804 26.25C57.4067 24.8145 56.6541 22.832 56.6541 20.3711C56.6541 17.9102 57.4067 15.9277 58.9804 14.4922C60.5542 13.0566 62.47 12.373 64.7279 12.373C66.9859 12.373 68.9017 13.0566 70.4755 14.4922C72.0492 15.9277 72.8018 17.9102 72.8018 20.3711C72.8018 22.832 72.0492 24.8145 70.4755 26.25C68.9702 27.6172 67.0543 28.3691 64.7279 28.3691ZM64.7279 24.541C65.6174 24.541 66.3701 24.1992 66.9175 23.5156C67.4649 22.832 67.7386 21.7383 67.7386 20.2344C67.7386 18.9355 67.4649 17.9102 66.9175 17.1582C66.3701 16.4062 65.6859 16.0645 64.7279 16.0645C62.6753 16.0645 61.7173 17.5 61.7173 20.4395C61.7173 21.6016 61.991 22.627 62.47 23.3789C62.949 24.1309 63.7016 24.541 64.7279 24.541Z" fill="#F7C408"/>
<path d="M85.0496 25.293V27.1387C85.0496 27.6172 84.7075 27.959 84.2285 27.959H75.0598C74.5809 27.959 74.2388 27.6172 74.2388 27.1387V25.293C74.2388 24.8145 74.5809 24.4727 75.0598 24.4727H76.223C76.702 24.4727 77.0441 24.1309 77.0441 23.6523V17.0215C77.0441 16.543 76.702 16.2012 76.223 16.2012H75.2651C74.7862 16.2012 74.444 15.8594 74.444 15.3809V13.5352C74.444 13.0566 74.7862 12.7148 75.2651 12.7148H80.7389C81.2179 12.7148 81.56 13.0566 81.56 13.5352C81.56 14.2871 82.4495 14.6289 82.9969 14.082C83.1337 13.9453 83.2706 13.8086 83.4074 13.6719C84.3654 12.8516 85.5285 12.4414 86.897 12.4414C87.1023 12.4414 87.376 12.4414 87.7181 12.4414V16.2695C87.7181 16.6797 87.376 17.0898 86.9654 17.0898C86.0759 17.1582 85.3233 17.2949 84.7075 17.5C83.9548 17.7734 83.2706 18.3887 82.7916 19.2773C82.3127 20.166 82.039 21.3281 82.039 22.5586V23.584C82.039 24.0625 82.3811 24.4043 82.8601 24.4043H84.2285C84.7075 24.4727 85.0496 24.8145 85.0496 25.293Z" fill="#F7C408"/>
<path d="M89.3604 15.3809V13.5352C89.3604 13.0566 89.7025 12.7148 90.1814 12.7148H90.4551C90.9341 12.7148 91.2762 12.373 91.2762 11.8945V10.7324C91.2762 10.459 91.413 10.1855 91.6183 10.0488L94.8342 7.72461C95.3816 7.31445 96.1342 7.72461 96.1342 8.4082V11.8945C96.1342 12.373 96.4763 12.7148 96.9553 12.7148H98.1185C98.5974 12.7148 98.9395 13.0566 98.9395 13.5352V15.3809C98.9395 15.8594 98.5974 16.2012 98.1185 16.2012H96.9553C96.4763 16.2012 96.1342 16.543 96.1342 17.0215V22.832C96.1342 23.4473 96.2026 23.8574 96.3395 24.0625C96.4763 24.2676 96.8184 24.4043 97.3658 24.4043C97.5711 24.4043 97.7079 24.4043 97.9132 24.3359C98.3922 24.2676 98.8711 24.6094 98.8711 25.1562V26.8652C98.8711 27.207 98.6658 27.5488 98.3237 27.6172C97.229 28.0273 96.2026 28.1641 95.1763 28.1641C92.5078 28.1641 91.1393 26.8652 91.1393 24.1992V17.0215C91.1393 16.543 90.7972 16.2012 90.3183 16.2012H90.0446C89.7709 16.2012 89.3604 15.8594 89.3604 15.3809Z" fill="#F7C408"/>
<path d="M110.913 25.293V27.1387C110.913 27.6172 110.571 27.959 110.092 27.959H100.924C100.445 27.959 100.103 27.6172 100.103 27.1387V25.293C100.103 24.8145 100.445 24.4727 100.924 24.4727H102.087C102.566 24.4727 102.908 24.1309 102.908 23.6523V17.0215C102.908 16.543 102.566 16.2012 102.087 16.2012H101.06C100.581 16.2012 100.239 15.8594 100.239 15.3809V13.5352C100.239 13.0566 100.581 12.7148 101.06 12.7148H106.534C107.013 12.7148 107.355 13.0566 107.355 13.5352C107.355 14.2871 108.245 14.6289 108.792 14.082C108.929 13.9453 109.066 13.8086 109.203 13.6719C110.161 12.8516 111.324 12.4414 112.692 12.4414C112.898 12.4414 113.171 12.4414 113.513 12.4414V16.2695C113.513 16.6797 113.171 17.0898 112.761 17.0898C111.871 17.1582 111.119 17.2949 110.503 17.5C109.75 17.7734 109.066 18.3887 108.587 19.2773C108.108 20.2344 107.834 21.3281 107.834 22.5586V23.584C107.834 24.0625 108.176 24.4043 108.655 24.4043H110.024C110.571 24.4727 110.913 24.8145 110.913 25.293Z" fill="#F7C408"/>
<path d="M127.198 23.5156L129.456 24.1992C130.003 24.4043 130.209 25.0879 129.867 25.498C128.293 27.3437 126.035 28.3008 123.093 28.3008C120.356 28.3008 118.303 27.6172 116.729 26.1816C115.224 24.7461 114.471 22.9004 114.471 20.5762C114.471 18.1836 115.224 16.2695 116.798 14.6289C118.372 13.0566 120.356 12.2363 122.751 12.2363C124.53 12.2363 126.035 12.6465 127.266 13.5352C128.567 14.4238 129.456 15.5176 129.935 16.8164C130.346 17.9102 130.551 19.0723 130.688 20.3711C130.688 20.8496 130.346 21.2598 129.867 21.2598H120.219C119.672 21.2598 119.261 21.7383 119.398 22.2168C119.603 23.1055 120.014 23.7891 120.629 24.1992C121.451 24.8145 122.272 25.0879 123.161 25.0879C124.187 25.0879 125.282 24.6094 126.377 23.6523C126.582 23.5156 126.856 23.4473 127.198 23.5156ZM124.666 18.5938C125.282 18.5938 125.693 17.9785 125.419 17.4316C125.282 17.0215 125.009 16.6797 124.735 16.4062C124.187 15.791 123.435 15.5176 122.477 15.5176C121.04 15.5176 120.082 16.2012 119.603 17.5C119.398 18.0469 119.808 18.5938 120.356 18.5938H124.666Z" fill="#F7C408"/>
<path d="M133.014 27.207V23.584C133.014 23.1055 133.356 22.7637 133.835 22.7637H135.888C136.23 22.7637 136.572 23.0371 136.709 23.3789C136.846 23.7891 137.188 24.1992 137.598 24.4727C138.214 24.8828 139.035 25.0879 139.925 25.0879C140.746 25.0879 141.362 24.9512 141.772 24.6777C142.251 24.4043 142.456 24.0625 142.456 23.584C142.456 23.1738 142.251 22.9004 141.841 22.627C141.43 22.4219 140.609 22.2168 139.446 22.0117C136.983 21.6016 135.204 20.9863 134.04 20.166C132.946 19.3457 132.398 18.252 132.398 16.8848C132.398 15.5859 132.946 14.5605 133.972 13.6719C134.998 12.7832 136.367 12.373 138.077 12.373C139.446 12.373 140.746 12.6465 141.977 13.125V12.5781H144.646C145.125 12.5781 145.467 12.9199 145.467 13.3984V16.2012C145.467 16.6797 145.125 17.0215 144.646 17.0215H142.525C142.251 17.0215 141.977 16.8848 141.841 16.6113C141.362 15.791 140.335 15.3809 138.625 15.3809C137.188 15.3809 136.504 15.791 136.504 16.543C136.504 16.8164 136.64 17.0898 136.914 17.2266C137.188 17.3633 137.94 17.5684 139.172 17.7734C141.088 18.1152 142.456 18.457 143.414 18.7305C144.372 19.0723 145.125 19.6191 145.672 20.3711C146.22 21.123 146.493 22.0117 146.493 23.1055C146.493 24.6094 145.946 25.8398 144.851 26.7969C143.756 27.7539 142.251 28.2324 140.267 28.2324C138.419 28.2324 137.188 27.8906 136.504 27.1387V28.0273H133.767C133.425 28.0273 133.014 27.6172 133.014 27.207Z" fill="#F7C408"/>
<path d="M148.957 27.207V23.584C148.957 23.1055 149.299 22.7637 149.778 22.7637H151.83C152.172 22.7637 152.515 23.0371 152.651 23.3789C152.788 23.7891 153.13 24.1992 153.541 24.4727C154.157 24.8828 154.978 25.0879 155.867 25.0879C156.688 25.0879 157.304 24.9512 157.715 24.6777C158.194 24.4043 158.399 24.0625 158.399 23.584C158.399 23.1738 158.194 22.9004 157.783 22.627C157.373 22.4219 156.552 22.2168 155.388 22.0117C152.925 21.6016 151.146 20.9863 149.983 20.166C148.888 19.3457 148.341 18.252 148.341 16.8848C148.341 15.5859 148.888 14.5605 149.915 13.6719C150.941 12.7832 152.309 12.373 154.02 12.373C155.388 12.373 156.688 12.6465 157.92 13.125V12.5781H160.588C161.067 12.5781 161.41 12.9199 161.41 13.3984V16.2012C161.41 16.6797 161.067 17.0215 160.588 17.0215H158.467C158.194 17.0215 157.92 16.8848 157.783 16.6113C157.304 15.791 156.278 15.3809 154.567 15.3809C153.13 15.3809 152.446 15.791 152.446 16.543C152.446 16.8164 152.583 17.0898 152.857 17.2266C153.13 17.3633 153.883 17.5684 155.115 17.7734C157.031 18.1152 158.399 18.457 159.357 18.7305C160.315 19.0723 161.067 19.6191 161.615 20.3711C162.162 21.123 162.436 22.0117 162.436 23.1055C162.436 24.6094 161.889 25.8398 160.794 26.7969C159.699 27.7539 158.194 28.2324 156.209 28.2324C154.362 28.2324 153.13 27.8906 152.446 27.1387V28.0273H149.709C149.299 28.0273 148.957 27.6172 148.957 27.207Z" fill="#F7C408"/>
<path d="M27.0955 10.459C27.9165 10.459 28.6008 9.77539 28.6008 8.95508V1.50391C28.6008 0.683594 27.9165 0 27.0955 0C26.2744 0 25.5902 0.683594 25.5902 1.50391V7.45117H22.2374V1.50391C22.2374 0.683594 21.5532 0 20.7321 0C19.8426 0 19.1584 0.683594 19.1584 1.50391V7.45117H15.8057V1.50391C15.8057 0.683594 15.1215 0 14.3004 0C13.4793 0 12.7951 0.683594 12.7951 1.50391V7.45117H9.44236V1.50391C9.44236 0.683594 8.75813 0 7.93705 0C7.11598 0 6.36333 0.683594 6.36333 1.50391V7.45117H3.01061V1.50391C3.01061 0.683594 2.32638 0 1.5053 0C0.684229 0 0 0.683594 0 1.50391V20.7129C0 28.5742 6.43175 35 14.3004 35C22.169 35 28.6008 28.5742 28.6008 20.7129V16.4746C28.6008 14.9707 27.3692 13.8086 25.9323 13.8086H12.7951V31.9238C11.5635 31.7871 10.4687 31.377 9.44236 30.8984V10.459H27.0955ZM15.8057 16.8164H25.5902V20.7129C25.5902 26.4551 21.3479 31.1719 15.8057 31.9238V16.8164ZM6.36333 28.7109C4.31064 26.6602 3.01061 23.7891 3.01061 20.6445V10.3906H6.36333V28.7109Z" fill="#F7C408"/>
</svg>
