<svg width="22" height="22" viewBox="0 0 22 22" fill="none" xmlns="http://www.w3.org/2000/svg">
<path d="M16.692 11.0647L15.2274 11.9105V10.1865L13.6532 9.27763L15.2274 8.36879V3.45626L10.9731 1L6.71919 3.45626V8.36879L8.29312 9.27763L6.71919 10.1865V11.9105L5.25464 11.0647L1 13.5207V18.4332L5.25464 20.8897L9.50877 18.4332V16.7095L10.9731 17.5555L12.4373 16.7097V18.4335L16.6917 20.89L20.9456 18.4335V13.521L16.692 11.0647ZM20.1371 17.5002L17.0961 15.7443V12.2319L20.1371 13.9876V17.5002ZM14.4187 7.43524L11.3777 5.67933V2.167L14.4187 3.92317V7.43524ZM10.569 2.167V5.67933L7.52764 7.43524V3.92317L10.569 2.167ZM7.93175 8.13534L10.9731 6.37918L14.0146 8.13534L12.8443 8.81099L10.9731 7.73047L9.10184 8.81073L7.93175 8.13534ZM12.0361 9.27763L10.9731 9.89151L9.91029 9.27789L10.9731 8.66402L12.0361 9.27763ZM10.9731 10.8251L12.8445 9.74454L14.0149 10.4202L10.9731 12.1761L7.93175 10.4199L9.10184 9.74428L10.9731 10.8251ZM4.85028 12.2319V15.7443L1.80846 17.5002V13.9876L4.85028 12.2319ZM2.21333 18.2003L5.25464 16.4446L8.29544 18.2003L5.25464 19.9562L2.21333 18.2003ZM8.70031 17.5002L5.659 15.7443V12.2319L6.71919 12.8443V15.099L8.70031 16.2428V17.5002ZM8.70031 15.309L7.52764 14.6318V13.3104L8.70031 13.9876V15.309ZM7.52764 12.3771V11.12L10.569 12.8764V16.3883L9.50877 15.7757V13.5207L7.52764 12.3771ZM11.3774 16.3883V12.8767L14.4185 11.1203V12.3774L12.4373 13.521V15.7759L11.3774 16.3883ZM14.4187 13.3104V14.6318L13.2461 15.309V13.9876L14.4187 13.3104ZM15.2272 15.099V12.8443L16.2876 12.2319V15.7443L13.2461 17.5002V16.2428L15.2272 15.099ZM13.6507 18.2003L16.6917 16.4446L19.7328 18.2003L16.692 19.9562L13.6507 18.2003Z" fill="#F7C408" stroke="#F7C408" stroke-width="0.5"/>
</svg>
