<svg width="96" height="96" viewBox="0 0 96 96" fill="none" xmlns="http://www.w3.org/2000/svg">
<g clip-path="url(#clip0)">
<path d="M48.0709 96.1418C74.6197 96.1418 96.1418 74.6197 96.1418 48.0709C96.1418 21.5221 74.6197 0 48.0709 0C21.5221 0 0 21.5221 0 48.0709C0 74.6197 21.5221 96.1418 48.0709 96.1418Z" fill="#030509"/>
<path d="M60.9748 63.6691C60.9748 62.9601 60.6912 62.3929 60.2658 61.9675C59.8403 61.5421 58.9895 61.1167 57.8551 60.6913C56.2953 60.2659 55.1609 59.5569 54.4519 58.8479C53.7429 58.1389 53.4593 57.1462 53.4593 56.0118C53.4593 54.8774 53.7429 53.8848 54.4519 53.034C55.1609 52.325 56.1535 51.7578 57.2879 51.616V49.2053H58.8477V51.616C60.124 51.7578 60.9748 52.325 61.6838 53.1758C62.3928 54.0266 62.6764 55.161 62.6764 56.7208H60.6912C60.6912 55.7282 60.4076 54.8774 59.9821 54.3102C59.5567 53.743 58.8477 53.4594 57.9969 53.4594C57.1461 53.4594 56.4371 53.743 56.0117 54.1684C55.5863 54.5938 55.3027 55.3028 55.3027 56.0118C55.3027 56.7208 55.5863 57.288 56.0117 57.7134C56.4371 58.1389 57.2879 58.5643 58.4223 58.8479C59.5567 59.2733 60.4076 59.5569 60.9748 59.9823C61.542 60.4077 62.1092 60.9749 62.3928 61.5421C62.6764 62.1093 62.8182 62.8183 62.8182 63.5273C62.8182 64.8035 62.3928 65.7962 61.6838 66.5052C60.9748 67.2142 59.9821 67.6396 58.5641 67.7814V75.5805H57.0043V67.7814C55.8699 67.7814 54.8773 67.356 53.8847 66.3634C53.0338 65.6544 52.7502 64.3781 52.7502 62.9601H54.7355C54.7355 63.9527 55.0191 64.8035 55.5863 65.229C56.1535 65.7962 56.8625 66.0798 57.8551 66.0798C58.8477 66.0798 59.5567 65.7962 60.124 65.3708C60.6912 65.0872 60.9748 64.3781 60.9748 63.6691Z" fill="#F7C408" stroke="#F7C408" stroke-miterlimit="10"/>
<path d="M70.192 38.1447C71.61 38.1447 72.7444 37.0103 72.7444 35.5922V22.6883C72.7444 21.2702 71.61 20.1358 70.192 20.1358C68.7739 20.1358 67.6395 21.2702 67.6395 22.6883V33.0398H61.8256V22.6883C61.8256 21.2702 60.6912 20.1358 59.2732 20.1358C57.8552 20.1358 56.7208 21.2702 56.7208 22.6883V33.0398H50.9069V22.6883C50.9069 21.2702 49.7724 20.1358 48.3544 20.1358C46.9364 20.1358 45.3766 21.1284 45.3766 22.5465V32.898H39.5627V22.5465C39.5627 21.1284 38.4283 19.994 37.0103 19.994C35.5922 19.994 34.4578 21.1284 34.4578 22.5465V32.898H28.6439V22.5465C28.6439 21.1284 27.5095 19.994 26.0915 19.994C24.6735 19.994 23.5391 21.1284 23.5391 22.5465V55.8699C23.5391 69.483 34.5996 80.6853 48.3544 80.6853C62.1092 80.6853 73.1698 69.6248 73.1698 55.8699V48.4962C73.1698 45.9438 71.0428 43.8168 68.4903 43.8168H45.3766V75.155C43.2496 74.8714 41.2643 74.3042 39.5627 73.3116V37.8611H70.192V38.1447ZM50.6233 49.0634H67.6395V55.8699C67.6395 65.7961 60.2658 74.0206 50.6233 75.2968V49.0634ZM34.316 69.7666C30.771 66.2215 28.5021 61.2584 28.5021 55.8699V38.1447H34.316V69.7666Z" fill="#F7C408"/>
</g>
<defs>
<clipPath id="clip0">
<rect width="96" height="96" fill="white"/>
</clipPath>
</defs>
</svg>
