<svg width="25" height="20" viewBox="0 0 25 20" fill="none" xmlns="http://www.w3.org/2000/svg">
<path d="M25 2.36979C24.0782 2.77083 23.0928 3.04167 22.0545 3.16667C23.114 2.54167 23.9299 1.55208 24.3113 0.375C23.3206 0.953125 22.224 1.375 21.0532 1.59896C20.1155 0.614583 18.7805 0 17.3077 0C14.4734 0 12.1795 2.26042 12.1795 5.04687C12.1795 5.44271 12.2219 5.82812 12.3119 6.19792C8.04726 5.98958 4.26468 3.97917 1.73766 0.921875C1.29794 1.66667 1.04365 2.53646 1.04365 3.45833C1.04365 5.20833 1.95486 6.75521 3.33227 7.66146C2.48464 7.64062 1.68998 7.41146 1.00127 7.03125V7.09375C1.00127 9.54167 2.77071 11.5781 5.11761 12.0417C4.68849 12.1562 4.23289 12.2188 3.76669 12.2188C3.43823 12.2188 3.11507 12.1875 2.8025 12.125C3.45412 14.1302 5.35071 15.5885 7.59695 15.6302C5.8434 16.9844 3.62895 17.7917 1.22378 17.7917C0.810553 17.7917 0.402628 17.7656 0 17.7188C2.26213 19.1667 4.95868 20 7.85124 20C17.2971 20 22.4571 12.3073 22.4571 5.63542C22.4571 5.41667 22.4518 5.19792 22.4412 4.98437C23.4425 4.27083 24.3113 3.38542 25 2.36979Z" fill="#6F6F6F"/>
</svg>
