<svg width="207" height="55" viewBox="0 0 207 55" fill="none" xmlns="http://www.w3.org/2000/svg">
<path fill-rule="evenodd" clip-rule="evenodd" d="M78.5597 2.60568C78.445 3.24828 77.6145 9.18591 76.7138 15.8007C75.687 23.3401 74.8766 28.1324 74.5416 28.6438C73.894 29.6318 73.2269 29.8025 69.556 29.9193L66.7128 30.0099L65.8722 32.5059C65.4096 33.8784 65.0312 35.1468 65.0312 35.3243C65.0312 35.5054 67.3525 35.5928 70.3323 35.5238C75.3535 35.4073 75.7219 35.3487 77.3093 34.4157C80.264 32.6788 80.9691 30.742 82.2507 20.8452C82.6475 17.7813 83.3828 12.2016 83.8849 8.44591C84.3873 4.69019 84.7981 1.57708 84.7981 1.52748C84.7981 1.47788 83.4414 1.43763 81.7831 1.43763H78.7685L78.5597 2.60568ZM87.1461 1.88688C87.0663 2.13414 86.8345 3.62996 86.6311 5.21132C86.2717 8.00421 86.037 9.72358 83.7375 26.4159C83.1384 30.7646 82.6468 34.4441 82.645 34.5922C82.6432 34.7403 86.672 34.8618 91.5983 34.8618H100.555L100.744 33.8734C100.848 33.3296 101.038 32.0362 101.166 30.9982L101.398 29.1114H89.8297V28.0123C89.8297 26.9453 90.3976 22.571 90.7484 20.935C90.9191 20.1375 91.0006 20.1264 96.6439 20.1264C99.7912 20.1264 102.443 20.002 102.537 19.8496C102.631 19.6976 102.823 18.4038 102.964 16.9745L103.22 14.376H97.6244C94.5468 14.376 91.9523 14.2527 91.8593 14.1021C91.7662 13.9512 91.8823 12.3745 92.1177 10.598L92.5453 7.36772L104.152 7.17041L104.34 6.19104C104.443 5.6523 104.632 4.36242 104.76 3.32447L104.992 1.43763H96.1415C89.3783 1.43763 87.2571 1.54365 87.1461 1.88688ZM106.963 1.70718C106.875 1.85561 106.687 3.14945 106.546 4.58237L106.289 7.18802H109.74C113.157 7.18802 113.191 7.19664 113.191 8.06315C113.191 8.88151 111.854 18.9591 110.329 29.6479C109.962 32.2166 109.738 34.4402 109.83 34.5897C109.923 34.7392 111.28 34.8618 112.846 34.8618C115.51 34.8618 115.703 34.8096 115.858 34.0531C115.949 33.6085 116.524 29.5247 117.137 24.9783C117.749 20.4319 118.535 14.6096 118.882 12.0399L119.515 7.36772L126.43 7.16286L126.639 5.73784C126.754 4.95399 126.943 3.6659 127.059 2.87523L127.271 1.43763H117.197C111.656 1.43763 107.051 1.55875 106.963 1.70718ZM129.558 2.24628C129.335 3.25763 125.484 31.7095 125.338 33.4242L125.231 34.6821L128.167 34.7859C130.728 34.8765 131.129 34.8078 131.301 34.2468C131.409 33.8932 131.831 31.0162 132.238 27.8535C132.645 24.6908 133.067 21.6585 133.176 21.1147L133.374 20.1264H143.313L143.545 18.2395C143.673 17.2016 143.863 15.9081 143.967 15.3643L144.156 14.376H139.297C136.624 14.376 134.364 14.2545 134.274 14.1065C134.129 13.8653 134.383 11.6931 134.949 8.35606L135.147 7.18802H145.077L145.304 5.30117C145.428 4.26323 145.532 2.96975 145.533 2.42598L145.537 1.43763H129.737L129.558 2.24628ZM173.402 2.60568C173.292 3.24828 172.797 6.76572 172.302 10.4226C170.695 22.2853 169.601 30.3247 169.304 32.434C169.144 33.5697 169.096 34.5803 169.195 34.6803C169.489 34.9735 186.81 34.888 186.985 34.5922C187.073 34.4438 187.261 33.1499 187.402 31.717L187.659 29.1114H175.993L176.225 27.2245C176.353 26.1866 176.639 24.165 176.86 22.732L177.262 20.1264H188.953L189.194 17.8801C189.327 16.6449 189.515 15.351 189.613 15.0049C189.778 14.4245 189.342 14.376 183.965 14.376H178.139L178.367 11.9206C178.492 10.5703 178.698 8.95302 178.823 8.32659L179.051 7.18802H184.735C187.861 7.18802 190.491 7.0669 190.579 6.91847C190.667 6.77003 190.855 5.4762 190.996 4.04327L191.253 1.43763H173.602L173.402 2.60568ZM194.252 1.88688C194.101 2.37566 190.099 32.3143 189.99 33.7836L189.922 34.6821L205.928 34.8754L206.229 34.0599C206.395 33.6114 206.636 32.3143 206.765 31.1779L207 29.1114H196.931V28.0619C196.931 27.4847 197.248 24.7759 197.635 22.042C198.023 19.3084 198.751 14.0795 199.254 10.4226C199.757 6.76572 200.256 3.24828 200.363 2.60568L200.557 1.43763H197.475C195.323 1.43763 194.35 1.57312 194.252 1.88688ZM147.171 11.9501C145.4 25.0218 145.294 26.6552 146.051 29.2573C146.873 32.0875 149.027 34.2432 151.853 35.0648C154.774 35.9137 159.562 35.6603 161.73 34.5426C164.747 32.9868 166.12 31.1847 167.245 27.3036C167.821 25.3168 168.205 22.8391 169.805 10.782C170.291 7.12512 170.778 3.60768 170.887 2.96508L171.087 1.79703H168.022C165.137 1.79703 164.947 1.84411 164.779 2.60568C164.681 3.05025 163.94 8.18535 163.134 14.0166C161.343 26.9629 161.246 27.3755 159.678 28.7523C158.631 29.6713 158.158 29.8302 156.468 29.8302C154.317 29.8302 152.601 29.1451 152.017 28.0529C151.412 26.9237 151.573 24.7777 153.081 13.829C153.871 8.10089 154.518 3.05025 154.519 2.60568C154.522 1.83189 154.393 1.79703 151.534 1.79703H148.546L147.171 11.9501ZM22.2627 10.3788C22.2627 10.552 20.9688 17.0111 19.3875 24.7317C17.8061 32.4527 16.5123 39.0268 16.5123 39.3413C16.5123 39.8419 17.1477 39.9005 21.6193 39.8132L26.7268 39.7136L27.135 37.7369C28.7793 29.7845 32.6852 10.4632 32.6852 10.2842C32.6852 10.1628 30.3402 10.0632 27.474 10.0632C24.6078 10.0632 22.2627 10.2052 22.2627 10.3788ZM35.7754 16.8027C34.3503 23.6474 30.6906 40.8468 30.3463 42.3153L30.158 43.1197L1.61662 43.3076L0.818398 48.1595C0.379572 50.8281 0.0111872 53.2138 4.58665e-05 53.4607C-0.0157677 53.8147 4.05299 53.9099 19.201 53.9099H38.422L38.6049 53.1013C38.7055 52.6563 39.1997 50.3519 39.7025 47.9798C40.2057 45.6078 40.8443 42.6967 41.1218 41.5106C41.686 39.0991 43.3267 31.5125 44.6975 24.9783C45.1952 22.6062 46.0923 18.5112 46.691 15.8783C47.2902 13.2453 47.78 10.8596 47.78 10.5772C47.78 10.1549 46.8362 10.0632 42.4789 10.0639L37.1777 10.0646L35.7754 16.8027ZM4.72651 28.6765C3.49952 34.1695 2.49571 38.9449 2.49571 39.2881C2.49571 39.8574 2.96401 39.9038 7.78787 39.8132L13.08 39.7136L14.9651 30.549C16.0023 25.5084 16.9569 20.778 17.0866 20.0365L17.3231 18.6888H6.95694L4.72651 28.6765Z" fill="white"/>
<path d="M39.5139 0H50.2958L48.8582 7.90678H38.0763L39.5139 0Z" fill="white"/>
<path d="M47.1096 10.0632H61.4855L59.3291 20.1263H44.9532L47.1096 10.0632Z" fill="white"/>
<path d="M43.8267 28.0331H54.6086L52.4522 38.0963H41.6703L43.8267 28.0331Z" fill="white"/>
<path d="M72.4257 46.8781H65.809L64.5572 54.0647H62.456L65.2837 37.7914H75.0746L74.7616 39.5573H67.072L66.1108 45.1233H72.7386L72.4257 46.8781Z" fill="white"/>
<path d="M85.3268 54.0647H83.2367L86.0644 37.7914H88.1545L85.3268 54.0647Z" fill="white"/>
<path d="M109.617 54.0647H107.583L101.771 41.435L99.5803 54.0647H97.4679L100.296 37.7914H102.33L108.153 50.477L110.355 37.7914H112.445L109.617 54.0647Z" fill="white"/>
<path d="M131.348 49.8175H124.753L122.529 54.0647H120.283L129.124 37.7914H130.968L134.187 54.0647H132.119L131.348 49.8175ZM125.681 48.0516H131.035L129.682 40.4626L125.681 48.0516Z" fill="white"/>
<path d="M156.834 54.0647H154.8L148.988 41.435L146.797 54.0647H144.685L147.512 37.7914H149.547L155.37 50.477L157.572 37.7914H159.662L156.834 54.0647Z" fill="white"/>
<path d="M181.269 48.8787C180.956 50.5627 180.193 51.8964 178.978 52.88C177.771 53.8635 176.322 54.333 174.63 54.2882C173.625 54.2659 172.745 54.02 171.993 53.5506C171.24 53.0737 170.655 52.3919 170.238 51.5052C169.821 50.6111 169.59 49.6238 169.545 48.5434C169.515 47.9324 169.541 47.3363 169.623 46.7551L169.813 45.4139C170.163 42.9699 171.02 41.0438 172.384 39.6355C173.755 38.2198 175.42 37.5306 177.38 37.5678C178.907 37.5976 180.118 38.0931 181.012 39.0543C181.906 40.0081 182.38 41.3344 182.432 43.0333H180.342C180.245 40.7532 179.351 39.5238 177.659 39.3449L177.29 39.3226C175.882 39.2853 174.705 39.8106 173.759 40.8985C172.82 41.9789 172.213 43.458 171.937 45.3357L171.691 47.0234L171.624 48.0069C171.579 49.3779 171.821 50.4695 172.35 51.2817C172.887 52.0864 173.68 52.5037 174.731 52.5335C175.864 52.5708 176.799 52.2988 177.536 51.7176C178.281 51.1364 178.848 50.2013 179.235 48.9122L181.269 48.8787Z" fill="white"/>
<path d="M201.927 46.5428H195.087L194.081 52.31H202.039L201.726 54.0647H191.678L194.506 37.7914H204.442L204.129 39.5573H196.294L195.389 44.788H202.229L201.927 46.5428Z" fill="white"/>
</svg>
