<svg width="24" height="22" viewBox="0 0 24 22" fill="none" xmlns="http://www.w3.org/2000/svg">
<path d="M8.03854 0.838391C6.02599 0.816653 4.02567 1.15365 2.13134 1.83359L1.93454 1.92319C1.92877 1.92562 1.92417 1.93022 1.92174 1.93599L1.84334 2.13599C0.230931 7.21769 -0.320197 12.5765 0.22414 17.88L0.24974 18.1136L0.43534 18.2576C2.85545 20.0193 5.67438 21.1539 8.64014 21.56L8.92014 21.5952H8.94574C8.98615 21.5949 9.02551 21.5823 9.05864 21.5592C9.09177 21.536 9.11712 21.5034 9.13134 21.4656L10.5441 17.6896C10.5545 17.6617 10.5584 17.6318 10.5556 17.6021C10.5528 17.5725 10.5434 17.5438 10.528 17.5183C10.5127 17.4928 10.4918 17.4711 10.4668 17.4547C10.4419 17.4384 10.4137 17.4279 10.3841 17.424L9.95054 17.3552C9.0514 17.2162 8.17175 16.9719 7.32974 16.6272C6.28564 16.2025 5.32311 15.6 4.48494 14.8464C4.47799 14.84 4.47309 14.8316 4.47086 14.8224C4.46864 14.8132 4.46919 14.8036 4.47244 14.7947C4.47569 14.7858 4.48149 14.778 4.48913 14.7724C4.49676 14.7668 4.50588 14.7636 4.51534 14.7632H4.53294C4.68334 14.8192 4.85294 14.8832 5.01294 14.9472C5.37472 15.0986 5.74494 15.2289 6.12174 15.3376C8.04002 15.7966 10.0053 16.0302 11.9777 16.0336V16.008V16.0432C13.9486 16.0396 15.9123 15.8061 17.8289 15.3472C18.2058 15.2385 18.576 15.1082 18.9377 14.9568C19.0977 14.8944 19.2577 14.8288 19.4177 14.7728H19.4353C19.4448 14.7732 19.4539 14.7764 19.4616 14.782C19.4692 14.7876 19.475 14.7954 19.4782 14.8043C19.4815 14.8132 19.482 14.8228 19.4798 14.832C19.4776 14.8412 19.4727 14.8496 19.4657 14.856C18.6291 15.6076 17.6681 16.208 16.6257 16.6304C15.7825 16.9743 14.9018 17.2181 14.0017 17.3568L13.5681 17.424C13.5386 17.4279 13.5103 17.4384 13.4854 17.4547C13.4605 17.4711 13.4396 17.4928 13.4242 17.5183C13.4089 17.5438 13.3994 17.5725 13.3967 17.6021C13.3939 17.6318 13.3978 17.6617 13.4081 17.6896L14.8209 21.4736C14.8352 21.5114 14.8605 21.544 14.8936 21.5672C14.9268 21.5903 14.9661 21.6029 15.0065 21.6032H15.0401L15.3217 21.568C18.2859 21.159 21.1025 20.0222 23.5201 18.2592L23.7057 18.1152L23.7313 17.8816C24.2764 12.5777 23.7258 7.21831 22.1137 2.13599L22.0353 1.93599C22.0329 1.93022 22.0283 1.92562 22.0225 1.92319L21.8257 1.83359C19.9314 1.15365 17.9311 0.816653 15.9185 0.838391H13.6497C13.644 0.838143 13.6384 0.839931 13.634 0.843433C13.6295 0.846935 13.6264 0.851924 13.6252 0.857506C13.624 0.863088 13.6249 0.868899 13.6277 0.873898C13.6304 0.878897 13.6348 0.882759 13.6401 0.884791L18.3009 3.12479C18.3061 3.12693 18.3102 3.1309 18.3126 3.13592C18.3149 3.14095 18.3154 3.14668 18.3137 3.15199C18.3127 3.15723 18.3099 3.16196 18.3058 3.16544C18.3018 3.16892 18.2967 3.17094 18.2913 3.17119C14.1656 2.07499 9.8251 2.07499 5.69934 3.17119C5.694 3.17094 5.6889 3.16892 5.68484 3.16544C5.68078 3.16196 5.678 3.15723 5.67694 3.15199C5.67575 3.1469 5.67638 3.14155 5.67872 3.13688C5.68106 3.1322 5.68496 3.12849 5.68974 3.12639L10.5025 0.884791C10.5075 0.882393 10.5114 0.878389 10.5137 0.873443C10.5161 0.868497 10.5166 0.862905 10.5153 0.857591C10.5142 0.852088 10.5112 0.847153 10.5068 0.843645C10.5024 0.840137 10.497 0.838277 10.4913 0.838391H8.03854ZM16.8481 12.4256C16.4503 12.4261 16.057 12.3415 15.6945 12.1776C15.1594 11.9371 14.7127 11.5356 14.4166 11.0291C14.1206 10.5226 13.9901 9.93626 14.0433 9.35199C14.0725 9.0228 14.1603 8.70147 14.3025 8.40319C14.583 7.81608 15.0562 7.34284 15.6433 7.06239C15.9416 6.92011 16.2629 6.83232 16.5921 6.80319C16.6769 6.80319 16.7633 6.79199 16.8497 6.79199C17.2476 6.79143 17.6409 6.87599 18.0033 7.03999C18.5388 7.28053 18.9857 7.68229 19.2817 8.18915C19.5778 8.69601 19.7081 9.28267 19.6545 9.86719C19.6254 10.1964 19.5376 10.5177 19.3953 10.816C19.1149 11.4031 18.6417 11.8763 18.0545 12.1568C17.7563 12.2991 17.4349 12.3869 17.1057 12.416C17.0206 12.4224 16.9352 12.4256 16.8497 12.4256H16.8481ZM7.10894 12.4256C6.71112 12.4261 6.3178 12.3415 5.95534 12.1776C5.42019 11.9371 4.97345 11.5356 4.67745 11.0291C4.38144 10.5226 4.25094 9.93626 4.30414 9.35199C4.33327 9.0228 4.42106 8.70147 4.56334 8.40319C4.84379 7.81608 5.31703 7.34284 5.90414 7.06239C6.20242 6.92011 6.52375 6.83232 6.85294 6.80319C6.93774 6.80319 7.02414 6.79199 7.11054 6.79199C7.50836 6.79143 7.9017 6.87599 8.26414 7.03999C8.80018 7.27969 9.24794 7.68087 9.54485 8.18747C9.84175 8.69408 9.97296 9.28078 9.92014 9.86559C9.89101 10.1948 9.80322 10.5161 9.66094 10.8144C9.38049 11.4015 8.90726 11.8747 8.32014 12.1552C8.02186 12.2975 7.70053 12.3853 7.37134 12.4144C7.28462 12.4221 7.196 12.4259 7.10894 12.4256Z" fill="white"/>
</svg>
