<svg width="251" height="55" viewBox="0 0 251 55" fill="none" xmlns="http://www.w3.org/2000/svg">
<path d="M53.002 20.763C51.0077 20.763 49.0114 20.7913 47.0171 20.7468C46.3565 20.7327 46.1087 20.9752 45.9849 21.5654C45.5555 23.6372 45.1116 25.7091 44.6285 27.7687C44.4654 28.4641 44.6719 28.6359 45.3676 28.6298C48.326 28.5995 51.2844 28.6339 54.2428 28.6056C54.9241 28.5995 55.1078 28.7167 54.9344 29.4403C54.2758 32.1873 53.6544 34.9443 53.1176 37.7155C52.9731 38.4573 52.6408 38.524 52.0193 38.5199C49.096 38.4977 46.1707 38.53 43.2474 38.4957C42.5516 38.4876 42.2275 38.6331 42.0706 39.3669C41.0858 43.9673 40.0164 48.5516 39.042 53.156C38.8727 53.9524 38.5754 54.1768 37.7724 54.1727C26.3186 54.1182 14.8649 54.0959 3.41111 54.0535C2.48416 54.0494 1.55927 53.9464 0.63232 53.916C0.0687161 53.8979 -0.0778621 53.625 0.0356844 53.1318C0.69219 50.2798 1.03489 47.3772 1.50353 44.4949C1.5985 43.9067 1.85656 43.7369 2.45319 43.749C4.27613 43.7834 6.09907 43.7591 7.92201 43.745C15.1064 43.6884 22.2908 43.6095 29.4752 43.5893C30.3216 43.5873 30.6003 43.2659 30.7552 42.5504C32.4666 34.5966 34.1946 26.6449 35.9143 18.6932C36.3974 16.4577 36.8826 14.2221 37.3264 11.9805C37.4813 11.1922 37.7414 10.79 38.7034 10.8385C41.4802 10.9759 44.2755 11.0042 47.0439 10.9476C51.6828 10.8526 56.3217 10.98 60.9586 10.8446C61.9495 10.8163 62.0114 11.1801 61.8339 11.9542C61.2104 14.6749 60.6014 17.3996 60.0357 20.1303C59.9119 20.7266 59.5857 20.7731 59.0923 20.7711C57.0608 20.7549 55.0314 20.763 53.002 20.763Z" fill="white"/>
<path d="M96.4903 15.493C99.4668 15.493 101.964 15.5159 104.462 15.4784C105.138 15.4679 105.336 15.6641 105.218 16.3676C104.988 17.7348 104.796 19.1125 104.648 20.4902C104.574 21.1832 104.24 21.3105 103.651 21.3147C100.488 21.3418 97.3259 21.4399 94.1635 21.4358C93.2839 21.4337 93.0301 21.7551 92.9761 22.6235C92.8741 24.2162 92.6683 25.8005 92.4664 27.3848C92.3664 28.1676 92.5843 28.5204 93.3899 28.5684C96.1525 28.727 98.9151 28.6414 101.678 28.6707C102.111 28.6748 102.543 28.6811 102.977 28.6707C103.383 28.6602 103.597 28.7834 103.537 29.276C103.363 30.6871 103.209 32.1023 103.069 33.5176C103.015 34.0707 102.763 34.2586 102.237 34.315C99.5807 34.603 96.9161 34.436 94.2574 34.4945C93.6917 34.507 93.128 34.5571 92.5623 34.5759C91.8227 34.6009 91.3989 34.9642 91.285 35.7511C90.9591 38.018 90.6693 40.287 90.4894 42.5727C90.4234 43.3972 90.6313 43.7333 91.5128 43.7187C94.6412 43.6623 97.7737 43.7124 100.902 43.6853C101.588 43.679 101.844 43.8168 101.714 44.6162C101.488 46.019 101.382 47.4405 101.108 48.839C101.008 49.3505 100.818 49.53 100.322 49.5216C94.9651 49.4319 89.6058 49.6907 84.2505 49.3338C83.6488 49.2941 83.5249 49.0624 83.6009 48.4988C84.3025 43.2073 84.9941 37.9136 85.6858 32.62C86.2615 28.2219 86.8312 23.8237 87.4109 19.4256C87.5229 18.5698 87.7607 17.7181 87.7707 16.8623C87.7827 15.8583 88.2925 15.6725 89.0841 15.6161C91.7087 15.4303 94.3394 15.5347 96.4903 15.493Z" fill="white"/>
<path d="M27.7518 10.8739C29.1222 10.779 30.4033 10.9911 31.6864 10.983C32.5055 10.9769 32.5928 11.2536 32.444 11.9847C31.5357 16.4518 30.673 20.9289 29.7865 25.4001C28.8862 29.9419 27.964 34.4776 27.0775 39.0215C26.9287 39.7868 26.667 40.1241 25.8023 40.11C23.6267 40.0756 21.4492 40.1887 19.2716 40.2392C18.9741 40.2453 18.6766 40.2453 18.3792 40.223C16.9116 40.114 16.8799 40.1039 17.1694 38.6155C18.5081 31.7715 19.8646 24.9336 21.2151 18.0916C21.6237 16.0176 22.06 13.9496 22.4229 11.8675C22.532 11.2395 22.7819 11.0153 23.3867 11.0173C24.8682 11.0254 26.3437 10.7306 27.7518 10.8739Z" fill="white"/>
<path d="M117.351 15.5016C120.246 15.5016 123.144 15.5371 126.037 15.4786C126.896 15.4619 127.007 15.7711 126.87 16.5525C126.637 17.8854 126.462 19.2309 126.306 20.5764C126.24 21.1405 126.013 21.3243 125.48 21.3306C123.77 21.3473 122.059 21.4371 120.349 21.4539C119.759 21.4601 119.498 21.6064 119.411 22.3C118.57 29.0817 117.687 35.8572 116.812 42.6326C116.563 44.5589 116.275 46.481 116.054 48.4115C115.965 49.1907 115.593 49.5271 114.9 49.5292C113.65 49.5313 112.4 49.5188 111.15 49.5083C110.348 49.5 110.091 49.1009 110.204 48.2464C111.01 42.1249 111.79 35.9971 112.566 29.8715C112.88 27.3957 113.16 24.9157 113.464 22.44C113.561 21.6523 113.176 21.3536 112.503 21.3473C110.891 21.3327 109.278 21.2972 107.666 21.3327C106.991 21.3473 106.704 21.1906 106.825 20.4092C107.008 19.21 107.182 18.0003 107.235 16.7886C107.277 15.8568 107.696 15.6269 108.468 15.6311C111.428 15.6478 114.389 15.6374 117.349 15.6374C117.351 15.5935 117.351 15.5476 117.351 15.5016Z" fill="white"/>
<path d="M70.0955 49.5294C68.5923 49.5294 67.087 49.5294 65.5839 49.5294C65.1045 49.5294 64.8859 49.3983 65.0751 48.8596C65.5481 47.5078 65.9833 46.1416 66.4059 44.7733C66.5615 44.2694 66.8516 44.1097 67.3919 44.0912C69.1389 44.0298 70.8901 43.9663 72.6288 43.786C74.3253 43.6078 74.6785 43.2064 75.0296 41.5821C76.2385 35.98 76.8166 30.2817 77.6807 24.6284C78.0864 21.9718 78.4606 19.311 78.8117 16.6483C78.921 15.8207 79.1838 15.4111 80.1656 15.4869C81.5216 15.5934 82.8944 15.5524 84.2588 15.5135C84.9967 15.491 85.2112 15.6856 85.1019 16.4393C84.4522 20.9538 83.8552 25.4743 83.2371 29.9929C82.6463 34.3106 82.1859 38.6489 81.2441 42.9114C80.7395 45.1953 79.8166 47.2374 77.5629 48.4684C76.497 49.0501 75.4038 49.4393 74.1908 49.4598C72.8264 49.4823 71.462 49.4639 70.0976 49.4639C70.0955 49.4885 70.0955 49.509 70.0955 49.5294Z" fill="white"/>
<path d="M12.1139 18.5991C13.4782 18.5991 14.8465 18.6535 16.207 18.5781C17.0151 18.5321 17.1146 18.8294 16.9702 19.583C15.9786 24.7604 15.0144 29.9419 14.0384 35.1234C13.7769 36.5177 13.4958 37.9078 13.246 39.3063C13.1581 39.8004 13.0313 40.0935 12.4555 40.0998C9.89261 40.1186 7.32977 40.2254 4.76498 40.2421C3.02583 40.2547 2.89896 40.0663 3.25811 38.2972C4.5366 31.981 5.83266 25.6669 7.1014 19.3486C7.22046 18.7519 7.46055 18.5698 8.01879 18.5886C9.38316 18.6284 10.7495 18.5991 12.1139 18.5991Z" fill="white"/>
<path d="M44.7439 0.0110669C46.1593 0.0110669 47.5748 0.0251204 48.9902 0.00303624C49.4842 -0.00499438 49.5989 0.113457 49.4934 0.685639C49.1197 2.71136 48.7978 4.75114 48.498 6.79092C48.3907 7.51769 48.1021 7.75058 47.4119 7.73853C44.7976 7.69035 42.1813 7.69637 39.567 7.73451C38.8565 7.74455 38.5716 7.60602 38.7436 6.74474C39.1414 4.76118 39.5022 2.76758 39.789 0.76193C39.8871 0.0733041 40.1553 -0.0110173 40.6864 0.00102859C42.037 0.0311434 43.3895 0.0110669 44.7439 0.0110669Z" fill="white"/>
<path d="M147.237 39.5337C146.716 42.5795 145.216 44.9818 142.739 46.7346C140.26 48.4895 137.079 49.3659 133.194 49.3659C129.746 49.3659 126.787 48.7369 124.32 47.479C124.156 47.3945 124.066 47.211 124.096 47.0274L125.084 41.2412C125.131 40.9648 125.428 40.8081 125.68 40.9277C127.557 41.8165 129.182 42.4516 130.559 42.8331C132.055 43.2497 133.453 43.4559 134.754 43.4559C136.313 43.4559 137.561 43.1548 138.497 42.5547C139.434 41.9546 140.001 41.0618 140.204 39.8781C140.317 39.2162 140.235 38.6285 139.954 38.1129C139.676 37.5974 139.221 37.1004 138.592 36.6241C137.963 36.1477 136.643 35.3848 134.635 34.3393C132.752 33.3701 131.373 32.438 130.502 31.5472C129.629 30.6543 128.99 29.617 128.58 28.4313C128.17 27.2456 128.1 25.8619 128.371 24.2762C128.881 21.2902 130.287 18.9435 132.59 17.2361C134.891 15.5287 137.817 14.675 141.364 14.675C143.108 14.675 144.735 14.8832 146.247 15.2977C147.624 15.6771 149.038 16.1947 150.487 16.8546C150.714 16.9577 150.802 17.2402 150.675 17.4588L147.858 22.2903C147.749 22.4759 147.52 22.5502 147.323 22.4636C145.811 21.8057 144.534 21.3397 143.493 21.0675C142.374 20.7747 141.247 20.6283 140.116 20.6283C138.77 20.6283 137.684 20.9438 136.858 21.5748C136.032 22.2058 135.532 23.0286 135.358 24.0452C135.25 24.6762 135.301 25.2268 135.512 25.6949C135.721 26.165 136.108 26.6187 136.668 27.0559C137.227 27.4951 138.594 28.2828 140.77 29.4211C143.647 30.9285 145.538 32.4421 146.44 33.9578C147.347 35.4755 147.612 37.3335 147.237 39.5337Z" fill="white"/>
<path d="M183.071 48.906H175.641C175.422 48.906 175.24 48.737 175.221 48.5163L173.74 31.1781C173.678 30.5471 173.615 29.2438 173.547 27.2662C173.531 26.792 173.518 26.3548 173.508 25.9568C173.498 25.4866 172.846 25.3794 172.689 25.8228C172.529 26.2702 172.35 26.759 172.154 27.2889C171.473 29.1283 170.965 30.4398 170.633 31.2234L163.205 48.6462C163.138 48.8029 162.986 48.904 162.816 48.904H155.411C155.191 48.904 155.007 48.7349 154.991 48.5142L152.269 15.6194C152.249 15.372 152.443 15.1596 152.689 15.1596H158.828C159.052 15.1596 159.236 15.3349 159.251 15.5576L160.369 33.5784C160.478 35.7498 160.531 37.7376 160.535 39.5379C160.535 40.0183 161.203 40.1297 161.357 39.674C161.496 39.2636 161.65 38.8182 161.816 38.3439C162.459 36.5045 163.013 35.0775 163.476 34.063L171.48 15.4153C171.547 15.2586 171.699 15.1596 171.867 15.1596H177.922C178.141 15.1596 178.324 15.3287 178.342 15.5473L179.965 34.063C180.035 34.9084 180.082 36.2014 180.106 37.9418C180.115 38.5233 180.119 39.078 180.119 39.6059C180.119 40.0864 180.785 40.1977 180.94 39.7441C181.135 39.177 181.346 38.5728 181.576 37.9315C182.217 36.1395 182.772 34.6878 183.235 33.5804L190.54 15.4256C190.606 15.2647 190.76 15.1596 190.932 15.1596H197.003C197.306 15.1596 197.511 15.471 197.393 15.7514L183.459 48.6462C183.395 48.8029 183.241 48.906 183.071 48.906Z" fill="white"/>
<path d="M212.896 48.5348L211.933 41.2411C211.904 41.0308 211.726 40.872 211.515 40.872H199.927C199.763 40.872 199.616 40.9669 199.546 41.1153L195.973 48.6627C195.903 48.8111 195.753 48.906 195.591 48.906H188.895C188.577 48.906 188.372 48.5657 188.52 48.2832L205.698 15.2482C205.771 15.108 205.915 15.0193 206.073 15.0193H214.156C214.361 15.0193 214.535 15.1657 214.572 15.3678L220.515 48.4028C220.562 48.6647 220.363 48.9039 220.099 48.9039H213.314C213.103 48.906 212.923 48.7472 212.896 48.5348ZM210.726 34.8712C210.982 34.8712 211.179 34.6424 211.144 34.3867C210.181 27.4105 209.64 23.4554 209.523 22.5233C209.495 22.2985 209.47 22.0841 209.445 21.882C209.396 21.4531 208.818 21.3603 208.642 21.7541C207.55 24.1709 205.591 28.3405 202.763 34.2629C202.628 34.5454 202.833 34.8733 203.144 34.8733H210.726V34.8712Z" fill="white"/>
<path d="M250.522 25.6846C249.901 29.316 248.301 32.0936 245.717 34.0176C243.133 35.9415 239.762 36.9025 235.602 36.9025H232.908C232.703 36.9025 232.527 37.051 232.492 37.2551L230.564 48.5514C230.529 48.7555 230.353 48.904 230.148 48.904H223.894C223.632 48.904 223.433 48.6668 223.478 48.407L229.094 15.5122C229.129 15.308 229.305 15.1596 229.51 15.1596H239.867C243.934 15.1596 246.876 16.0401 248.694 17.8032C250.507 19.5642 251.118 22.1914 250.522 25.6846ZM233.637 30.5429C233.592 30.8028 233.791 31.0399 234.053 31.0399H235.891C238.078 31.0399 239.789 30.6048 241.022 29.7366C242.256 28.8664 243.016 27.6024 243.299 25.9403C243.586 24.2638 243.342 23.0245 242.569 22.2244C241.797 21.4243 240.438 21.0242 238.496 21.0242H235.619C235.414 21.0242 235.238 21.1727 235.203 21.3768L233.637 30.5429Z" fill="white"/>
</svg>
