<svg width="257" height="45" viewBox="0 0 257 45" fill="none" xmlns="http://www.w3.org/2000/svg">
<g clip-path="url(#clip0)">
<path d="M22.6294 -2.76383e-05C9.80605 -0.00632399 -0.00126078 10.3147 1.2157e-07 22.522C0.00126103 34.9258 10.1276 44.9949 22.6067 45C35.091 45.0063 45.2286 34.9485 45.2387 22.5409C45.2488 10.2844 35.4062 0.00626871 22.6294 -2.76383e-05ZM31.9122 31.4313C31.9135 31.7915 31.7887 31.9867 31.4759 32.1655C28.6011 33.8051 25.7338 35.4585 22.8703 37.1182C22.5891 37.2807 22.3874 37.3033 22.081 37.1258C19.2023 35.4509 16.3111 33.8 13.4185 32.1491C13.1172 31.9779 12.9873 31.7789 12.9886 31.4125C13.0012 25.4725 13.0012 19.5325 12.9886 13.5925C12.9873 13.2261 13.1109 13.0296 13.4223 12.8521C16.3161 11.2037 19.2048 9.54398 22.0873 7.87419C22.3609 7.71552 22.5714 7.713 22.835 7.86159C24.6065 8.85642 26.3794 9.8462 28.1585 10.8284C28.3779 10.9493 28.5153 11.0652 28.5141 11.346C28.5053 14.0219 28.509 16.6966 28.509 19.5073C27.518 18.9419 26.6038 18.4269 25.6985 17.898C25.5005 17.7821 25.5863 17.5542 25.585 17.3766C25.5787 15.9965 25.5724 14.6163 25.5888 13.2349C25.5926 12.8861 25.5119 12.6582 25.179 12.4831C24.3998 12.0751 23.6394 11.6318 22.8804 11.1873C22.6042 11.0261 22.3886 10.9909 22.0822 11.171C20.1871 12.2867 18.2793 13.381 16.364 14.4639C16.0639 14.6339 15.9668 14.8291 15.9668 15.1603C15.9757 20.0551 15.9769 24.9486 15.9643 29.8434C15.963 30.2136 16.1055 30.3987 16.4144 30.5725C18.3096 31.6454 20.1984 32.7309 22.0772 33.834C22.3747 34.0091 22.5866 33.9977 22.8728 33.8303C24.7742 32.7246 26.682 31.6291 28.5973 30.5486C28.8961 30.3799 28.992 30.1809 28.9907 29.8497C28.9794 28.0301 28.9768 26.2104 29.0021 24.3908C29.0071 23.9928 28.8457 23.8052 28.5191 23.6188C25.7918 22.0586 23.0758 20.4795 20.3573 18.9054C20.182 18.8046 20.0118 18.6964 19.7899 18.5616C20.7154 18.0718 21.5854 17.6172 22.4517 17.15C22.661 17.0366 22.8224 17.0631 23.0266 17.1827C25.8662 18.8399 28.7108 20.4908 31.5592 22.1316C31.829 22.2865 31.9362 22.4641 31.9349 22.7764C31.916 25.6589 31.9059 28.5451 31.9122 31.4313ZM22.144 22.5006C22.1251 22.9363 22.2928 22.9665 22.6118 22.7575C22.6471 22.7348 22.6887 22.7197 22.7202 22.6945C23.7617 21.8634 24.7755 21.8785 25.7817 22.7663C25.9645 22.9275 26.2079 23.0207 26.5092 23.1957C25.7388 23.6352 25.0416 24.0331 24.343 24.4285C22.9775 25.2043 21.6094 25.9787 20.2438 26.7544C19.9828 26.903 19.7584 27.0554 19.7609 26.5403C19.7735 24.178 19.7672 21.8156 19.7672 19.3172C20.5452 19.7667 21.2097 20.1546 21.8792 20.5336C22.12 20.6696 22.1528 20.8787 22.1503 21.1204C22.144 21.5801 22.1642 22.041 22.144 22.5006Z" fill="white"/>
<path d="M71.3911 20.715C71.4087 20.6684 71.4112 20.6394 71.4239 20.6331C71.5928 20.5525 71.7618 20.4745 71.9333 20.3976C73.8498 19.5413 75.0401 18.1662 75.0956 15.9902C75.1549 13.7122 74.1411 12.0638 72.1098 11.0425C71.2789 10.6244 70.3786 10.4041 69.4531 10.3474C66.3298 10.156 63.2015 10.3159 60.077 10.253C59.5487 10.2429 59.642 10.569 59.642 10.8713C59.6407 17.8325 59.6458 24.7925 59.6306 31.7537C59.6294 32.2159 59.7353 32.3544 60.2169 32.3494C62.6934 32.3229 65.1698 32.338 67.6462 32.3368C69.2501 32.3355 70.8287 32.1529 72.3267 31.5472C75.9681 30.0751 76.6579 26.5643 75.605 23.9236C74.856 22.041 73.3392 21.0764 71.3911 20.715ZM63.6176 16.373C63.6176 15.6011 63.6163 14.8291 63.6189 14.056C63.6189 13.852 63.576 13.6215 63.9114 13.6328C65.6023 13.692 67.307 13.4641 68.9802 13.8633C70.424 14.2083 71.1401 15.0671 71.1603 16.4423C71.1792 17.6562 70.3962 18.6221 69.0836 19.0137C67.9564 19.3499 66.7989 19.2467 65.6502 19.2441C64.9882 19.2429 64.103 19.5325 63.7273 19.1195C63.3995 18.7593 63.6302 17.8917 63.6189 17.2482C63.6138 16.9573 63.6176 16.6652 63.6176 16.373ZM71.9534 26.7003C71.7101 27.8084 70.8312 28.3625 69.8011 28.6849C68.9285 28.9594 68.0232 28.9569 67.1217 28.9619C66.094 28.967 65.0651 28.9506 64.0375 28.9695C63.7071 28.9758 63.605 28.8738 63.6113 28.5451C63.6315 27.6258 63.6176 26.7066 63.6189 25.7861C63.6189 24.8668 63.6201 23.9463 63.6176 23.027C63.6163 22.8079 63.6025 22.6139 63.9278 22.6253C65.7914 22.6908 67.6651 22.4704 69.5174 22.7928C71.5916 23.1554 72.4515 24.4311 71.9534 26.7003Z" fill="white"/>
<path d="M127.942 8.76955C127.103 8.796 126.261 8.80985 125.424 8.76577C124.889 8.73807 124.714 8.86022 124.72 9.43948C124.754 12.492 124.736 15.5457 124.736 18.5994C124.736 18.7984 124.736 18.9986 124.736 19.2505C124.613 19.1837 124.548 19.1686 124.516 19.1283C122.409 16.6035 118.282 16.4473 115.716 18.0705C111.458 20.7628 111.047 27.9759 114.968 31.1543C117.78 33.4323 122.942 33.2775 124.904 30.2489C124.904 30.8055 124.922 31.3621 124.898 31.9174C124.883 32.2511 125.004 32.3481 125.329 32.3418C126.232 32.3242 127.135 32.3179 128.037 32.3443C128.417 32.3557 128.485 32.2046 128.485 31.8683C128.477 24.3392 128.476 16.8112 128.489 9.28207C128.488 8.8514 128.337 8.75696 127.942 8.76955ZM120.433 29.3397C117.89 29.3372 116.026 27.4496 116.025 24.8781C116.023 22.2601 117.887 20.3725 120.462 20.3825C122.977 20.3926 124.87 22.3256 124.861 24.8769C124.852 27.4256 122.951 29.3422 120.433 29.3397Z" fill="white"/>
<path d="M154.186 11.3977C153.013 10.734 151.73 10.4507 150.406 10.3537C147.619 10.1497 144.826 10.3197 142.037 10.248C141.485 10.2341 141.398 10.4255 141.4 10.9217C141.422 14.3708 141.412 17.8187 141.412 21.2678C141.412 24.7371 141.428 28.2077 141.395 31.6769C141.39 32.2587 141.569 32.3733 142.099 32.3469C142.978 32.3041 143.862 32.3091 144.742 32.3456C145.223 32.3658 145.381 32.2424 145.376 31.7336C145.35 29.0791 145.374 26.4245 145.355 23.77C145.352 23.3343 145.471 23.2008 145.916 23.2058C147.634 23.2235 149.357 23.2487 151.068 23.0232C152.849 22.789 154.528 22.3118 155.741 20.8737C157.142 19.2127 157.213 17.2445 156.92 15.2359C156.666 13.517 155.699 12.254 154.186 11.3977ZM152.852 17.4799C152.706 18.3022 152.209 18.8639 151.489 19.2542C150.431 19.8285 149.262 19.7869 148.116 19.8423C147.362 19.8788 146.604 19.8297 145.85 19.8587C145.45 19.8738 145.346 19.729 145.356 19.3525C145.379 18.4748 145.363 17.597 145.363 16.7181C145.363 15.8404 145.361 14.9614 145.366 14.0837C145.367 13.886 145.305 13.6278 145.641 13.6354C147.252 13.6694 148.878 13.4881 150.47 13.8583C152.364 14.299 153.19 15.5747 152.852 17.4799Z" fill="white"/>
<path d="M208.183 17.0178C202.982 17.1953 199.501 21.8055 200.736 26.8262C201.617 30.4114 204.694 32.6995 208.647 32.6957C208.836 32.6957 209.025 32.707 209.213 32.6944C212.179 32.4892 214.574 31.2765 215.956 28.5804C217.321 25.9183 217.258 23.1932 215.662 20.6344C213.955 17.8942 211.296 16.912 208.183 17.0178ZM208.678 29.3397C206.143 29.3309 204.269 27.4307 204.268 24.8706C204.268 22.2714 206.148 20.375 208.719 20.3813C211.239 20.3876 213.097 22.2966 213.094 24.8794C213.093 27.4382 211.201 29.3485 208.678 29.3397Z" fill="white"/>
<path d="M241.406 17.0215C236.358 17.2117 232.938 21.5801 233.919 26.5101C234.657 30.2199 237.845 32.6957 242.194 32.7108C242.491 32.7183 243.076 32.6705 243.656 32.566C249.7 31.4691 251.499 25.1992 249.168 21.0235C247.485 18.0063 244.726 16.8969 241.406 17.0215ZM241.938 29.3397C239.372 29.3221 237.53 27.4193 237.542 24.7988C237.553 22.2248 239.461 20.3611 242.061 20.3825C244.553 20.4027 246.382 22.3445 246.363 24.9524C246.345 27.4621 244.435 29.3561 241.938 29.3397Z" fill="white"/>
<path d="M177.791 17.0115C172.453 17.2621 169.001 22.0435 170.459 27.1687C171.419 30.5423 174.513 32.7208 178.328 32.7082C184.929 32.6856 187.931 26.6915 185.88 21.7048C184.614 18.6246 181.502 16.8364 177.791 17.0115ZM178.272 29.3397C175.75 29.3095 173.882 27.3778 173.904 24.8202C173.925 22.211 175.842 20.3498 178.475 20.3825C180.955 20.4127 182.773 22.381 182.733 24.9914C182.695 27.5075 180.785 29.3699 178.272 29.3397Z" fill="white"/>
<path d="M91.8531 22.0838C91.7106 19.491 90.2581 17.8375 87.706 17.2369C86.0164 16.8389 84.3318 16.9447 82.6624 17.3779C81.4468 17.6927 80.3587 18.2493 79.4231 19.0968C79.1684 19.3273 79.123 19.4796 79.408 19.729C79.848 20.1156 80.2729 20.5248 80.6613 20.9631C80.9513 21.2917 81.1253 21.3144 81.5074 21.0273C83.1175 19.8209 84.9118 19.4494 86.8448 20.1282C87.9884 20.5299 88.5583 21.4378 88.5596 22.6404C88.5596 22.9439 88.4638 23.0358 88.1649 23.0308C87.3882 23.0194 86.6102 23.0094 85.8348 23.0509C83.9863 23.1491 82.158 23.3519 80.4822 24.2409C77.4561 25.8465 77.2695 30.0285 80.1973 31.8003C82.1555 32.9853 84.2511 33.0067 86.3568 32.1428C87.2483 31.7764 87.8749 31.0851 88.5546 30.1935C88.5546 30.8899 88.5722 31.4037 88.5483 31.9149C88.5331 32.2436 88.6403 32.3494 88.9732 32.3406C89.813 32.3191 90.6527 32.3229 91.4925 32.3393C91.8014 32.3456 91.9451 32.2851 91.9414 31.93C91.8997 28.6484 92.0321 25.3629 91.8531 22.0838ZM88.3289 26.451C88.2885 29.2125 85.4868 30.8571 82.9927 29.5802C82.3358 29.244 81.9071 28.7529 81.8995 27.9646C81.8919 27.1977 82.303 26.728 82.941 26.393C83.9296 25.8742 85.0089 25.7508 86.0971 25.679C86.5775 25.6475 87.0604 25.6576 87.5421 25.6551C88.3402 25.6513 88.3402 25.6538 88.3289 26.451Z" fill="white"/>
<path d="M109.121 21.6481C108.87 19.5426 107.834 17.9408 105.751 17.3137C103.665 16.6853 101.623 16.7772 99.9935 18.5175C99.6707 18.8626 99.4134 19.2681 99.0566 19.739C99.0566 19.0427 99.0377 18.4558 99.0642 17.8715C99.0806 17.5126 99.015 17.3502 98.5964 17.3678C97.7163 17.4031 96.8324 17.3943 95.951 17.3716C95.6005 17.3628 95.4908 17.4598 95.492 17.8199C95.5034 22.5056 95.5059 27.1914 95.4895 31.8771C95.4882 32.2952 95.6433 32.3519 96.0002 32.3443C96.8815 32.3229 97.7654 32.3091 98.6456 32.3481C99.1373 32.3695 99.2811 32.2297 99.276 31.7285C99.2495 29.239 99.2659 26.7506 99.2621 24.2611C99.2609 23.5219 99.3466 22.8028 99.6732 22.1279C100.285 20.8661 101.556 20.2289 103.137 20.3964C104.205 20.5097 104.945 21.269 105.27 22.6417C105.449 23.3972 105.466 24.1742 105.466 24.9486C105.468 27.2493 105.475 29.5513 105.458 31.8519C105.456 32.2247 105.533 32.3632 105.939 32.3481C106.862 32.3154 107.787 32.3128 108.71 32.3481C109.15 32.3645 109.231 32.2008 109.227 31.8091C109.208 30.2401 109.236 28.671 109.214 27.1032C109.19 25.2836 109.337 23.4602 109.121 21.6481Z" fill="white"/>
<path d="M195.15 20.545C196.178 20.5689 197.208 20.5374 198.236 20.5601C198.624 20.5689 198.798 20.4896 198.776 20.0526C198.74 19.3222 198.745 18.5881 198.775 17.8577C198.79 17.4761 198.684 17.3565 198.29 17.3666C197.241 17.3955 196.19 17.359 195.141 17.3855C194.755 17.3955 194.639 17.291 194.649 16.9006C194.676 15.7925 194.643 14.6843 194.667 13.5762C194.676 13.177 194.579 13.0196 194.149 13.0334C193.226 13.0624 192.302 13.0611 191.379 13.0334C190.987 13.0221 190.877 13.1442 190.886 13.5296C190.911 14.6377 190.878 15.7459 190.903 16.8541C190.912 17.2495 190.823 17.4081 190.39 17.3855C189.658 17.3489 188.921 17.3918 188.187 17.3678C187.851 17.3565 187.757 17.4673 187.767 17.7947C187.79 18.5679 187.794 19.3424 187.766 20.1156C187.752 20.4959 187.907 20.5664 188.243 20.5576C188.935 20.5374 189.63 20.584 190.321 20.5412C190.813 20.511 190.913 20.691 190.906 21.1469C190.878 22.6933 190.887 24.2409 190.898 25.7886C190.907 27 190.831 28.2139 191.036 29.4178C191.254 30.7048 191.785 31.7902 193.083 32.2763C194.835 32.9299 196.622 32.8153 198.403 32.367C198.618 32.3128 198.775 32.2171 198.771 31.9439C198.759 31.0284 198.766 30.1142 198.766 29.1458C198.248 29.3422 197.78 29.4392 197.306 29.5085C195.56 29.7628 194.694 29.0677 194.667 27.3098C194.637 25.2194 194.668 23.1277 194.651 21.0373C194.647 20.6545 194.765 20.5362 195.15 20.545Z" fill="white"/>
<path d="M224.504 21.3522C225.868 20.2465 227.993 19.739 229.844 21.5562C230.128 21.8345 230.278 21.8105 230.532 21.536C231.059 20.9693 231.624 20.4354 232.173 19.8889C232.825 19.2391 232.825 19.2391 232.126 18.6586C232.11 18.6447 232.089 18.6372 232.073 18.6233C229.587 16.5909 225.588 16.4536 222.634 18.2997C219.905 20.0047 218.564 23.4451 219.347 26.733C220.207 30.3471 223.239 32.6579 227.616 32.7095C229.106 32.6743 230.851 32.1315 232.386 30.9566C232.666 30.7425 232.759 30.604 232.449 30.3005C231.776 29.6432 231.144 28.9418 230.516 28.2404C230.309 28.0087 230.177 28.0011 229.976 28.2316C229.657 28.5993 229.261 28.8675 228.805 29.0526C226.891 29.8283 224.641 29.069 223.553 27.2733C222.397 25.3642 222.797 22.7348 224.504 21.3522Z" fill="white"/>
<path d="M256.986 24.717C256.986 19.6169 256.979 14.5181 256.998 9.41809C257 8.89675 256.858 8.73808 256.336 8.76579C255.52 8.80986 254.698 8.8086 253.882 8.76579C253.365 8.73808 253.211 8.88416 253.215 9.41557C253.239 13.1153 253.227 16.8138 253.227 20.5135C253.227 24.2334 253.243 27.9545 253.212 31.6744C253.207 32.2486 253.377 32.3784 253.915 32.3481C254.73 32.3028 255.551 32.3091 256.368 32.3469C256.847 32.3695 257.005 32.2499 256.999 31.7399C256.97 29.3989 256.986 27.0579 256.986 24.717Z" fill="white"/>
<path d="M168.195 17.0052C168.132 17.0027 168.068 17.0014 168.005 17.0027C166.065 17.0291 164.601 17.8716 163.509 19.5413C163.509 18.9608 163.494 18.3803 163.515 17.7998C163.528 17.4761 163.428 17.3641 163.092 17.3716C162.127 17.3918 161.161 17.3943 160.197 17.3704C159.836 17.3616 159.743 17.4749 159.744 17.8275C159.755 22.5082 159.757 27.1902 159.741 31.8709C159.74 32.2801 159.883 32.3544 160.248 32.3443C161.128 32.3217 162.012 32.3091 162.891 32.3481C163.379 32.3695 163.528 32.236 163.522 31.7336C163.494 29.3309 163.498 26.927 163.513 24.5243C163.529 22.0083 165.388 20.3334 167.887 20.5689C168.364 20.6142 168.835 20.715 169.366 20.7994C169.366 19.9229 169.366 19.0704 169.366 18.2166C169.367 17.0833 169.343 17.0593 168.195 17.0052Z" fill="white"/>
</g>
<defs>
<clipPath id="clip0">
<rect width="257" height="45" fill="white"/>
</clipPath>
</defs>
</svg>
