<svg width="28" height="24" viewBox="0 0 28 24" fill="none" xmlns="http://www.w3.org/2000/svg">
<path d="M21.1336 22.7666L14.9236 18.2149V18.1827L11.7634 21.4027C11.7335 21.4328 11.702 21.4612 11.6691 21.4878C11.6455 21.5075 11.6209 21.5259 11.5955 21.543C11.5487 21.5739 11.4995 21.6008 11.4483 21.6235C11.3999 21.6457 11.3499 21.6642 11.2988 21.6787C11.2076 21.7052 11.1131 21.7184 11.0182 21.7178H10.7422L10.6663 21.6948C10.5137 21.6409 10.3758 21.5521 10.2636 21.4355C10.1514 21.3189 10.068 21.1778 10.02 21.0232L7.71995 13.7828L1.61575 11.9681C1.43992 11.9168 1.28458 11.8117 1.17157 11.6676C1.05855 11.5235 0.99354 11.3475 0.985672 11.1645C0.977805 10.9816 1.02747 10.8007 1.1277 10.6474C1.22793 10.4941 1.37367 10.376 1.54445 10.3098L25.5864 0.955734C25.7329 0.898432 25.889 0.869552 26.0464 0.870635C26.1488 0.870786 26.2508 0.883923 26.35 0.909734H26.4098C26.7083 0.996941 26.9629 1.19379 27.1224 1.46081C27.282 1.72783 27.3347 2.04529 27.27 2.34953L23.1668 21.9892C23.1047 22.2806 22.9445 22.5418 22.713 22.7294C22.4815 22.9169 22.1928 23.0193 21.8949 23.0196C21.6205 23.0195 21.3535 22.9307 21.1336 22.7666Z" fill="white"/>
</svg>
