<svg width="190" height="41" viewBox="0 0 190 41" fill="none" xmlns="http://www.w3.org/2000/svg">
<path d="M45.9395 31.8711V29.4688C45.9395 28.9082 46.3396 28.5078 46.8999 28.5078H48.6606C49.2208 28.5078 49.621 28.1074 49.621 27.5469V12.332C49.621 11.7715 49.2208 11.3711 48.6606 11.3711H46.8999C46.3396 11.3711 45.9395 10.9707 45.9395 10.4102V8.00781C45.9395 7.44727 46.3396 7.04688 46.8999 7.04688H68.0288C68.589 7.04688 68.9892 7.44727 68.9892 8.00781V14.0137C68.9892 14.5742 68.589 14.9746 68.0288 14.9746H65.0675C64.5073 14.9746 64.1071 14.5742 64.1071 14.0137V12.332C64.1071 11.7715 63.7069 11.3711 63.1467 11.3711H57.3042C56.744 11.3711 56.3438 11.7715 56.3438 12.332V16.3359C56.3438 16.8965 56.744 17.2969 57.3042 17.2969H60.9058C61.466 17.2969 61.8662 17.6973 61.8662 18.2578V20.6602C61.8662 21.2207 61.466 21.6211 60.9058 21.6211H57.3042C56.744 21.6211 56.3438 22.0215 56.3438 22.582V27.3867C56.3438 27.9473 56.744 28.3477 57.3042 28.3477H59.3051C59.8653 28.3477 60.2655 28.748 60.2655 29.3086V31.7109C60.2655 32.2715 59.8653 32.6719 59.3051 32.6719H46.8999C46.3396 32.832 45.9395 32.3516 45.9395 31.8711Z" fill="#1F1F1F"/>
<path d="M75.712 33.2324C73.0709 33.2324 70.83 32.4316 68.9892 30.75C67.1484 29.0684 66.2681 26.7461 66.2681 23.8633C66.2681 20.9805 67.1484 18.6582 68.9892 16.9766C70.83 15.2949 73.0709 14.4941 75.712 14.4941C78.3531 14.4941 80.5941 15.2949 82.4349 16.9766C84.2756 18.6582 85.156 20.9805 85.156 23.8633C85.156 26.7461 84.2756 29.0684 82.4349 30.75C80.6741 32.3516 78.4332 33.2324 75.712 33.2324ZM75.712 28.748C76.7525 28.748 77.6328 28.3477 78.2731 27.5469C78.9134 26.7461 79.2335 25.4648 79.2335 23.7031C79.2335 22.1816 78.9134 20.9805 78.2731 20.0996C77.6328 19.2187 76.8325 18.8184 75.712 18.8184C73.311 18.8184 72.1906 20.5 72.1906 23.9434C72.1906 25.3047 72.5107 26.5059 73.0709 27.3867C73.6312 28.2676 74.5115 28.748 75.712 28.748Z" fill="#1F1F1F"/>
<path d="M99.482 29.6289V31.791C99.482 32.3516 99.0818 32.752 98.5216 32.752H87.7971C87.2368 32.752 86.8367 32.3516 86.8367 31.791V29.6289C86.8367 29.0684 87.2368 28.668 87.7971 28.668H89.1576C89.7179 28.668 90.1181 28.2676 90.1181 27.707V19.9395C90.1181 19.3789 89.7179 18.9785 89.1576 18.9785H88.0372C87.4769 18.9785 87.0768 18.5781 87.0768 18.0176V15.8555C87.0768 15.2949 87.4769 14.8945 88.0372 14.8945H94.4399C95.0001 14.8945 95.4003 15.2949 95.4003 15.8555C95.4003 16.7363 96.4407 17.1367 97.081 16.4961C97.2411 16.3359 97.4011 16.1758 97.5612 16.0156C98.6817 15.0547 100.042 14.5742 101.643 14.5742C101.883 14.5742 102.203 14.5742 102.603 14.5742V19.0586C102.603 19.5391 102.203 20.0195 101.723 20.0195C100.683 20.0996 99.8021 20.2598 99.0818 20.5C98.2015 20.8203 97.4011 21.541 96.8409 22.582C96.2806 23.623 95.9605 24.9844 95.9605 26.4258V27.627C95.9605 28.1875 96.3607 28.5879 96.9209 28.5879H98.5216C99.0818 28.668 99.482 29.0684 99.482 29.6289Z" fill="#1F1F1F"/>
<path d="M104.524 18.0174V15.8553C104.524 15.2947 104.924 14.8943 105.485 14.8943H105.805C106.365 14.8943 106.765 14.4939 106.765 13.9334V12.5721C106.765 12.2518 106.925 11.9314 107.165 11.7713L110.927 9.04863C111.567 8.56816 112.447 9.04863 112.447 9.84941V13.9334C112.447 14.4939 112.848 14.8943 113.408 14.8943H114.768C115.329 14.8943 115.729 15.2947 115.729 15.8553V18.0174C115.729 18.5779 115.329 18.9783 114.768 18.9783H113.408C112.848 18.9783 112.447 19.3787 112.447 19.9393V26.7459C112.447 27.4666 112.528 27.9471 112.688 28.1873C112.848 28.4275 113.248 28.5877 113.888 28.5877C114.128 28.5877 114.288 28.5877 114.528 28.5076C115.089 28.4275 115.649 28.8279 115.649 29.4686V31.4705C115.649 31.8709 115.409 32.2713 115.009 32.3514C113.728 32.8318 112.528 32.992 111.327 32.992C108.206 32.992 106.605 31.4705 106.605 28.3475V19.9393C106.605 19.3787 106.205 18.9783 105.645 18.9783H105.325C105.004 18.9783 104.524 18.5779 104.524 18.0174Z" fill="#1F1F1F"/>
<path d="M129.735 29.6289V31.791C129.735 32.3516 129.334 32.752 128.774 32.752H118.05C117.49 32.752 117.089 32.3516 117.089 31.791V29.6289C117.089 29.0684 117.49 28.668 118.05 28.668H119.41C119.971 28.668 120.371 28.2676 120.371 27.707V19.9395C120.371 19.3789 119.971 18.9785 119.41 18.9785H118.21C117.65 18.9785 117.249 18.5781 117.249 18.0176V15.8555C117.249 15.2949 117.65 14.8945 118.21 14.8945H124.613C125.173 14.8945 125.573 15.2949 125.573 15.8555C125.573 16.7363 126.613 17.1367 127.254 16.4961C127.414 16.3359 127.574 16.1758 127.734 16.0156C128.854 15.0547 130.215 14.5742 131.816 14.5742C132.056 14.5742 132.376 14.5742 132.776 14.5742V19.0586C132.776 19.5391 132.376 20.0195 131.896 20.0195C130.855 20.0996 129.975 20.2598 129.254 20.5C128.374 20.8203 127.574 21.541 127.014 22.582C126.453 23.7031 126.133 24.9844 126.133 26.4258V27.627C126.133 28.1875 126.533 28.5879 127.094 28.5879H128.694C129.335 28.668 129.735 29.0684 129.735 29.6289Z" fill="#1F1F1F"/>
<path d="M148.783 27.5469L151.424 28.3477C152.064 28.5879 152.304 29.3887 151.904 29.8691C150.063 32.0312 147.422 33.1523 143.981 33.1523C140.779 33.1523 138.378 32.3516 136.538 30.6699C134.777 28.9883 133.896 26.8262 133.896 24.1035C133.896 21.3008 134.777 19.0586 136.618 17.1367C138.458 15.2949 140.779 14.334 143.581 14.334C145.661 14.334 147.422 14.8145 148.863 15.8555C150.383 16.8965 151.424 18.1777 151.984 19.6992C152.464 20.9805 152.704 22.3418 152.864 23.8633C152.864 24.4238 152.464 24.9043 151.904 24.9043H140.619C139.979 24.9043 139.499 25.4648 139.659 26.0254C139.899 27.0664 140.379 27.8672 141.1 28.3477C142.06 29.0684 143.02 29.3887 144.061 29.3887C145.261 29.3887 146.542 28.8281 147.822 27.707C148.062 27.5469 148.383 27.4668 148.783 27.5469ZM145.821 21.7813C146.542 21.7813 147.022 21.0605 146.702 20.4199C146.542 19.9395 146.222 19.5391 145.902 19.2188C145.261 18.498 144.381 18.1777 143.26 18.1777C141.58 18.1777 140.459 18.9785 139.899 20.5C139.659 21.1406 140.139 21.7813 140.779 21.7813H145.821Z" fill="#1F1F1F"/>
<path d="M155.586 31.8711V27.627C155.586 27.0664 155.986 26.666 156.546 26.666H158.947C159.347 26.666 159.747 26.9863 159.907 27.3867C160.067 27.8672 160.468 28.3477 160.948 28.668C161.668 29.1484 162.628 29.3887 163.669 29.3887C164.629 29.3887 165.35 29.2285 165.83 28.9082C166.39 28.5879 166.63 28.1875 166.63 27.627C166.63 27.1465 166.39 26.8262 165.91 26.5059C165.43 26.2656 164.469 26.0254 163.109 25.7852C160.227 25.3047 158.147 24.584 156.786 23.623C155.505 22.6621 154.865 21.3809 154.865 19.7793C154.865 18.2578 155.506 17.0566 156.706 16.0156C157.907 14.9746 159.507 14.4941 161.508 14.4941C163.109 14.4941 164.629 14.8145 166.07 15.375V14.7344H169.191C169.751 14.7344 170.152 15.1348 170.152 15.6953V18.9785C170.152 19.5391 169.751 19.9395 169.191 19.9395H166.71C166.39 19.9395 166.07 19.7793 165.91 19.459C165.35 18.498 164.149 18.0176 162.148 18.0176C160.468 18.0176 159.667 18.498 159.667 19.3789C159.667 19.6992 159.827 20.0195 160.147 20.1797C160.468 20.3398 161.348 20.5801 162.789 20.8203C165.029 21.2207 166.63 21.6211 167.751 21.9414C168.871 22.3418 169.751 22.9824 170.392 23.8633C171.032 24.7441 171.352 25.7852 171.352 27.0664C171.352 28.8281 170.712 30.2695 169.431 31.3906C168.151 32.5117 166.39 33.0723 164.069 33.0723C161.908 33.0723 160.468 32.6719 159.667 31.791V32.832H156.466C156.066 32.832 155.586 32.3516 155.586 31.8711Z" fill="#1F1F1F"/>
<path d="M174.233 31.8711V27.627C174.233 27.0664 174.634 26.666 175.194 26.666H177.595C177.995 26.666 178.395 26.9863 178.555 27.3867C178.715 27.8672 179.116 28.3477 179.596 28.668C180.316 29.1484 181.276 29.3887 182.317 29.3887C183.277 29.3887 183.998 29.2285 184.478 28.9082C185.038 28.5879 185.278 28.1875 185.278 27.627C185.278 27.1465 185.038 26.8262 184.558 26.5059C184.078 26.2656 183.117 26.0254 181.757 25.7852C178.875 25.3047 176.795 24.584 175.434 23.623C174.153 22.6621 173.513 21.3809 173.513 19.7793C173.513 18.2578 174.153 17.0566 175.354 16.0156C176.554 14.9746 178.155 14.4941 180.156 14.4941C181.757 14.4941 183.277 14.8145 184.718 15.375V14.7344H187.839C188.399 14.7344 188.8 15.1348 188.8 15.6953V18.9785C188.8 19.5391 188.399 19.9395 187.839 19.9395H185.358C185.038 19.9395 184.718 19.7793 184.558 19.459C183.998 18.498 182.797 18.0176 180.796 18.0176C179.116 18.0176 178.315 18.498 178.315 19.3789C178.315 19.6992 178.475 20.0195 178.795 20.1797C179.116 20.3398 179.996 20.5801 181.437 20.8203C183.677 21.2207 185.278 21.6211 186.399 21.9414C187.519 22.3418 188.399 22.9824 189.04 23.8633C189.68 24.7441 190 25.7852 190 27.0664C190 28.8281 189.36 30.2695 188.079 31.3906C186.799 32.5117 185.038 33.0723 182.717 33.0723C180.556 33.0723 179.116 32.6719 178.315 31.791V32.832H175.114C174.634 32.832 174.233 32.3516 174.233 31.8711Z" fill="#1F1F1F"/>
<path d="M31.6933 12.252C32.6537 12.252 33.4541 11.4512 33.4541 10.4902V1.76172C33.4541 0.800781 32.6537 0 31.6933 0C30.7329 0 29.9326 0.800781 29.9326 1.76172V8.72852H26.011V1.76172C26.011 0.800781 25.2106 0 24.2502 0C23.2098 0 22.4094 0.800781 22.4094 1.76172V8.72852H18.4878V1.76172C18.4878 0.800781 17.6874 0 16.727 0C15.7666 0 14.9663 0.800781 14.9663 1.76172V8.72852H11.0447V1.76172C11.0447 0.800781 10.2443 0 9.28391 0C8.32351 0 7.44313 0.800781 7.44313 1.76172V8.72852H3.52148V1.76172C3.52148 0.800781 2.72115 0 1.76074 0C0.800337 0 0 0.800781 0 1.76172V24.2637C0 33.4727 7.52317 41 16.727 41C25.9309 41 33.4541 33.4727 33.4541 24.2637V19.2988C33.4541 17.5371 32.0135 16.1758 30.3328 16.1758H14.9663V37.3965C13.5257 37.2363 12.2452 36.7559 11.0447 36.1953V12.252H31.6933ZM18.4878 19.6992H29.9326V24.2637C29.9326 30.9902 24.9705 36.5156 18.4878 37.3965V19.6992ZM7.44313 33.6328C5.04212 31.2305 3.52148 27.8672 3.52148 24.1836V12.1719H7.44313V33.6328Z" fill="#1F1F1F"/>
</svg>
