<svg width="60" height="60" viewBox="0 0 60 60" fill="none" xmlns="http://www.w3.org/2000/svg">
<g filter="url(#filter0_d)">
<rect x="3" y="1" width="54" height="54" rx="27" fill="#030509"/>
<path d="M36.5753 28.2785C38.3755 28.2785 40.0557 28.2785 41.7963 28.2785C41.553 29.3961 41.3254 30.442 41.0957 31.488C41.0163 31.8491 40.9004 32.2062 40.8597 32.5713C40.82 32.9263 40.6404 33.003 40.3073 33C38.8809 32.9879 37.4535 33.0141 36.0282 32.9858C35.6021 32.9778 35.4653 33.1351 35.3839 33.5043C34.8837 35.7667 34.3627 38.025 33.8489 40.2854C33.8312 40.3651 33.8092 40.4448 33.7758 40.5729C33.6015 40.5729 33.4312 40.5729 33.2621 40.5729C28.2165 40.5668 23.172 40.5648 18.1264 40.5517C17.1877 40.5487 16.2489 40.4982 15.3102 40.469C15.0533 40.4609 14.8038 40.4448 14.8622 40.0847C15.1045 38.5959 15.3436 37.1072 15.5932 35.5619C16.6175 35.5619 17.5876 35.567 18.5577 35.5609C22.1069 35.5387 25.6551 35.5034 29.2043 35.4994C29.6669 35.4984 29.8256 35.3592 29.9154 34.9285C30.3446 32.8749 30.8176 30.8304 31.2677 28.7808C31.8973 25.9112 32.528 23.0416 33.1368 20.167C33.2214 19.7655 33.3665 19.6293 33.8113 19.6324C37.4128 19.6536 41.0142 19.6445 44.6157 19.6445C44.8015 19.6445 44.9884 19.6445 45.2182 19.6445C44.8872 21.1595 44.5635 22.6149 44.2533 24.0734C44.1802 24.4194 43.9192 24.3549 43.6863 24.3549C41.8078 24.3579 39.9283 24.372 38.0497 24.3458C37.5715 24.3387 37.371 24.494 37.2864 24.9348C37.0755 26.0151 36.8291 27.0913 36.5753 28.2785Z" fill="#E1B30A"/>
<path d="M25.8661 19.7111C27.5473 19.7111 29.1898 19.7111 30.9013 19.7111C30.8522 20.055 30.8271 20.3495 30.7666 20.636C30.0659 23.9544 29.3579 27.2709 28.6552 30.5883C28.4599 31.5082 28.2657 32.4281 28.0872 33.351C28.0255 33.6677 27.8814 33.8039 27.5316 33.8018C26.1919 33.7948 24.8522 33.8109 23.5125 33.824C23.1481 33.8271 22.9622 33.7343 23.0489 33.3197C23.9887 28.8171 24.9159 24.3115 25.8661 19.7111Z" fill="#E1B30A"/>
<path d="M23.3201 23.7728C23.1259 24.7018 22.9463 25.5672 22.7636 26.4316C22.278 28.7283 21.782 31.023 21.3122 33.3217C21.2401 33.6727 21.096 33.8028 20.7326 33.8028C19.3595 33.7998 17.9864 33.8078 16.6143 33.832C16.1559 33.8401 16.0254 33.6485 16.112 33.245C16.3658 32.0649 16.6039 30.8828 16.8701 29.7057C17.2805 27.8901 17.7149 26.0796 18.1232 24.263C18.2057 23.8959 18.3602 23.7516 18.7779 23.7617C20.0977 23.793 21.4197 23.7738 22.7406 23.7738C22.9098 23.7728 23.08 23.7728 23.3201 23.7728Z" fill="#E1B30A"/>
<path d="M33.7246 18.4946C33.9658 17.2147 34.1882 16.0325 34.4159 14.8292C36.1816 14.8292 37.9129 14.8292 39.6619 14.8292C39.45 15.9801 39.2453 17.1178 39.0208 18.2516C39.002 18.3454 38.8516 18.4835 38.7608 18.4835C37.113 18.4987 35.4642 18.4946 33.7246 18.4946Z" fill="#E1B30A"/>
</g>
<defs>
<filter id="filter0_d" x="0" y="0" width="60" height="60" filterUnits="userSpaceOnUse" color-interpolation-filters="sRGB">
<feFlood flood-opacity="0" result="BackgroundImageFix"/>
<feColorMatrix in="SourceAlpha" type="matrix" values="0 0 0 0 0 0 0 0 0 0 0 0 0 0 0 0 0 0 127 0"/>
<feOffset dy="2"/>
<feGaussianBlur stdDeviation="1.5"/>
<feColorMatrix type="matrix" values="0 0 0 0 0 0 0 0 0 0 0 0 0 0 0 0 0 0 0.1 0"/>
<feBlend mode="normal" in2="BackgroundImageFix" result="effect1_dropShadow"/>
<feBlend mode="normal" in="SourceGraphic" in2="effect1_dropShadow" result="shape"/>
</filter>
</defs>
</svg>
