<svg width="217" height="57" viewBox="0 0 217 57" fill="none" xmlns="http://www.w3.org/2000/svg">
<path d="M70.0258 32.4481V43.2435C70.0258 43.8604 69.5314 44.2922 68.9751 44.2922H65.7612V14.0649H68.9751C69.5932 14.0649 70.0258 14.5584 70.0258 15.1136V25.9091C70.0258 26.526 70.5203 26.9578 71.0765 26.9578H81.8925C82.5106 26.9578 82.9432 26.4643 82.9432 25.9091V15.237C82.9432 14.6201 83.4377 14.1883 83.9939 14.1883H86.1571C86.7752 14.1883 87.2078 14.6818 87.2078 15.237V43.3052C87.2078 43.9221 86.7134 44.3539 86.1571 44.3539H84.0557C83.4377 44.3539 83.005 43.8604 83.005 43.3052V32.4481C83.005 31.8312 82.5106 31.3994 81.9543 31.3994H71.0765C70.5203 31.3994 70.0258 31.8929 70.0258 32.4481Z" fill="white"/>
<path d="M95.9843 43.2435C95.9843 42.6266 95.4898 42.1948 94.9336 42.1948C94.3155 42.1948 93.8829 41.7013 93.8829 41.1461C93.8829 40.5292 93.3884 40.0974 92.8322 40.0974C92.2141 40.0974 91.7815 39.6039 91.7815 39.0487V32.448C91.7815 31.8311 92.2759 31.3993 92.8322 31.3993C93.4502 31.3993 93.8829 30.9058 93.8829 30.3506C93.8829 29.7337 94.3773 29.3019 94.9336 29.3019C95.5516 29.3019 95.9843 28.8084 95.9843 28.2532C95.9843 27.6363 96.4787 27.2045 97.035 27.2045H105.688C106.306 27.2045 106.738 27.698 106.738 28.2532C106.738 28.8701 107.233 29.3019 107.789 29.3019C108.407 29.3019 108.84 28.8084 108.84 28.2532V26.0941C108.84 25.4772 108.345 25.0454 107.789 25.0454C107.171 25.0454 106.738 24.5519 106.738 23.9967C106.738 23.3798 106.244 22.948 105.688 22.948H97.035C96.4169 22.948 95.9843 22.4545 95.9843 21.8993V19.7402C95.9843 19.1233 96.4787 18.6915 97.035 18.6915H107.851C108.469 18.6915 108.902 19.185 108.902 19.7402C108.902 20.3571 109.396 20.7889 109.952 20.7889C110.57 20.7889 111.003 21.2824 111.003 21.8376C111.003 22.4545 111.498 22.8863 112.054 22.8863C112.672 22.8863 113.104 23.3798 113.104 23.935V43.3669C113.104 43.9837 112.61 44.4156 112.054 44.4156H110.014C109.396 44.4156 108.963 43.9221 108.963 43.3669C108.963 42.75 108.469 42.3182 107.913 42.3182C107.295 42.3182 106.862 42.8117 106.862 43.3669C106.862 43.9837 106.368 44.4156 105.811 44.4156H97.1586C96.4169 44.3539 95.9843 43.8604 95.9843 43.2435ZM99.1982 40.0357H105.688C106.306 40.0357 106.738 39.5422 106.738 38.987C106.738 38.3701 107.233 37.9383 107.789 37.9383C108.407 37.9383 108.84 37.4448 108.84 36.8896V34.7305C108.84 34.1136 108.345 33.6818 107.789 33.6818C107.171 33.6818 106.738 33.1883 106.738 32.6331C106.738 32.0162 106.244 31.5844 105.688 31.5844H99.1982C98.5801 31.5844 98.1475 32.0779 98.1475 32.6331C98.1475 33.25 97.653 33.6818 97.0968 33.6818C96.4787 33.6818 96.0461 34.1753 96.0461 34.7305V36.8896C96.0461 37.5065 96.5405 37.9383 97.0968 37.9383C97.7148 37.9383 98.1475 38.4318 98.1475 38.987C98.1475 39.5422 98.5801 40.0357 99.1982 40.0357Z" fill="white"/>
<path d="M118.667 40.0357C118.049 40.0357 117.616 39.5422 117.616 38.987V36.8279C117.616 36.211 118.111 35.7792 118.667 35.7792H120.83C121.448 35.7792 121.881 36.2727 121.881 36.8279C121.881 37.4448 122.375 37.8766 122.931 37.8766C123.55 37.8766 123.982 38.3701 123.982 38.9253C123.982 39.5422 124.477 39.974 125.033 39.974H131.646C132.264 39.974 132.697 39.4805 132.697 38.9253V36.7662C132.697 36.1493 132.202 35.7175 131.646 35.7175H129.483C128.865 35.7175 128.432 35.224 128.432 34.6688C128.432 34.0519 127.938 33.6201 127.382 33.6201H125.218C124.6 33.6201 124.168 33.1266 124.168 32.5714C124.168 31.9545 123.673 31.5227 123.117 31.5227H120.954C120.336 31.5227 119.903 31.0292 119.903 30.474C119.903 29.8571 119.409 29.4253 118.852 29.4253C118.234 29.4253 117.802 28.9318 117.802 28.3766V26.2175C117.802 25.6006 118.296 25.1688 118.852 25.1688C119.47 25.1688 119.903 24.6753 119.903 24.1201C119.903 23.5032 120.397 23.0714 120.954 23.0714C121.572 23.0714 122.004 22.5779 122.004 22.0227C122.004 21.4058 122.499 20.974 123.055 20.974H133.871C134.489 20.974 134.922 21.4675 134.922 22.0227C134.922 22.6396 135.416 23.0714 135.973 23.0714C136.591 23.0714 137.023 23.5649 137.023 24.1201C137.023 24.737 137.518 25.1688 138.074 25.1688C138.692 25.1688 139.125 25.6623 139.125 26.2175V28.3766C139.125 28.9935 138.63 29.4253 138.074 29.4253H135.911C135.293 29.4253 134.86 28.9318 134.86 28.3766C134.86 27.7597 134.366 27.3279 133.809 27.3279C133.191 27.3279 132.759 26.8344 132.759 26.2792C132.759 25.6623 132.264 25.2305 131.708 25.2305H125.218C124.6 25.2305 124.168 25.724 124.168 26.2792V28.4383C124.168 29.0552 124.662 29.487 125.218 29.487H129.545C130.163 29.487 130.595 29.9805 130.595 30.5357C130.595 31.1526 131.09 31.5844 131.646 31.5844H133.809C134.427 31.5844 134.86 32.0779 134.86 32.6331C134.86 33.25 135.354 33.6818 135.911 33.6818C136.529 33.6818 136.961 34.1753 136.961 34.7305C136.961 35.3474 137.456 35.7792 138.012 35.7792C138.63 35.7792 139.063 36.2727 139.063 36.8279V38.987C139.063 39.6039 138.568 40.0357 138.012 40.0357C137.394 40.0357 136.961 40.5292 136.961 41.0844C136.961 41.7013 136.467 42.1331 135.911 42.1331C135.293 42.1331 134.86 42.6266 134.86 43.1818C134.86 43.7987 134.366 44.2305 133.809 44.2305H122.993C122.375 44.2305 121.943 43.737 121.943 43.1818C121.943 42.5649 121.448 42.1331 120.892 42.1331C120.274 42.1331 119.841 41.6396 119.841 41.0844C119.718 40.5292 119.223 40.0357 118.667 40.0357Z" fill="white"/>
<path d="M147.839 32.4481V43.2435C147.839 43.8604 147.345 44.2922 146.789 44.2922H144.625C144.007 44.2922 143.575 43.7987 143.575 43.2435V15.2371C143.575 14.6202 144.069 14.1884 144.625 14.1884H146.789C147.407 14.1884 147.839 14.6819 147.839 15.2371V23.8734C147.839 24.4903 148.334 24.9221 148.89 24.9221C149.508 24.9221 149.941 24.4286 149.941 23.8734C149.941 23.2565 150.435 22.8247 150.991 22.8247C151.609 22.8247 152.042 22.3312 152.042 21.776C152.042 21.1591 152.537 20.7273 153.093 20.7273H157.419C158.037 20.7273 158.47 21.2208 158.47 21.776C158.47 22.3929 158.964 22.8247 159.521 22.8247C160.139 22.8247 160.571 23.3182 160.571 23.8734C160.571 24.4903 161.066 24.9221 161.622 24.9221C162.24 24.9221 162.673 25.4156 162.673 25.9708C162.673 26.5877 163.167 27.0195 163.723 27.0195C164.341 27.0195 164.774 27.513 164.774 28.0682V43.1819C164.774 43.7987 164.28 44.2306 163.723 44.2306H161.56C160.942 44.2306 160.51 43.7371 160.51 43.1819V30.2273C160.51 29.6104 160.015 29.1786 159.459 29.1786C158.841 29.1786 158.408 28.6851 158.408 28.1299C158.408 27.513 157.914 27.0812 157.357 27.0812C156.739 27.0812 156.307 26.5877 156.307 26.0325C156.307 25.4156 155.812 24.9838 155.256 24.9838C154.638 24.9838 154.205 25.4773 154.205 26.0325C154.205 26.6494 153.711 27.0812 153.155 27.0812C152.537 27.0812 152.104 27.5747 152.104 28.1299C152.104 28.7468 151.609 29.1786 151.053 29.1786C150.435 29.1786 150.003 29.6721 150.003 30.2273C150.003 30.8442 149.508 31.276 148.952 31.276C148.334 31.3994 147.839 31.8929 147.839 32.4481Z" fill="white"/>
<path d="M173.736 15.2371C173.736 14.6202 174.23 14.1884 174.786 14.1884H185.602C186.22 14.1884 186.653 14.6819 186.653 15.2371C186.653 15.8539 187.148 16.2858 187.704 16.2858C188.322 16.2858 188.755 16.7793 188.755 17.3345C188.755 17.9513 189.249 18.3832 189.805 18.3832C190.423 18.3832 190.856 18.8767 190.856 19.4319V38.8637C190.856 39.4806 190.361 39.9124 189.805 39.9124C189.187 39.9124 188.755 40.4059 188.755 40.9611C188.755 41.578 188.26 42.0098 187.704 42.0098C187.086 42.0098 186.653 42.5033 186.653 43.0585C186.653 43.6754 186.159 44.1072 185.602 44.1072H174.786C174.168 44.1072 173.736 43.6137 173.736 43.0585C173.736 42.4416 173.241 42.0098 172.685 42.0098C172.067 42.0098 171.634 41.5163 171.634 40.9611C171.634 40.3442 171.14 39.9124 170.584 39.9124C169.966 39.9124 169.533 39.4189 169.533 38.8637V19.5552C169.533 18.9384 170.027 18.5065 170.584 18.5065C171.202 18.5065 171.634 18.013 171.634 17.4578C171.634 16.841 172.129 16.4091 172.685 16.4091C173.303 16.2858 173.736 15.7923 173.736 15.2371ZM175.899 30.289C175.899 29.6721 176.393 29.2403 176.95 29.2403C177.568 29.2403 178 28.7468 178 28.1916C178 27.5747 178.495 27.1429 179.051 27.1429C179.669 27.1429 180.102 26.6494 180.102 26.0942C180.102 25.4773 180.596 25.0455 181.152 25.0455C181.77 25.0455 182.203 24.552 182.203 23.9968C182.203 23.3799 182.698 22.9481 183.254 22.9481H185.417C186.035 22.9481 186.468 22.4546 186.468 21.8994C186.468 21.2825 185.973 20.8507 185.417 20.8507C184.799 20.8507 184.366 20.3572 184.366 19.802C184.366 19.1851 183.872 18.7533 183.316 18.7533H176.826C176.208 18.7533 175.775 19.2468 175.775 19.802C175.775 20.4189 175.281 20.8507 174.725 20.8507C174.107 20.8507 173.674 21.3442 173.674 21.8994V30.5358C173.674 31.1526 174.168 31.5845 174.725 31.5845C175.466 31.3994 175.899 30.9059 175.899 30.289ZM173.736 36.7663C173.736 37.3832 174.23 37.815 174.786 37.815C175.405 37.815 175.837 38.3085 175.837 38.8637C175.837 39.4806 176.332 39.9124 176.888 39.9124H183.377C183.996 39.9124 184.428 39.4189 184.428 38.8637C184.428 38.2468 184.923 37.815 185.479 37.815C186.097 37.815 186.53 37.3215 186.53 36.7663V28.1299C186.53 27.513 186.035 27.0812 185.479 27.0812C184.861 27.0812 184.428 27.5747 184.428 28.1299C184.428 28.7468 183.934 29.1786 183.377 29.1786C182.759 29.1786 182.327 29.6721 182.327 30.2273C182.327 30.8442 181.832 31.276 181.276 31.276C180.658 31.276 180.225 31.7695 180.225 32.3247C180.225 32.9416 179.731 33.3734 179.175 33.3734C178.557 33.3734 178.124 33.8669 178.124 34.4221C178.124 35.039 177.63 35.4708 177.073 35.4708H174.91C174.23 35.7176 173.736 36.2111 173.736 36.7663Z" fill="white"/>
<path d="M199.694 38.9254V43.2435C199.694 43.8604 199.2 44.2922 198.644 44.2922H196.48C195.862 44.2922 195.43 43.7987 195.43 43.2435V36.7663C195.43 36.1494 195.924 35.7176 196.48 35.7176C197.098 35.7176 197.531 35.2241 197.531 34.6689C197.531 34.052 198.026 33.6202 198.582 33.6202C199.2 33.6202 199.632 33.1267 199.632 32.5715C199.632 31.9546 200.127 31.5228 200.683 31.5228C201.301 31.5228 201.734 31.0293 201.734 30.4741V28.315C201.734 27.6981 201.239 27.2663 200.683 27.2663C200.065 27.2663 199.632 26.7728 199.632 26.2176C199.632 25.6007 199.138 25.1689 198.582 25.1689C197.964 25.1689 197.531 24.6754 197.531 24.1202C197.531 23.5033 197.037 23.0715 196.48 23.0715C195.862 23.0715 195.43 22.578 195.43 22.0228V15.2371C195.43 14.6202 195.924 14.1884 196.48 14.1884H198.644C199.262 14.1884 199.694 14.6819 199.694 15.2371V19.5552C199.694 20.1721 200.189 20.6039 200.745 20.6039C201.363 20.6039 201.796 21.0974 201.796 21.6526C201.796 22.2695 202.29 22.7013 202.846 22.7013C203.464 22.7013 203.897 23.1948 203.897 23.75C203.897 24.3669 204.392 24.7987 204.948 24.7987H207.111C207.729 24.7987 208.162 24.3052 208.162 23.75C208.162 23.1332 208.656 22.7013 209.212 22.7013C209.83 22.7013 210.263 22.2078 210.263 21.6526C210.263 21.0358 210.757 20.6039 211.314 20.6039C211.932 20.6039 212.364 20.1104 212.364 19.5552V15.2371C212.364 14.6202 212.859 14.1884 213.415 14.1884H215.578C216.196 14.1884 216.629 14.6819 216.629 15.2371V21.7143C216.629 22.3312 216.135 22.763 215.578 22.763C214.96 22.763 214.528 23.2565 214.528 23.8117C214.528 24.4286 214.033 24.8604 213.477 24.8604C212.859 24.8604 212.426 25.3539 212.426 25.9091C212.426 26.526 211.932 26.9578 211.376 26.9578C210.757 26.9578 210.325 27.4513 210.325 28.0065V30.1656C210.325 30.7825 210.819 31.2143 211.376 31.2143C211.994 31.2143 212.426 31.7078 212.426 32.263C212.426 32.8799 212.921 33.3117 213.477 33.3117C214.095 33.3117 214.528 33.8052 214.528 34.3604C214.528 34.9773 215.022 35.4091 215.578 35.4091C216.196 35.4091 216.629 35.9026 216.629 36.4578V42.9351C216.629 43.552 216.135 43.9838 215.578 43.9838H213.415C212.797 43.9838 212.364 43.4903 212.364 42.9351V38.6169C212.364 38 211.87 37.5682 211.314 37.5682C210.696 37.5682 210.263 37.0747 210.263 36.5195C210.263 35.9026 209.769 35.4708 209.212 35.4708C208.594 35.4708 208.162 34.9773 208.162 34.4221C208.162 33.8052 207.667 33.3734 207.111 33.3734H204.948C204.33 33.3734 203.897 33.8669 203.897 34.4221C203.897 35.039 203.403 35.4708 202.846 35.4708C202.228 35.4708 201.796 35.9643 201.796 36.5195C201.796 37.1364 201.301 37.5682 200.745 37.5682C200.189 37.8767 199.694 38.3702 199.694 38.9254Z" fill="white"/>
<path d="M13.2882 39.6656V36.7046C13.2882 36.4578 13.4737 36.2728 13.7209 36.2728H16.6876C16.9348 36.2728 17.1202 36.0877 17.1202 35.841V32.8799C17.1202 32.6332 17.3056 32.4481 17.5528 32.4481H20.5195C20.7667 32.4481 20.9522 32.263 20.9522 32.0163V25.2923C20.9522 25.0455 20.7667 24.8604 20.5195 24.8604H17.5528C17.3056 24.8604 17.1202 24.6754 17.1202 24.4286V21.4676C17.1202 21.2208 16.9348 21.0358 16.6876 21.0358H13.7209C13.4737 21.0358 13.2882 20.8507 13.2882 20.6039V17.6429C13.2882 17.3961 13.1028 17.2111 12.8556 17.2111H9.88893C9.6417 17.2111 9.45629 17.026 9.45629 16.7793V16.4708C9.45629 16.039 8.90003 15.9156 8.71462 16.2241C6.4278 19.802 5.12988 24.0585 5.12988 28.6234C5.12988 33.1884 6.4278 37.4449 8.71462 41.0228C8.96184 41.3929 9.45629 41.2078 9.45629 40.776V40.3442C9.45629 40.0975 9.6417 39.9124 9.88893 39.9124H12.8556C13.1028 40.0358 13.2882 39.8507 13.2882 39.6656Z" fill="white"/>
<path d="M43.6966 17.7045V20.6656C43.6966 20.9123 43.5112 21.0974 43.264 21.0974H40.2973C40.0501 21.0974 39.8647 21.2825 39.8647 21.5292V24.4903C39.8647 24.737 39.6793 24.9221 39.432 24.9221H36.4654C36.2181 24.9221 36.0327 25.1071 36.0327 25.3539V32.1396C36.0327 32.3864 36.2181 32.5714 36.4654 32.5714H39.432C39.6793 32.5714 39.8647 32.7565 39.8647 33.0033V35.9643C39.8647 36.211 40.0501 36.3961 40.2973 36.3961H43.264C43.5112 36.3961 43.6966 36.5812 43.6966 36.8279V39.789C43.6966 40.0357 43.882 40.2208 44.1293 40.2208H47.0959C47.3432 40.2208 47.5286 40.4059 47.5286 40.6526V40.776C47.5286 41.2078 48.0848 41.3312 48.2703 41.0227C50.4335 37.5065 51.6696 33.3734 51.6696 28.9318C51.6696 24.4903 50.4335 20.3571 48.2703 16.8409C48.023 16.4708 47.5286 16.6558 47.5286 17.0877C47.5286 17.3344 47.3432 17.5195 47.0959 17.5195H44.1293C43.882 17.2727 43.6966 17.4578 43.6966 17.7045Z" fill="white"/>
<path d="M20.8903 13.9416V16.9027C20.8903 17.1494 21.0757 17.3345 21.3229 17.3345H24.2896C24.5368 17.3345 24.7223 17.5195 24.7223 17.7663V20.7273C24.7223 20.9741 24.9077 21.1591 25.1549 21.1591H31.9535C32.2008 21.1591 32.3862 20.9741 32.3862 20.7273V17.7663C32.3862 17.5195 32.5716 17.3345 32.8188 17.3345H35.7855C36.0327 17.3345 36.2181 17.1494 36.2181 16.9027V13.9416C36.2181 13.6949 36.4036 13.5098 36.6508 13.5098H39.6175C39.8647 13.5098 40.0501 13.3247 40.0501 13.078V8.75979C40.0501 8.63642 39.9883 8.45135 39.8647 8.38966C36.3417 6.6007 32.5098 5.552 28.3688 5.552C24.3514 5.552 20.5813 6.6007 17.2438 8.38966C17.1202 8.45135 17.0583 8.57473 17.0583 8.75979V13.1397C17.0583 13.3864 17.2438 13.5715 17.491 13.5715H20.4577C20.7049 13.5098 20.8903 13.6949 20.8903 13.9416Z" fill="white"/>
<path d="M36.0946 43.4286V40.4676C36.0946 40.2208 35.9092 40.0357 35.662 40.0357H32.6953C32.4481 40.0357 32.2626 39.8507 32.2626 39.6039V36.6429C32.2626 36.3961 32.0772 36.2111 31.83 36.2111H25.0314C24.7841 36.2111 24.5987 36.3961 24.5987 36.6429V39.6039C24.5987 39.8507 24.4133 40.0357 24.1661 40.0357H21.1994C20.9522 40.0357 20.7668 40.2208 20.7668 40.4676V43.4286C20.7668 43.6753 20.5814 43.8604 20.3341 43.8604H17.3675C17.1202 43.8604 16.9348 44.0455 16.9348 44.2922V48.7955C16.9348 48.9189 16.9966 49.1039 17.1202 49.1656C20.3959 50.9546 24.2279 52.0033 28.2453 52.0033C32.3244 52.0033 36.1564 50.9546 39.5557 49.1039C39.6793 49.0422 39.7411 48.9189 39.7411 48.7338V44.3539C39.7411 44.1072 39.5557 43.9221 39.3085 43.9221H36.3418C36.28 43.8604 36.0946 43.6753 36.0946 43.4286Z" fill="white"/>
<path d="M31.0264 32.4481H26.082C25.2785 32.4481 24.5986 31.7695 24.5986 30.9676V26.0325C24.5986 25.2306 25.2785 24.552 26.082 24.552H31.0264C31.8299 24.552 32.5098 25.2306 32.5098 26.0325V30.9676C32.5098 31.7695 31.8299 32.4481 31.0264 32.4481Z" fill="white"/>
</svg>
