<svg width="28" height="23" viewBox="0 0 28 23" fill="none" xmlns="http://www.w3.org/2000/svg">
<path d="M0.294922 20.2581C2.80922 21.8718 5.73452 22.7285 8.72212 22.726C10.9127 22.7772 13.0878 22.3473 15.0943 21.4667C17.1007 20.5861 18.8896 19.2761 20.3348 17.6292C22.9003 14.7117 24.3306 10.9686 24.3644 7.0837C24.3644 6.8169 24.3644 6.5846 24.3483 6.373C25.4261 5.5959 26.3555 4.63144 27.0922 3.5256C26.0887 3.96987 25.0242 4.26137 23.9343 4.3904C25.0781 3.70384 25.9331 2.62479 26.3401 1.3544C25.2617 1.99488 24.0816 2.44606 22.851 2.6884C22.096 1.88702 21.1179 1.33062 20.0432 1.09116C18.9685 0.851705 17.8467 0.940212 16.8229 1.34524C15.7991 1.75026 14.9203 2.45316 14.3003 3.36303C13.6803 4.2729 13.3476 5.34787 13.3451 6.4489C13.3443 6.87007 13.3922 7.28992 13.4877 7.7001C11.3022 7.58674 9.1648 7.01646 7.21332 6.02606C5.26184 5.03566 3.53966 3.64714 2.15792 1.9501C1.45472 3.1604 1.2393 4.59323 1.55551 5.9568C1.87173 7.32037 2.6958 8.51213 3.85992 9.2894C2.98651 9.26109 2.13251 9.02452 1.36902 8.5994V8.6684C1.37055 9.93838 1.80995 11.169 2.61313 12.1527C3.4163 13.1365 4.53412 13.8132 5.77812 14.0688C4.9691 14.2904 4.11992 14.3226 3.29642 14.1631C3.64709 15.2558 4.33082 16.2115 5.25181 16.8961C6.1728 17.5808 7.28491 17.9602 8.43232 17.9811C6.12753 19.7859 3.20149 20.6038 0.294922 20.2558V20.2581Z" fill="white"/>
</svg>
