<?xml version="1.0" encoding="UTF-8" standalone="no"?>
<svg
   xmlns:dc="http://purl.org/dc/elements/1.1/"
   xmlns:cc="http://creativecommons.org/ns#"
   xmlns:rdf="http://www.w3.org/1999/02/22-rdf-syntax-ns#"
   xmlns:svg="http://www.w3.org/2000/svg"
   xmlns="http://www.w3.org/2000/svg"
   xmlns:sodipodi="http://sodipodi.sourceforge.net/DTD/sodipodi-0.dtd"
   xmlns:inkscape="http://www.inkscape.org/namespaces/inkscape"
   width="21.6637"
   height="21.6614"
   viewBox="0 0 21.6637 21.6614"
   fill="none"
   version="1.1"
   id="svg13"
   sodipodi:docname="instagram.svg"
   inkscape:version="1.0.2-2 (e86c870879, 2021-01-15)">
  <metadata
     id="metadata17">
    <rdf:RDF>
      <cc:Work
         rdf:about="">
        <dc:format>image/svg+xml</dc:format>
        <dc:type
           rdf:resource="http://purl.org/dc/dcmitype/StillImage" />
        <dc:title></dc:title>
      </cc:Work>
    </rdf:RDF>
  </metadata>
  <sodipodi:namedview
     pagecolor="#ffffff"
     bordercolor="#666666"
     borderopacity="1"
     objecttolerance="10"
     gridtolerance="10"
     guidetolerance="10"
     inkscape:pageopacity="0"
     inkscape:pageshadow="2"
     inkscape:window-width="1920"
     inkscape:window-height="1051"
     id="namedview15"
     showgrid="false"
     fit-margin-top="0"
     fit-margin-left="0"
     fit-margin-right="0"
     fit-margin-bottom="0"
     inkscape:zoom="19.130435"
     inkscape:cx="10.833"
     inkscape:cy="10.8354"
     inkscape:window-x="-9"
     inkscape:window-y="-9"
     inkscape:window-maximized="1"
     inkscape:current-layer="svg13" />
  <g
     clip-path="url(#clip0)"
     id="g6"
     transform="translate(-12.167,-12.1646)">
    <path
       d="m 27.4023,22.9999 c 0,0.8706 -0.2582,1.7217 -0.7419,2.4457 -0.4837,0.7239 -1.1712,1.2882 -1.9756,1.6214 -0.8044,0.3332 -1.6896,0.4203 -2.5435,0.2505 -0.8539,-0.1699 -1.6384,-0.5892 -2.254,-1.2048 -0.6157,-0.6157 -1.035,-1.4001 -1.2048,-2.254 -0.1699,-0.854 -0.0827,-1.7391 0.2505,-2.5435 0.3332,-0.8044 0.8974,-1.4919 1.6214,-1.9756 0.7239,-0.4838 1.575,-0.7419 2.4457,-0.7419 1.1676,0 2.2872,0.4637 3.1128,1.2893 0.8256,0.8256 1.2894,1.9453 1.2894,3.1129 z"
       fill="#1f1f1f"
       id="path2" />
    <path
       d="M 33.2948,15.2098 C 33.0753,14.6399 32.7388,14.1224 32.307,13.6906 31.8752,13.2588 31.3577,12.9223 30.7878,12.7027 30.003,12.41 29.1736,12.2544 28.336,12.2427 26.9422,12.1783 26.5259,12.1646 23,12.1646 c -3.5259,0 -3.9445,0.0138 -5.336,0.0759 -0.8376,0.0117 -1.6669,0.1673 -2.4518,0.46 -0.5698,0.2195 -1.0874,0.556 -1.5192,0.9878 -0.4318,0.4318 -0.7683,0.9493 -0.9878,1.5191 -0.2927,0.7849 -0.4483,1.6142 -0.46,2.4518 -0.0644,1.3915 -0.0782,1.8102 -0.0782,5.3361 0,3.5259 0.0138,3.9445 0.0782,5.336 0.0117,0.8376 0.1673,1.6669 0.46,2.4518 0.2195,0.5698 0.556,1.0873 0.9878,1.5191 0.4318,0.4318 0.9494,0.7683 1.5192,0.9878 0.7848,0.293 1.6142,0.4486 2.4518,0.46 1.3915,0.0644 1.8101,0.076 5.336,0.076 3.5259,0 3.9445,-0.0139 5.336,-0.076 0.8376,-0.0114 1.667,-0.167 2.4518,-0.46 0.5699,-0.2195 1.0874,-0.556 1.5192,-0.9878 0.4318,-0.4318 0.7683,-0.9493 0.9878,-1.5191 0.2926,-0.7849 0.4482,-1.6143 0.46,-2.4518 0.0644,-1.3938 0.0759,-1.8101 0.0759,-5.336 0,-3.5259 -0.0138,-3.9446 -0.0759,-5.3361 -0.0117,-0.8368 -0.1673,-1.6654 -0.46,-2.4494 z M 23,29.7802 c -1.3415,0 -2.6529,-0.3977 -3.7683,-1.143 -1.1154,-0.7453 -1.9847,-1.8046 -2.4981,-3.044 -0.5133,-1.2394 -0.6477,-2.6032 -0.386,-3.9189 0.2618,-1.3157 0.9077,-2.5243 1.8563,-3.4728 0.9486,-0.9486 2.1572,-1.5946 3.4729,-1.8563 1.3157,-0.2617 2.6794,-0.1274 3.9188,0.3859 1.2394,0.5134 2.2987,1.3828 3.044,2.4982 0.7453,1.1154 1.1431,2.4268 1.1431,3.7683 0,1.7989 -0.7146,3.524 -1.9866,4.796 -1.272,1.272 -2.9972,1.9866 -4.7961,1.9866 z m 7.0495,-12.2474 c -0.3134,0 -0.6198,-0.093 -0.8804,-0.2671 -0.2606,-0.1742 -0.4637,-0.4217 -0.5837,-0.7112 -0.1199,-0.2896 -0.1513,-0.6082 -0.0901,-0.9156 0.0611,-0.3074 0.212,-0.5898 0.4337,-0.8114 0.2216,-0.2216 0.504,-0.3726 0.8114,-0.4337 0.3074,-0.0611 0.626,-0.0297 0.9156,0.0902 0.2895,0.1199 0.537,0.323 0.7111,0.5836 0.1742,0.2606 0.2671,0.567 0.2671,0.8805 3e-4,0.2083 -0.0404,0.4146 -0.12,0.6071 -0.0795,0.1925 -0.1961,0.3675 -0.3433,0.5149 -0.1472,0.1474 -0.322,0.2643 -0.5144,0.3441 -0.1924,0.0798 -0.3987,0.1209 -0.607,0.1209 z"
       fill="#1f1f1f"
       id="path4" />
  </g>
  <defs
     id="defs11">
    <clipPath
       id="clip0">
      <rect
         width="46"
         height="46"
         fill="#ffffff"
         id="rect8"
         x="0"
         y="0" />
    </clipPath>
  </defs>
</svg>
