<svg width="22" height="22" viewBox="0 0 22 22" fill="none" xmlns="http://www.w3.org/2000/svg">
<path d="M21.2948 3.21001C21.0753 2.64016 20.7388 2.12265 20.307 1.69084C19.8752 1.25903 19.3577 0.922497 18.7878 0.70298C18.003 0.410245 17.1736 0.254652 16.336 0.242987C14.9422 0.178587 14.5259 0.164795 11 0.164795C7.47411 0.164795 7.05549 0.178606 5.66399 0.240706C4.82641 0.252462 3.99709 0.408052 3.2122 0.700699C2.64236 0.920216 2.12484 1.25672 1.69304 1.68852C1.26123 2.12033 0.92473 2.63784 0.705212 3.20769C0.412522 3.99256 0.25693 4.82189 0.245219 5.65948C0.180819 7.05098 0.166992 7.4696 0.166992 10.9955C0.166992 14.5214 0.180819 14.94 0.245219 16.3315C0.256884 17.1691 0.412478 17.9984 0.705212 18.7833C0.92473 19.3531 1.26123 19.8707 1.69304 20.3025C2.12484 20.7343 2.64236 21.0708 3.2122 21.2903C3.99701 21.5832 4.82638 21.7388 5.66399 21.7503C7.05549 21.8147 7.47411 21.8262 11 21.8262C14.5259 21.8262 14.9445 21.8124 16.336 21.7503C17.1736 21.7388 18.003 21.5832 18.7878 21.2903C19.3577 21.0708 19.8752 20.7343 20.307 20.3025C20.7388 19.8707 21.0753 19.3531 21.2948 18.7833C21.5874 17.9984 21.743 17.1691 21.7548 16.3315C21.8192 14.9377 21.8307 14.5214 21.8307 10.9955C21.8307 7.4696 21.8169 7.05098 21.7548 5.65948C21.7431 4.82264 21.5875 3.99409 21.2948 3.21001ZM11 17.7805C9.65852 17.7805 8.34714 17.3827 7.23173 16.6374C6.11632 15.8921 5.24698 14.8328 4.73362 13.5934C4.22025 12.354 4.08593 10.9903 4.34764 9.67455C4.60935 8.35883 5.25532 7.15028 6.2039 6.2017C7.15247 5.25312 8.36106 4.60712 9.67678 4.34541C10.9925 4.0837 12.3562 4.21802 13.5956 4.73139C14.835 5.24475 15.8943 6.11412 16.6396 7.22953C17.3849 8.34494 17.7827 9.65632 17.7827 10.9978C17.7827 12.7967 17.0681 14.5219 15.7961 15.7939C14.5241 17.0659 12.7989 17.7805 11 17.7805ZM18.0495 5.533C17.7361 5.533 17.4297 5.44005 17.1691 5.26592C16.9085 5.09179 16.7054 4.84428 16.5854 4.55472C16.4655 4.26515 16.4341 3.94655 16.4953 3.63915C16.5564 3.33175 16.7073 3.04937 16.929 2.82775C17.1506 2.60613 17.433 2.45519 17.7404 2.39404C18.0478 2.3329 18.3664 2.3643 18.656 2.48424C18.9455 2.60418 19.193 2.80727 19.3671 3.06787C19.5413 3.32847 19.6342 3.63488 19.6342 3.94831C19.6345 4.1566 19.5938 4.36292 19.5142 4.55545C19.4347 4.74798 19.3181 4.92294 19.1709 5.07033C19.0237 5.21773 18.8489 5.33466 18.6565 5.41444C18.4641 5.49423 18.2578 5.53531 18.0495 5.53531V5.533Z" fill="white"/>
</svg>
